<?xml version="1.0" standalone="no"?>
<!DOCTYPE svg PUBLIC "-//W3C//DTD SVG 1.1//EN" "http://www.w3.org/Graphics/SVG/1.1/DTD/svg11.dtd" >
<svg xmlns="http://www.w3.org/2000/svg">
<metadata>Generated by IcoMoon</metadata>
<defs>
<font id="icomoon" horiz-adv-x="1024">
<font-face units-per-em="1024" ascent="960" descent="-64" />
<missing-glyph horiz-adv-x="1024" />
<glyph unicode="&#x20;" horiz-adv-x="512" d="" />
<glyph unicode="&#xe900;" glyph-name="user" d="M512 501.376c-111.744 0-202.624 90.88-202.624 202.624s90.88 202.624 202.624 202.624 202.624-90.88 202.624-202.624-90.88-202.624-202.624-202.624zM512 842.624c-76.416 0-138.624-62.208-138.624-138.624s62.208-138.624 138.624-138.624 138.624 62.208 138.624 138.624-62.208 138.624-138.624 138.624zM512 488.576c-118.784 0-215.424 96.64-215.424 215.424s96.64 215.424 215.424 215.424 215.424-96.64 215.424-215.424-96.64-215.424-215.424-215.424zM512 893.824c-104.704 0-189.824-85.12-189.824-189.824s85.12-189.824 189.824-189.824c104.704 0 189.824 85.12 189.824 189.824s-85.12 189.824-189.824 189.824zM512 552.576c-83.456 0-151.424 67.968-151.424 151.424s67.968 151.424 151.424 151.424c83.456 0 151.424-67.968 151.424-151.424s-67.968-151.424-151.424-151.424zM512 829.824c-69.376 0-125.824-56.448-125.824-125.824s56.448-125.824 125.824-125.824c69.376 0 125.824 56.448 125.824 125.824s-56.448 125.824-125.824 125.824zM512 32c-85.248 0-165.888 19.2-227.072 54.144-66.816 38.144-103.552 90.88-103.552 148.48s36.736 110.336 103.552 148.48c61.184 34.944 141.824 54.144 227.072 54.144s165.888-19.2 227.072-54.144c66.816-38.144 103.552-90.88 103.552-148.48 0-18.944-4.096-37.76-12.288-55.808-7.296-16.128-26.24-23.296-42.368-16s-23.296 26.24-16 42.368c4.352 9.728 6.528 19.584 6.528 29.568 0 45.312-44.672 77.696-71.296 92.928-51.584 29.44-120.96 45.696-195.2 45.696s-143.616-16.256-195.328-45.824c-26.624-15.232-71.296-47.488-71.296-92.928s44.672-77.696 71.296-92.928c51.712-29.44 121.088-45.696 195.328-45.696 41.984 0 82.176 5.12 119.68 15.36 17.024 4.608 34.688-5.504 39.296-22.528s-5.504-34.688-22.528-39.296c-43.008-11.648-88.832-17.536-136.448-17.536zM512 19.2c-87.424 0-170.368 19.84-233.472 55.936-70.912 40.576-110.080 97.28-110.080 159.616s39.040 119.040 110.080 159.616c63.104 36.096 145.92 55.936 233.472 55.936s170.368-19.84 233.472-55.936c70.912-40.576 110.080-97.28 110.080-159.616 0-20.864-4.48-41.344-13.312-61.056-10.112-22.528-36.736-32.64-59.264-22.4-22.528 10.112-32.64 36.736-22.4 59.264 3.584 8.064 5.504 16.256 5.504 24.32 0 38.912-40.704 67.968-64.896 81.792-49.792 28.416-116.864 44.032-188.928 44.032s-139.264-15.616-188.928-44.032c-24.192-13.824-64.896-42.88-64.896-81.792s40.704-67.968 64.896-81.792c49.408-28.672 116.608-44.288 188.672-44.288 40.832 0 80 4.992 116.224 14.848 23.808 6.528 48.512-7.68 54.912-31.488 3.072-11.52 1.536-23.68-4.352-34.048s-15.616-17.792-27.136-20.992c-43.904-11.904-90.88-17.92-139.648-17.92zM512 424.576c-83.072 0-161.408-18.688-220.672-52.48-62.592-35.84-97.152-84.608-97.152-137.344s34.56-101.504 97.152-137.344c59.264-33.92 137.6-52.48 220.672-52.48 46.464 0 91.264 5.76 132.992 17.152 4.992 1.28 9.088 4.48 11.648 8.96s3.2 9.6 1.92 14.592c-2.816 10.24-13.312 16.256-23.552 13.44-38.528-10.624-79.872-15.872-123.008-15.872-76.544 0-148.096 16.896-201.6 47.488-29.056 16.64-77.824 52.224-77.824 104.064s48.768 87.424 77.824 104.064c53.504 30.592 125.184 47.488 201.6 47.488 76.544 0 148.096-16.896 201.6-47.488 29.056-16.64 77.824-52.224 77.824-104.064 0-11.648-2.56-23.424-7.68-34.816-4.352-9.6 0-20.992 9.6-25.344s20.992 0 25.344 9.6c7.424 16.384 11.136 33.408 11.136 50.56 0 52.736-34.56 101.504-97.152 137.344-59.264 33.792-137.6 52.48-220.672 52.48z" />
<glyph unicode="&#xe901;" glyph-name="manager" d="M837.12 70.784h-650.24c-66.816 0-121.216 54.4-121.216 121.216v443.776c0 19.84 16 35.84 35.84 35.84h735.616c66.816 0 121.216-54.4 121.216-121.216v-358.4c0-66.816-54.4-121.216-121.216-121.216zM137.344 599.936v-407.936c0-27.264 22.144-49.536 49.536-49.536h650.24c27.264 0 49.536 22.144 49.536 49.536v358.4c0 27.264-22.144 49.536-49.536 49.536h-699.776zM837.12 59.904h-650.24c-72.832 0-132.096 59.264-132.096 132.096v443.776c0 25.728 20.992 46.72 46.72 46.72h735.616c72.832 0 132.096-59.264 132.096-132.096v-358.4c0-72.832-59.264-132.096-132.096-132.096zM101.504 660.736c-13.824 0-24.96-11.136-24.96-24.96v-443.776c0-60.8 49.536-110.336 110.336-110.336h650.24c60.8 0 110.336 49.536 110.336 110.336v358.4c0 60.8-49.536 110.336-110.336 110.336h-735.616zM837.12 131.584h-650.24c-33.28 0-60.416 27.136-60.416 60.416v418.816h710.656c33.28 0 60.416-27.136 60.416-60.416v-358.4c0-33.28-27.136-60.416-60.416-60.416zM148.224 589.056v-397.056c0-21.376 17.28-38.656 38.656-38.656h650.24c21.376 0 38.656 17.28 38.656 38.656v358.4c0 21.376-17.28 38.656-38.656 38.656h-688.896zM101.504 467.584c-19.84 0-35.84 16-35.84 35.84v226.56c0 0.384 0 0.768 0 1.152 1.28 40.832 35.456 73.216 76.288 72.704h391.808c19.584 0 38.272-7.296 52.736-20.352 2.688-2.432 5.12-5.376 6.912-8.576l70.016-121.216c9.856-17.152 3.968-39.040-13.056-48.896-17.152-9.856-39.040-3.968-48.896 13.056l-65.92 114.176c-0.512 0.128-1.152 0.256-1.664 0.256h-392.192c-0.256 0-0.512 0-0.768 0-1.792 0-3.328-1.28-3.456-3.072v-225.664c-0.128-19.84-16.128-35.968-35.968-35.968zM101.504 456.704c-25.728 0-46.72 20.992-46.72 46.72v228.096c1.408 46.464 40.576 83.712 87.168 83.2h391.68c22.144 0 43.52-8.192 60.032-23.168 3.712-3.328 6.784-7.168 9.088-11.264l70.016-121.216c12.8-22.272 5.12-50.944-17.024-63.744-22.272-12.8-50.944-5.12-63.744 17.024l-62.976 109.056h-380.672v-217.856c-0.128-25.856-21.12-46.848-46.848-46.848zM76.544 731.008v-227.584c0-13.824 11.136-24.96 24.96-24.96 13.696 0 24.96 11.264 25.088 25.216v226.304c0.512 7.424 6.784 13.184 14.336 13.184h392.96c1.28 0 2.688-0.128 4.352-0.64l4.48-1.152 68.224-118.144c6.912-11.904 22.144-15.872 34.048-9.088 11.776 6.784 15.872 22.144 9.088 34.048l-70.016 121.344c-1.152 2.048-2.816 4.096-4.736 5.76-12.544 11.264-28.672 17.536-45.44 17.536h-391.936c-0.256 0-0.512 0-0.768 0-34.688 0.128-63.488-27.52-64.64-61.824z" />
<glyph unicode="&#xe902;" glyph-name="toolbar-view-grid" d="M288 480c-72.576 0-118.4 13.44-148.48 43.52s-43.52 75.904-43.52 148.48 13.44 118.4 43.52 148.48c30.080 30.080 75.904 43.52 148.48 43.52s118.4-13.44 148.48-43.52c30.080-30.080 43.52-75.904 43.52-148.48s-13.44-118.4-43.52-148.48c-30.080-30.080-75.904-43.52-148.48-43.52zM288 800c-54.272 0-86.144-7.68-103.296-24.704-17.024-17.152-24.704-49.024-24.704-103.296s7.68-86.144 24.704-103.296c17.152-17.024 49.024-24.704 103.296-24.704s86.144 7.68 103.296 24.704c17.024 17.152 24.704 49.024 24.704 103.296s-7.68 86.144-24.704 103.296c-17.152 17.024-49.024 24.704-103.296 24.704zM288 32c-72.576 0-118.4 13.44-148.48 43.52s-43.52 75.904-43.52 148.48 13.44 118.4 43.52 148.48c30.080 30.080 75.904 43.52 148.48 43.52s118.4-13.44 148.48-43.52c30.080-30.080 43.52-75.904 43.52-148.48s-13.44-118.4-43.52-148.48c-30.080-30.080-75.904-43.52-148.48-43.52zM288 352c-54.272 0-86.144-7.68-103.296-24.704-17.024-17.152-24.704-49.024-24.704-103.296s7.68-86.144 24.704-103.296c17.152-17.024 49.024-24.704 103.296-24.704s86.144 7.68 103.296 24.704c17.024 17.152 24.704 49.024 24.704 103.296s-7.68 86.144-24.704 103.296c-17.152 17.024-49.024 24.704-103.296 24.704zM736 32c-72.576 0-118.4 13.44-148.48 43.52s-43.52 75.904-43.52 148.48 13.44 118.4 43.52 148.48 75.904 43.52 148.48 43.52 118.4-13.44 148.48-43.52 43.52-75.904 43.52-148.48-13.44-118.4-43.52-148.48-75.904-43.52-148.48-43.52zM736 352c-54.272 0-86.144-7.68-103.296-24.704-17.024-17.152-24.704-49.024-24.704-103.296s7.68-86.144 24.704-103.296c17.152-17.024 49.024-24.704 103.296-24.704s86.144 7.68 103.296 24.704c17.024 17.152 24.704 49.024 24.704 103.296s-7.68 86.144-24.704 103.296c-17.152 17.024-49.024 24.704-103.296 24.704zM736 480c-72.576 0-118.4 13.44-148.48 43.52s-43.52 75.904-43.52 148.48 13.44 118.4 43.52 148.48c30.080 30.080 75.904 43.52 148.48 43.52s118.4-13.44 148.48-43.52c30.080-30.080 43.52-75.904 43.52-148.48s-13.44-118.4-43.52-148.48c-30.080-30.080-75.904-43.52-148.48-43.52zM736 800c-54.272 0-86.144-7.68-103.296-24.704-17.024-17.152-24.704-49.024-24.704-103.296s7.68-86.144 24.704-103.296c17.152-17.024 49.024-24.704 103.296-24.704s86.144 7.68 103.296 24.704c17.024 17.152 24.704 49.024 24.704 103.296s-7.68 86.144-24.704 103.296c-17.152 17.024-49.024 24.704-103.296 24.704z" />
<glyph unicode="&#xe903;" glyph-name="toolbar-view-list" d="M512 501.376c-80.768 0-161.792 1.92-228.352 5.248-103.296 5.248-118.784 11.264-124.672 13.568-20.224 7.808-36.48 29.44-48.128 64.256-9.472 28.672-14.848 63.616-14.848 98.176s5.376 69.504 14.976 98.304c11.648 34.816 27.776 56.32 48.128 64.256 5.888 2.304 21.376 8.32 124.672 13.568 66.432 3.456 147.456 5.248 228.224 5.248s161.792-1.92 228.224-5.248c103.296-5.248 118.784-11.264 124.672-13.568 20.224-7.936 36.352-29.44 48.128-64.256 9.728-28.8 14.976-63.744 14.976-98.304s-5.376-69.504-14.976-98.304c-11.648-34.816-27.776-56.32-48.128-64.256-5.888-2.304-21.376-8.32-124.672-13.568-66.432-3.328-147.456-5.12-228.224-5.12zM183.808 579.456c23.68-5.376 146.432-14.080 328.192-14.080s304.512 8.704 328.192 14.080c7.68 8.832 23.808 47.616 23.808 103.296s-16.256 94.464-23.808 103.296c-23.68 5.376-146.432 14.080-328.192 14.080s-304.512-8.704-328.192-14.080c-7.68-8.832-23.808-47.616-23.808-103.296s16.256-94.592 23.808-103.296zM839.040 578.304c0 0 0 0 0 0v0zM184.96 578.304c0 0 0 0 0 0v0zM184.96 787.072c0 0 0 0 0 0s0 0 0 0zM839.040 787.072c0 0 0 0 0 0s0 0 0 0zM512 32c-80.768 0-161.792 1.792-228.352 5.248-103.296 5.248-118.784 11.264-124.672 13.568-20.224 7.808-36.352 29.44-48.128 64.256-9.472 28.8-14.848 63.744-14.848 98.304s5.376 69.504 14.976 98.304c11.648 34.816 27.776 56.32 48.128 64.256 5.888 2.304 21.376 8.32 124.672 13.568 66.432 3.328 147.456 5.248 228.352 5.248s161.792-1.92 228.224-5.248c103.296-5.248 118.784-11.264 124.672-13.568 20.224-7.808 36.352-29.44 48.128-64.256 9.728-28.8 14.976-63.744 14.976-98.304s-5.376-69.504-14.976-98.304c-11.648-34.816-27.776-56.32-48.128-64.256-5.888-2.304-21.376-8.32-124.672-13.568-66.56-3.456-147.584-5.248-228.352-5.248zM183.808 110.080c23.68-5.376 146.432-14.080 328.192-14.080s304.512 8.704 328.192 14.080c7.68 8.832 23.808 47.616 23.808 103.296s-16.256 94.464-23.808 103.296c-23.68 5.376-146.432 14.080-328.192 14.080s-304.512-8.704-328.192-14.080c-7.68-8.832-23.808-47.616-23.808-103.296s16.256-94.592 23.808-103.296zM839.040 108.928c0 0 0 0 0 0v0zM184.96 108.928c0 0 0 0 0 0s0 0 0 0zM839.040 317.696c0 0 0 0 0 0s0 0 0 0z" />
<glyph unicode="&#xe904;" glyph-name="toolbar-action-upload" d="M512 202.624c-17.664 0-32 14.336-32 32v221.44l-73.344-73.344c-12.544-12.544-32.768-12.544-45.312 0s-12.544 32.768 0 45.312l127.872 127.872c0.256 0.256 0.512 0.512 0.768 0.768 0 0 0 0 0 0s0 0 0 0 0 0 0 0 0 0 0 0c2.816 2.688 6.144 4.736 9.6 6.144 3.712 1.536 7.68 2.304 11.776 2.432 0 0 0 0 0.128 0 0 0 0.128 0 0.128 0s0.128 0 0.128 0c0 0 0.128 0 0.128 0v0c0 0 0 0 0 0v0c0 0 0.128 0 0.128 0s0.128 0 0.128 0c0 0 0.128 0 0.128 0s0 0 0 0c4.224 0 8.192-0.896 11.776-2.432 3.456-1.408 6.656-3.456 9.6-6.144 0 0 0 0 0 0s0 0 0 0 0 0 0 0 0 0 0 0c0.256-0.256 0.512-0.512 0.768-0.768l127.872-127.872c12.544-12.544 12.544-32.768 0-45.312s-32.768-12.544-45.312 0l-72.96 73.344v-221.44c0-17.664-14.336-32-32-32zM682.624 629.376h-341.248c-17.664 0-32 14.336-32 32s14.336 32 32 32h341.376c17.664 0 32-14.336 32-32s-14.464-32-32.128-32zM512-10.624c-103.424 0-178.176 0-238.336 8.064-67.712 9.088-113.408 28.8-148.48 63.744-34.944 34.944-54.656 80.768-63.744 148.48-8.064 60.16-8.064 134.912-8.064 238.336s0 178.176 8.064 238.336c9.088 67.712 28.8 113.408 63.744 148.48s80.768 54.656 148.48 63.744c60.16 8.064 134.912 8.064 238.336 8.064s178.176 0 238.336-8.064c67.712-9.088 113.408-28.8 148.48-63.744 51.328-51.328 64.896-122.88 69.504-214.528 0.896-17.664-12.672-32.64-30.336-33.536s-32.64 12.672-33.536 30.336c-4.608 93.312-18.432 140.16-50.816 172.544-53.248 52.992-149.632 52.992-341.632 52.992s-288.384 0-341.504-53.12-53.12-149.504-53.12-341.504 0-288.384 53.12-341.504c53.12-53.12 149.504-53.12 341.504-53.12s288.384 0 341.504 53.12c53.12 53.12 53.12 149.504 53.12 341.504 0 17.664 14.336 32 32 32s32-14.336 32-32c0-103.424 0-178.176-8.064-238.336-9.088-67.712-28.8-113.408-63.744-148.48-34.944-34.944-80.768-54.656-148.48-63.744-60.16-8.064-134.912-8.064-238.336-8.064z" />
<glyph unicode="&#xe905;" glyph-name="toolbar-action-add" d="M512 288c-17.664 0-32 14.336-32 32v96h-96c-17.664 0-32 14.336-32 32s14.336 32 32 32h96v96c0 17.664 14.336 32 32 32s32-14.336 32-32v-96h96c17.664 0 32-14.336 32-32s-14.336-32-32-32h-96v-96c0-17.664-14.336-32-32-32zM512-10.624c-103.424 0-178.176 0-238.336 8.064-67.712 9.088-113.408 28.8-148.48 63.744-34.944 34.944-54.656 80.768-63.744 148.48-8.064 60.16-8.064 134.912-8.064 238.336s0 178.176 8.064 238.336c9.088 67.712 28.8 113.408 63.744 148.48s80.768 54.656 148.48 63.744c60.16 8.064 134.912 8.064 238.336 8.064s178.176 0 238.336-8.064c67.712-9.088 113.408-28.8 148.48-63.744 51.328-51.328 64.896-122.88 69.504-214.528 0.896-17.664-12.672-32.64-30.336-33.536s-32.64 12.672-33.536 30.336c-4.608 93.312-18.432 140.16-50.816 172.544-53.248 52.992-149.632 52.992-341.632 52.992s-288.384 0-341.504-53.12-53.12-149.504-53.12-341.504 0-288.384 53.12-341.504c53.12-53.12 149.504-53.12 341.504-53.12s288.384 0 341.504 53.12c53.12 53.12 53.12 149.504 53.12 341.504 0 17.664 14.336 32 32 32s32-14.336 32-32c0-103.424 0-178.176-8.064-238.336-9.088-67.712-28.8-113.408-63.744-148.48-34.944-34.944-80.768-54.656-148.48-63.744-60.16-8.064-134.912-8.064-238.336-8.064z" />
<glyph unicode="&#xe906;" glyph-name="explorer-directory" d="M768 501.376h-213.376c-17.664 0-32 14.336-32 32s14.336 32 32 32h213.376c17.664 0 32-14.336 32-32s-14.336-32-32-32zM597.376-10.624h-170.752c-82.944 0-142.976 0-191.488 6.528-55.68 7.424-93.44 23.808-122.496 52.864s-45.312 66.816-52.864 122.496c-6.528 48.64-6.528 108.544-6.528 191.488v128c0 17.664 14.336 32 32 32s32-14.336 32-32v-128c0-151.936 0-228.096 40.576-268.672s116.864-40.576 268.672-40.576h170.624c151.936 0 228.096 0 268.672 40.576 32.512 32.128 39.168 87.040 40.448 183.68 0.256 17.664 14.72 31.744 32.512 31.488 17.664-0.256 31.744-14.848 31.488-32.512-1.664-113.92-11.264-180.352-59.008-228.224-29.056-29.056-66.816-45.312-122.496-52.864-48.512-6.272-108.416-6.272-191.36-6.272zM938.624 424.576c-17.664 0-32 14.336-32 32 0 103.936 0 156.16-24.576 183.552-2.304 2.56-4.736 4.864-7.168 7.168-27.392 24.704-79.616 24.704-183.552 24.704h-16c-52.096 0-78.336 0-105.6 7.808-14.976 4.224-29.44 10.24-43.008 17.792-24.704 13.824-43.264 32.256-80.128 69.12l-23.424 23.424c-11.008 11.008-16.384 16.384-21.376 20.608-21.504 17.92-47.744 28.672-75.52 31.36-6.4 0.64-14.208 0.64-29.696 0.64-35.584 0-53.504 0-66.176-2.432-56.448-10.624-99.84-54.016-110.592-110.592-2.432-12.8-2.432-30.592-2.432-66.176 0-17.664-14.336-32-32-32s-32 14.336-32 32c0 39.552 0 59.52 3.456 78.080 7.552 40.192 26.88 76.8 55.808 105.728s65.536 48.256 105.728 55.808c18.56 3.456 38.528 3.456 78.080 3.456 17.408 0 26.24 0 35.712-0.896 40.704-3.84 78.976-19.584 110.464-45.696 7.296-6.016 13.44-12.288 25.856-24.576l23.424-23.424c32.64-32.64 49.024-49.024 65.92-58.496 9.344-5.12 19.2-9.216 29.44-12.16 18.688-5.248 41.856-5.248 87.936-5.248h16c58.24 0 100.224 0 134.912-4.352 40.704-5.12 68.992-16.384 91.52-36.736 4.224-3.712 8.192-7.808 12.032-12.032 20.224-22.528 31.616-50.688 36.736-91.52 4.352-34.688 4.352-76.672 4.352-134.912-0.128-17.664-14.464-32-32.128-32z" />
<glyph unicode="&#xe907;" glyph-name="explorer-directory-check" d="M597.376-10.624h-170.752c-82.944 0-142.976 0-191.488 6.528-55.68 7.424-93.44 23.808-122.496 52.864s-45.312 66.816-52.864 122.496c-6.528 48.64-6.528 108.544-6.528 191.488v128c0 17.664 14.336 32 32 32s32-14.336 32-32v-128c0-151.936 0-228.096 40.576-268.672s116.864-40.576 268.672-40.576h170.624c151.936 0 228.096 0 268.672 40.576 32.512 32.128 39.168 87.040 40.448 183.68 0.256 17.664 14.72 31.744 32.512 31.488 17.664-0.256 31.744-14.848 31.488-32.512-1.664-113.92-11.264-180.352-59.008-228.224-29.056-29.056-66.816-45.312-122.496-52.864-48.512-6.272-108.416-6.272-191.36-6.272zM938.624 424.576c-17.664 0-32 14.336-32 32 0 103.936 0 156.16-24.576 183.552-2.304 2.56-4.736 4.864-7.168 7.168-27.392 24.704-79.616 24.704-183.552 24.704h-16c-52.096 0-78.336 0-105.6 7.808-14.976 4.224-29.44 10.24-43.008 17.792-24.704 13.824-43.264 32.256-80.128 69.12l-23.424 23.424c-11.008 11.008-16.384 16.384-21.376 20.608-21.504 17.92-47.744 28.672-75.52 31.36-6.4 0.64-14.208 0.64-29.696 0.64-35.584 0-53.504 0-66.176-2.432-56.448-10.624-99.84-54.016-110.592-110.592-2.432-12.8-2.432-30.592-2.432-66.176 0-17.664-14.336-32-32-32s-32 14.336-32 32c0 39.552 0 59.52 3.456 78.080 7.552 40.192 26.88 76.8 55.808 105.728s65.536 48.256 105.728 55.808c18.56 3.456 38.528 3.456 78.080 3.456 17.408 0 26.24 0 35.712-0.896 40.704-3.84 78.976-19.584 110.464-45.696 7.296-6.016 13.44-12.288 25.856-24.576l23.424-23.424c32.64-32.64 49.024-49.024 65.92-58.496 9.344-5.12 19.2-9.216 29.44-12.16 18.688-5.248 41.856-5.248 87.936-5.248h16c58.24 0 100.224 0 134.912-4.352 40.704-5.12 68.992-16.384 91.52-36.736 4.224-3.712 8.192-7.808 12.032-12.032 20.224-22.528 31.616-50.688 36.736-91.52 4.352-34.688 4.352-76.672 4.352-134.912-0.128-17.664-14.464-32-32.128-32zM483.584 288c-9.088 0-17.792 3.968-23.936 10.752l-56.832 64c-11.776 13.184-10.496 33.408 2.688 45.184s33.408 10.496 45.184-2.688l33.024-37.12 89.856 101.12c11.776 13.184 32 14.336 45.184 2.688 13.184-11.776 14.336-32 2.688-45.184l-113.792-128c-6.272-6.784-14.976-10.752-24.064-10.752z" />
<glyph unicode="&#xe908;" glyph-name="explorer-directory-cloud" d="M585.088 245.376h-170.624c-57.984 0-105.088 44.8-105.088 99.712 0 47.232 34.816 86.912 81.28 97.152 0 0.256 0 0.512 0 0.768 0 67.456 58.112 122.368 129.536 122.368 58.88 0 109.184-37.12 124.672-88.96 42.496-20.736 69.888-62.464 69.888-108.672-0.128-67.584-58.24-122.368-129.664-122.368zM414.464 380.8c-22.656 0-41.088-16-41.088-35.712s18.432-35.712 41.088-35.712h170.624c36.096 0 65.536 26.24 65.536 58.368 0 24.32-17.152 46.336-42.88 54.784-0.384 0.128-0.768 0.256-1.024 0.384-6.912 2.176-14.208 3.2-21.632 3.2-7.808 0-15.36-1.152-22.528-3.584-16.768-5.504-34.816 3.712-40.32 20.48s3.712 34.816 20.48 40.32c6.272 2.048 12.672 3.584 19.2 4.736-11.392 8.32-25.856 13.312-41.728 13.312-36.096 0-65.536-26.112-65.536-58.368 0-1.92 0.128-3.84 0.256-5.76 5.888-2.304 11.648-5.248 17.024-8.576 14.976-9.344 19.584-29.056 10.368-44.032-9.344-14.976-29.056-19.584-44.032-10.368-4.48 2.816-9.472 4.736-14.848 5.76-0.256 0-0.512 0.128-0.768 0.128-2.816 0.512-5.504 0.64-8.192 0.64zM597.376-10.624h-170.752c-82.944 0-142.976 0-191.488 6.528-55.68 7.424-93.44 23.808-122.496 52.864s-45.312 66.816-52.864 122.496c-6.528 48.64-6.528 108.544-6.528 191.488v128c0 17.664 14.336 32 32 32s32-14.336 32-32v-128c0-151.936 0-228.096 40.576-268.672s116.864-40.576 268.672-40.576h170.624c151.936 0 228.096 0 268.672 40.576 32.512 32.128 39.168 87.040 40.448 183.68 0.256 17.664 14.72 31.744 32.512 31.488 17.664-0.256 31.744-14.848 31.488-32.512-1.664-113.92-11.264-180.352-59.008-228.224-29.056-29.056-66.816-45.312-122.496-52.864-48.512-6.272-108.416-6.272-191.36-6.272zM938.624 424.576c-17.664 0-32 14.336-32 32 0 103.936 0 156.16-24.576 183.552-2.304 2.56-4.736 4.864-7.168 7.168-27.392 24.704-79.616 24.704-183.552 24.704h-16c-52.096 0-78.336 0-105.6 7.808-14.976 4.224-29.44 10.24-43.008 17.792-24.704 13.824-43.264 32.256-80.128 69.12l-23.424 23.424c-11.008 11.008-16.384 16.384-21.376 20.608-21.504 17.92-47.744 28.672-75.52 31.36-6.4 0.64-14.208 0.64-29.696 0.64-35.584 0-53.504 0-66.176-2.432-56.448-10.624-99.84-54.016-110.592-110.592-2.432-12.8-2.432-30.592-2.432-66.176 0-17.664-14.336-32-32-32s-32 14.336-32 32c0 39.552 0 59.52 3.456 78.080 7.552 40.192 26.88 76.8 55.808 105.728s65.536 48.256 105.728 55.808c18.56 3.456 38.528 3.456 78.080 3.456 17.408 0 26.24 0 35.712-0.896 40.704-3.84 78.976-19.584 110.464-45.696 7.296-6.016 13.44-12.288 25.856-24.576l23.424-23.424c32.64-32.64 49.024-49.024 65.92-58.496 9.344-5.12 19.2-9.216 29.44-12.16 18.688-5.248 41.856-5.248 87.936-5.248h16c58.24 0 100.224 0 134.912-4.352 40.704-5.12 68.992-16.384 91.52-36.736 4.224-3.712 8.192-7.808 12.032-12.032 20.224-22.528 31.616-50.688 36.736-91.52 4.352-34.688 4.352-76.672 4.352-134.912-0.128-17.664-14.464-32-32.128-32z" />
<glyph unicode="&#xe909;" glyph-name="explorer-directory-favorite" d="M761.088 442.88c-11.776 0-22.656 5.504-32.128 10.112l-46.336 23.168-46.336-23.040c-14.464-7.296-32.512-16.256-51.84-4.352-19.2 11.904-19.2 32.128-19.2 48.256v206.976h64v-182.912l31.36 15.744c5.632 2.816 12.416 6.144 21.888 6.144s16.384-3.456 21.888-6.144l31.488-15.744v182.912h64v-207.104c0-16.256 0-36.352-19.2-48.256-6.656-4.096-13.184-5.76-19.584-5.76zM597.376-10.624h-170.752c-82.944 0-142.976 0-191.488 6.528-55.68 7.424-93.44 23.808-122.496 52.864s-45.312 66.816-52.864 122.496c-6.528 48.64-6.528 108.544-6.528 191.488v128c0 17.664 14.336 32 32 32s32-14.336 32-32v-128c0-151.936 0-228.096 40.576-268.672s116.864-40.576 268.672-40.576h170.624c151.936 0 228.096 0 268.672 40.576 32.512 32.128 39.168 87.040 40.448 183.68 0.256 17.664 14.72 31.744 32.512 31.488 17.664-0.256 31.744-14.848 31.488-32.512-1.664-113.92-11.264-180.352-59.008-228.224-29.056-29.056-66.816-45.312-122.496-52.864-48.512-6.272-108.416-6.272-191.36-6.272zM938.624 424.576c-17.664 0-32 14.336-32 32 0 103.936 0 156.16-24.576 183.552-2.304 2.56-4.736 4.864-7.168 7.168-27.392 24.704-79.616 24.704-183.552 24.704h-16c-52.096 0-78.336 0-105.6 7.808-14.976 4.224-29.44 10.24-43.008 17.792-24.704 13.824-43.264 32.256-80.128 69.12l-23.424 23.424c-11.008 11.008-16.384 16.384-21.376 20.608-21.504 17.92-47.744 28.672-75.52 31.36-6.4 0.64-14.208 0.64-29.696 0.64-35.584 0-53.504 0-66.176-2.432-56.448-10.624-99.84-54.016-110.592-110.592-2.432-12.8-2.432-30.592-2.432-66.176 0-17.664-14.336-32-32-32s-32 14.336-32 32c0 39.552 0 59.52 3.456 78.080 7.552 40.192 26.88 76.8 55.808 105.728s65.536 48.256 105.728 55.808c18.56 3.456 38.528 3.456 78.080 3.456 17.408 0 26.24 0 35.712-0.896 40.704-3.84 78.976-19.584 110.464-45.696 7.296-6.016 13.44-12.288 25.856-24.576l23.424-23.424c32.64-32.64 49.024-49.024 65.92-58.496 9.344-5.12 19.2-9.216 29.44-12.16 18.688-5.248 41.856-5.248 87.936-5.248h16c58.24 0 100.224 0 134.912-4.352 40.704-5.12 68.992-16.384 91.52-36.736 4.224-3.712 8.192-7.808 12.032-12.032 20.224-22.528 31.616-50.688 36.736-91.52 4.352-34.688 4.352-76.672 4.352-134.912-0.128-17.664-14.464-32-32.128-32z" />
<glyph unicode="&#xe90a;" glyph-name="explorer-directory-open" d="M853.376 437.376c-17.664 0-32 14.336-32 32v91.776c0 80.768-0.64 114.176-17.408 131.584-1.664 1.664-3.328 3.328-5.12 4.864-20.224 17.152-64 17.152-143.36 17.152h-12.8c-40.832 0-63.232 0-85.632 6.016-12.288 3.328-24.32 7.936-35.456 13.824-20.608 10.752-36.48 25.728-65.536 52.864l-18.816 17.664c-8.576 8.064-12.928 12.16-16.64 14.976-16.384 12.672-36.224 20.48-57.6 22.272-4.992 0.384-11.136 0.384-23.296 0.384-28.16 0-42.368 0-52.096-1.792-41.856-7.424-75.264-38.272-83.072-76.8-0.896-4.224-1.28-9.728-1.536-18.304-0.256-7.552-0.256-17.28-0.256-29.568 0-17.664-14.336-32-32-32s-32 14.336-32 32c0 12.672 0 22.784 0.256 31.232 0.384 12.416 1.152 21.12 2.816 29.184 6.4 32 22.784 60.928 47.104 83.84 24.064 22.528 54.272 37.504 87.552 43.392 15.36 2.688 31.36 2.688 63.36 2.688 13.696 0 21.248 0 28.928-0.64 33.536-2.944 65.152-15.232 91.264-35.456 6.144-4.736 11.392-9.728 21.12-18.816l18.816-17.664c25.728-24.064 38.528-36.096 51.328-42.88 7.040-3.712 14.592-6.656 22.4-8.704 14.336-3.84 32.64-3.84 69.12-3.84h12.8c94.464 0 146.432 0 184.576-32.128 3.584-2.944 6.912-6.144 10.112-9.472 35.2-36.608 35.2-86.144 35.2-175.872v-91.776c-0.128-17.664-14.464-32-32.128-32zM170.624 437.376c-17.664 0-32 14.336-32 32v106.624c0 17.664 14.336 32 32 32s32-14.336 32-32v-106.624c0-17.664-14.336-32-32-32zM597.376 202.624h-170.752c-17.664 0-32 14.336-32 32s14.336 32 32 32h170.624c17.664 0 32-14.336 32-32s-14.208-32-31.872-32zM652.544-10.624h-281.088c-85.632 0-132.736 0-171.648 26.368-10.112 6.784-19.328 14.848-27.648 23.808-31.744 34.56-39.552 79.488-55.296 168.96-21.76 123.52-32.64 185.472-1.92 237.312 7.936 13.312 17.536 25.344 28.8 35.712 22.016 20.352 50.176 31.616 91.264 36.736 34.816 4.352 77.44 4.352 136.32 4.352h55.296c17.664 0 32-14.336 32-32s-14.336-32-32-32h-55.296c-105.344 0-158.208 0-184.192-24.064-6.656-6.272-12.544-13.44-17.28-21.376-18.688-31.488-9.088-85.632 9.856-193.664 13.568-77.184 20.352-115.968 39.424-136.704 4.864-5.376 10.368-10.112 16.384-14.080 22.784-15.36 60.544-15.36 135.808-15.36h281.088c75.264 0 113.024 0 135.808 15.36 5.888 3.968 11.392 8.704 16.384 14.080 19.072 20.736 25.856 59.52 39.424 136.704 18.944 108.032 28.544 162.176 9.856 193.664-4.736 7.936-10.496 15.232-17.28 21.376-25.984 24.064-78.848 24.064-184.192 24.064h-55.296c-17.664 0-32 14.336-32 32s14.336 32 32 32h55.296c59.008 0 101.504 0 136.32-4.352 41.216-5.12 69.248-16.384 91.264-36.736 11.264-10.368 20.992-22.4 28.8-35.712 30.72-51.84 19.84-113.792-1.92-237.312-15.744-89.472-23.552-134.4-55.296-168.96-8.32-8.96-17.536-17.024-27.648-23.808-38.656-26.368-85.76-26.368-171.392-26.368z" />
<glyph unicode="&#xe90b;" glyph-name="explorer-directory-remove" d="M576 288c-8.192 0-16.384 3.072-22.656 9.344l-41.344 41.344-41.344-41.344c-12.544-12.544-32.768-12.544-45.312 0s-12.544 32.768 0 45.312l41.344 41.344-41.344 41.344c-12.544 12.544-12.544 32.768 0 45.312s32.768 12.544 45.312 0l41.344-41.344 41.344 41.344c12.544 12.544 32.768 12.544 45.312 0s12.544-32.768 0-45.312l-41.344-41.344 41.344-41.344c12.544-12.544 12.544-32.768 0-45.312-6.272-6.272-14.464-9.344-22.656-9.344zM597.376-10.624h-170.752c-82.944 0-142.976 0-191.488 6.528-55.68 7.424-93.44 23.808-122.496 52.864s-45.312 66.816-52.864 122.496c-6.528 48.64-6.528 108.544-6.528 191.488v128c0 17.664 14.336 32 32 32s32-14.336 32-32v-128c0-151.936 0-228.096 40.576-268.672s116.864-40.576 268.672-40.576h170.624c151.936 0 228.096 0 268.672 40.576 32.512 32.128 39.168 87.040 40.448 183.68 0.256 17.664 14.72 31.744 32.512 31.488 17.664-0.256 31.744-14.848 31.488-32.512-1.664-113.92-11.264-180.352-59.008-228.224-29.056-29.056-66.816-45.312-122.496-52.864-48.512-6.272-108.416-6.272-191.36-6.272zM938.624 424.576c-17.664 0-32 14.336-32 32 0 103.936 0 156.16-24.576 183.552-2.304 2.56-4.736 4.864-7.168 7.168-27.392 24.704-79.616 24.704-183.552 24.704h-16c-52.096 0-78.336 0-105.6 7.808-14.976 4.224-29.44 10.24-43.008 17.792-24.704 13.824-43.264 32.256-80.128 69.12l-23.424 23.424c-11.008 11.008-16.384 16.384-21.376 20.608-21.504 17.92-47.744 28.672-75.52 31.36-6.4 0.64-14.208 0.64-29.696 0.64-35.584 0-53.504 0-66.176-2.432-56.448-10.624-99.84-54.016-110.592-110.592-2.432-12.8-2.432-30.592-2.432-66.176 0-17.664-14.336-32-32-32s-32 14.336-32 32c0 39.552 0 59.52 3.456 78.080 7.552 40.192 26.88 76.8 55.808 105.728s65.536 48.256 105.728 55.808c18.56 3.456 38.528 3.456 78.080 3.456 17.408 0 26.24 0 35.712-0.896 40.704-3.84 78.976-19.584 110.464-45.696 7.296-6.016 13.44-12.288 25.856-24.576l23.424-23.424c32.64-32.64 49.024-49.024 65.92-58.496 9.344-5.12 19.2-9.216 29.44-12.16 18.688-5.248 41.856-5.248 87.936-5.248h16c58.24 0 100.224 0 134.912-4.352 40.704-5.12 68.992-16.384 91.52-36.736 4.224-3.712 8.192-7.808 12.032-12.032 20.224-22.528 31.616-50.688 36.736-91.52 4.352-34.688 4.352-76.672 4.352-134.912-0.128-17.664-14.464-32-32.128-32z" />
<glyph unicode="&#xe90c;" glyph-name="explorer-directory-security" d="M512 288c-64.64 0-117.376 52.608-117.376 117.376s52.608 117.376 117.376 117.376 117.376-52.608 117.376-117.376-52.736-117.376-117.376-117.376zM512 458.624c-29.44 0-53.376-23.936-53.376-53.376s23.936-53.248 53.376-53.248c29.44 0 53.376 23.936 53.376 53.376s-23.936 53.248-53.376 53.248zM480 213.376c0-17.664 14.336-32 32-32s32 14.336 32 32h-64zM480 320v-106.624h64v106.624h-64zM597.376-10.624h-170.752c-82.944 0-142.976 0-191.488 6.528-55.68 7.424-93.44 23.808-122.496 52.864s-45.312 66.816-52.864 122.496c-6.528 48.64-6.528 108.544-6.528 191.488v128c0 17.664 14.336 32 32 32s32-14.336 32-32v-128c0-151.936 0-228.096 40.576-268.672s116.864-40.576 268.672-40.576h170.624c151.936 0 228.096 0 268.672 40.576 32.512 32.128 39.168 87.040 40.448 183.68 0.256 17.664 14.72 31.744 32.512 31.488 17.664-0.256 31.744-14.848 31.488-32.512-1.664-113.92-11.264-180.352-59.008-228.224-29.056-29.056-66.816-45.312-122.496-52.864-48.512-6.272-108.416-6.272-191.36-6.272zM938.624 424.576c-17.664 0-32 14.336-32 32 0 103.936 0 156.16-24.576 183.552-2.304 2.56-4.736 4.864-7.168 7.168-27.392 24.704-79.616 24.704-183.552 24.704h-16c-52.096 0-78.336 0-105.6 7.808-14.976 4.224-29.44 10.24-43.008 17.792-24.704 13.824-43.264 32.256-80.128 69.12l-23.424 23.424c-11.008 11.008-16.384 16.384-21.376 20.608-21.504 17.92-47.744 28.672-75.52 31.36-6.4 0.64-14.208 0.64-29.696 0.64-35.584 0-53.504 0-66.176-2.432-56.448-10.624-99.84-54.016-110.592-110.592-2.432-12.8-2.432-30.592-2.432-66.176 0-17.664-14.336-32-32-32s-32 14.336-32 32c0 39.552 0 59.52 3.456 78.080 7.552 40.192 26.88 76.8 55.808 105.728s65.536 48.256 105.728 55.808c18.56 3.456 38.528 3.456 78.080 3.456 17.408 0 26.24 0 35.712-0.896 40.704-3.84 78.976-19.584 110.464-45.696 7.296-6.016 13.44-12.288 25.856-24.576l23.424-23.424c32.64-32.64 49.024-49.024 65.92-58.496 9.344-5.12 19.2-9.216 29.44-12.16 18.688-5.248 41.856-5.248 87.936-5.248h16c58.24 0 100.224 0 134.912-4.352 40.704-5.12 68.992-16.384 91.52-36.736 4.224-3.712 8.192-7.808 12.032-12.032 20.224-22.528 31.616-50.688 36.736-91.52 4.352-34.688 4.352-76.672 4.352-134.912-0.128-17.664-14.464-32-32.128-32z" />
<glyph unicode="&#xe90d;" glyph-name="explorer-directory-star" d="M442.88 245.376c-10.88 0-20.608 3.2-28.928 9.6-18.688 14.208-19.712 35.968-19.968 43.136-0.512 11.52 0.768 24.832 2.56 43.136l0.896 8.704c0.128 1.92 0.384 4.096 0.512 5.76-1.024 1.28-2.304 2.688-3.456 4.096l-5.504 6.528c-11.776 13.824-20.352 23.68-26.496 33.536-3.712 6.016-15.232 24.192-8.192 46.464 4.736 15.232 16.128 26.496 33.92 33.536 10.624 4.224 23.168 7.040 40.576 11.008l8.192 1.792c1.408 0.256 2.816 0.64 4.224 1.024 0.768 1.28 1.664 2.816 2.432 4.224l4.224 7.552c8.832 16 15.36 27.52 22.272 36.608 11.904 15.616 26.112 23.424 42.112 23.424s30.208-7.936 42.112-23.424c7.040-9.088 13.44-20.608 22.272-36.608l4.224-7.552c0.768-1.408 1.664-2.944 2.432-4.352 1.408-0.256 2.816-0.64 4.224-1.024l8.192-1.792c17.408-3.968 29.952-6.784 40.576-11.008 17.792-7.040 29.184-18.304 33.92-33.408 6.912-22.4-4.48-40.576-8.192-46.464-6.144-9.728-14.592-19.712-26.368-33.536l-5.632-6.528c-1.152-1.408-2.432-2.816-3.456-4.096 0.128-1.664 0.384-3.84 0.512-5.76l0.896-8.704c1.792-18.304 3.072-31.616 2.56-43.136-0.256-7.168-1.28-28.928-19.968-43.136-12.928-9.856-29.056-12.032-47.744-6.656-11.008 3.2-22.656 8.576-38.912 16l-7.68 3.456c-1.152 0.512-2.432 1.152-3.584 1.664-1.152-0.512-2.432-1.152-3.584-1.664l-7.68-3.584c-16.256-7.424-28.032-12.928-38.912-16-7.296-1.92-13.568-2.816-19.584-2.816zM512 334.592c11.392 0 19.84-3.84 30.336-8.704l7.68-3.584c5.12-2.304 10.624-4.864 15.488-7.040-0.512 6.144-1.152 13.056-1.792 19.584l-0.896 8.704c-1.152 11.52-2.048 20.736 1.28 31.232 3.328 10.752 9.216 17.664 16.768 26.368l5.504 6.528c4.608 5.376 9.472 11.008 13.44 16-5.76 1.408-12.416 2.944-18.688 4.352l-8.192 1.792c-10.88 2.432-20.224 4.608-29.312 11.52-8.96 6.784-13.44 14.848-19.072 25.088l-4.224 7.552c-2.816 4.992-5.76 10.24-8.448 15.104-2.688-4.736-5.632-9.984-8.448-15.104l-4.224-7.552c-5.632-10.24-10.112-18.304-19.072-25.088-9.088-6.912-18.432-9.088-29.312-11.52l-8.192-1.792c-6.272-1.408-13.056-2.944-18.816-4.352 3.968-4.992 8.96-10.624 13.44-16l5.504-6.528c7.552-8.704 13.44-15.744 16.768-26.368s2.432-19.712 1.28-31.232l-0.896-8.704c-0.64-6.528-1.28-13.568-1.792-19.584 4.992 2.176 10.368 4.608 15.488 7.040l7.68 3.456c10.88 4.992 19.328 8.832 30.72 8.832zM597.376-10.624h-170.752c-82.944 0-142.976 0-191.488 6.528-55.68 7.424-93.44 23.808-122.496 52.864s-45.312 66.816-52.864 122.496c-6.528 48.64-6.528 108.544-6.528 191.488v128c0 17.664 14.336 32 32 32s32-14.336 32-32v-128c0-151.936 0-228.096 40.576-268.672s116.864-40.576 268.672-40.576h170.624c151.936 0 228.096 0 268.672 40.576 32.512 32.128 39.168 87.040 40.448 183.68 0.256 17.664 14.72 31.744 32.512 31.488 17.664-0.256 31.744-14.848 31.488-32.512-1.664-113.92-11.264-180.352-59.008-228.224-29.056-29.056-66.816-45.312-122.496-52.864-48.512-6.272-108.416-6.272-191.36-6.272zM938.624 424.576c-17.664 0-32 14.336-32 32 0 103.936 0 156.16-24.576 183.552-2.304 2.56-4.736 4.864-7.168 7.168-27.392 24.704-79.616 24.704-183.552 24.704h-16c-52.096 0-78.336 0-105.6 7.808-14.976 4.224-29.44 10.24-43.008 17.792-24.704 13.824-43.264 32.256-80.128 69.12l-23.424 23.424c-11.008 11.008-16.384 16.384-21.376 20.608-21.504 17.92-47.744 28.672-75.52 31.36-6.4 0.64-14.208 0.64-29.696 0.64-35.584 0-53.504 0-66.176-2.432-56.448-10.624-99.84-54.016-110.592-110.592-2.432-12.8-2.432-30.592-2.432-66.176 0-17.664-14.336-32-32-32s-32 14.336-32 32c0 39.552 0 59.52 3.456 78.080 7.552 40.192 26.88 76.8 55.808 105.728s65.536 48.256 105.728 55.808c18.56 3.456 38.528 3.456 78.080 3.456 17.408 0 26.24 0 35.712-0.896 40.704-3.84 78.976-19.584 110.464-45.696 7.296-6.016 13.44-12.288 25.856-24.576l23.424-23.424c32.64-32.64 49.024-49.024 65.92-58.496 9.344-5.12 19.2-9.216 29.44-12.16 18.688-5.248 41.856-5.248 87.936-5.248h16c58.24 0 100.224 0 134.912-4.352 40.704-5.12 68.992-16.384 91.52-36.736 4.224-3.712 8.192-7.808 12.032-12.032 20.224-22.528 31.616-50.688 36.736-91.52 4.352-34.688 4.352-76.672 4.352-134.912-0.128-17.664-14.464-32-32.128-32z" />
<glyph unicode="&#xe90e;" glyph-name="explorer-directory-with-files" d="M768 501.376h-213.376c-17.664 0-32 14.336-32 32s14.336 32 32 32h213.376c17.664 0 32-14.336 32-32s-14.336-32-32-32zM885.376 682.624h-64c0 17.792 0 27.648-0.768 33.792-5.632 43.008-39.68 77.056-82.688 82.688-6.272 0.768-16 0.768-33.92 0.768h-277.376v64.128h277.376c21.248 0 31.872 0 42.24-1.408 71.68-9.472 128.256-66.048 137.728-137.728 1.408-10.368 1.408-20.992 1.408-42.24zM597.376-10.624h-170.752c-82.944 0-142.976 0-191.488 6.528-55.68 7.424-93.44 23.808-122.496 52.864s-45.312 66.816-52.864 122.496c-6.528 48.64-6.528 108.544-6.528 191.488v128c0 17.664 14.336 32 32 32s32-14.336 32-32v-128c0-151.936 0-228.096 40.576-268.672s116.864-40.576 268.672-40.576h170.624c151.936 0 228.096 0 268.672 40.576 32.512 32.128 39.168 87.040 40.448 183.68 0.256 17.664 14.72 31.744 32.512 31.488 17.664-0.256 31.744-14.848 31.488-32.512-1.664-113.92-11.264-180.352-59.008-228.224-29.056-29.056-66.816-45.312-122.496-52.864-48.512-6.272-108.416-6.272-191.36-6.272zM938.624 424.576c-17.664 0-32 14.336-32 32 0 103.936 0 156.16-24.576 183.552-2.304 2.56-4.736 4.864-7.168 7.168-27.392 24.704-79.616 24.704-183.552 24.704h-16c-52.096 0-78.336 0-105.6 7.808-14.976 4.224-29.44 10.24-43.008 17.792-24.704 13.824-43.264 32.256-80.128 69.12l-23.424 23.424c-11.008 11.008-16.384 16.384-21.376 20.608-21.504 17.92-47.744 28.672-75.52 31.36-6.4 0.64-14.208 0.64-29.696 0.64-35.584 0-53.504 0-66.176-2.432-56.448-10.624-99.84-54.016-110.592-110.592-2.432-12.8-2.432-30.592-2.432-66.176 0-17.664-14.336-32-32-32s-32 14.336-32 32c0 39.552 0 59.52 3.456 78.080 7.552 40.192 26.88 76.8 55.808 105.728s65.536 48.256 105.728 55.808c18.56 3.456 38.528 3.456 78.080 3.456 17.408 0 26.24 0 35.712-0.896 40.704-3.84 78.976-19.584 110.464-45.696 7.296-6.016 13.44-12.288 25.856-24.576l23.424-23.424c32.64-32.64 49.024-49.024 65.92-58.496 9.344-5.12 19.2-9.216 29.44-12.16 18.688-5.248 41.856-5.248 87.936-5.248h16c58.24 0 100.224 0 134.912-4.352 40.704-5.12 68.992-16.384 91.52-36.736 4.224-3.712 8.192-7.808 12.032-12.032 20.224-22.528 31.616-50.688 36.736-91.52 4.352-34.688 4.352-76.672 4.352-134.912-0.128-17.664-14.464-32-32.128-32z" />
<glyph unicode="&#xe90f;" glyph-name="arrow-bottom" d="M243.503 545.677c-16.663-16.662-16.663-43.678 0-60.34l208.733-208.529c33.331-33.297 87.339-33.284 120.653 0.026l208.653 208.657c16.666 16.661 16.666 43.678 0 60.34-16.661 16.663-43.678 16.663-60.339 0l-178.586-178.586c-16.661-16.666-43.678-16.661-60.339 0l-178.435 178.432c-16.662 16.663-43.677 16.663-60.34 0z" />
<glyph unicode="&#xe910;" glyph-name="arrow-left" d="M609.677 716.498c-16.661 16.663-43.674 16.663-60.339 0l-208.53-208.735c-33.297-33.331-33.283-87.339 0.029-120.649l208.654-208.657c16.666-16.661 43.678-16.661 60.343 0 16.661 16.661 16.661 43.678 0 60.339l-178.59 178.59c-16.662 16.661-16.662 43.674 0 60.339l178.432 178.432c16.666 16.662 16.666 43.677 0 60.34z" />
<glyph unicode="&#xe911;" glyph-name="arrow-right" d="M414.323 179.503c16.662-16.661 43.678-16.661 60.34 0l208.529 208.738c33.297 33.327 33.284 87.334-0.026 120.649l-208.657 208.655c-16.661 16.662-43.678 16.662-60.34 0s-16.663-43.677 0-60.34l178.586-178.587c16.666-16.661 16.666-43.678 0-60.339l-178.432-178.436c-16.663-16.661-16.663-43.674 0-60.339z" />
<glyph unicode="&#xe912;" glyph-name="arrow-top" d="M780.497 307.657c16.661 16.661 16.661 43.678 0 60.339l-208.734 208.531c-33.331 33.297-87.339 33.284-120.653-0.029l-208.654-208.655c-16.662-16.661-16.662-43.678 0-60.339 16.663-16.666 43.677-16.666 60.34 0l178.586 178.586c16.666 16.661 43.678 16.661 60.339 0l178.436-178.432c16.661-16.661 43.678-16.661 60.339 0z" />
<glyph unicode="&#xe913;" glyph-name="explorer-file-archive" d="M554.624-10.624h-85.376c-82.944 0-142.976 0-191.488 6.528-55.68 7.424-93.44 23.808-122.496 52.864-32 32-48.384 73.856-54.912 140.16-1.792 17.536 11.136 33.28 28.672 34.944 17.536 1.792 33.28-11.136 34.944-28.672 4.992-50.944 15.616-80.256 36.48-101.12 40.576-40.576 116.864-40.576 268.672-40.576h85.376c151.936 0 228.096 0 268.672 40.576 40.832 40.448 40.832 116.736 40.832 268.544v170.752c0 17.664 14.336 32 32 32s32-14.336 32-32v-170.624c0-82.944 0-142.976-6.528-191.488-7.424-55.68-23.808-93.44-52.864-122.496s-66.816-45.312-122.496-52.864c-48.512-6.528-108.416-6.528-191.488-6.528zM128 330.624c-17.664 0-32 14.336-32 32v170.752c0 82.944 0 142.976 6.528 191.488 7.424 55.68 23.808 93.44 52.864 122.496s66.816 45.312 122.496 52.864c48.64 6.528 108.544 6.528 191.488 6.528h85.376c82.944 0 142.976 0 191.488-6.528 55.68-7.424 93.44-23.808 122.496-52.864 32-32 48.384-73.856 54.912-140.16 1.792-17.536-11.136-33.28-28.672-34.944s-33.28 11.136-34.944 28.672c-4.992 50.944-15.616 80.384-36.48 101.12-40.832 40.576-116.992 40.576-268.928 40.576h-85.376c-151.936 0-228.096 0-268.672-40.576s-40.576-116.864-40.576-268.672v-170.624c0-17.792-14.336-32.128-32-32.128zM512 160c-76.416 0-138.624 62.208-138.624 138.624v5.376c0 38.272 31.104 69.376 69.376 69.376h138.624c38.272 0 69.376-31.104 69.376-69.376v-5.376c-0.128-76.416-62.336-138.624-138.752-138.624zM442.624 309.376c-2.944 0-5.376-2.432-5.376-5.376v-5.376c0-41.216 33.536-74.624 74.624-74.624s74.624 33.536 74.624 74.624v5.376c0 2.944-2.432 5.376-5.376 5.376h-138.496zM469.376 736h-21.376c-24.32 0-43.392 0-59.008 15.616s-15.616 34.816-15.616 59.008v21.376c0 24.32 0 43.392 15.616 59.008s34.688 15.616 59.008 15.616h21.376c24.32 0 43.392 0 59.008-15.616s15.616-34.688 15.616-59.008v-21.376c0-24.32 0-43.392-15.616-59.008s-34.816-15.616-59.008-15.616zM437.376 800c3.328 0 7.040 0 10.624 0h21.376c3.584 0 7.296 0 10.624 0 0 3.328 0 7.040 0 10.624v21.376c0 3.584 0 7.296 0 10.624-3.328 0-7.040 0-10.624 0h-21.376c-3.584 0-7.296 0-10.624 0 0-3.328 0-7.040 0-10.624v-21.376c0-3.456 0-7.296 0-10.624zM469.376 522.624h-21.376c-24.32 0-43.392 0-59.008 15.616s-15.616 34.816-15.616 59.008v21.376c0 24.32 0 43.392 15.616 59.008s34.816 15.616 59.008 15.616h21.376c24.32 0 43.392 0 59.008-15.616s15.616-34.816 15.616-59.008v-21.376c0-24.32 0-43.392-15.616-59.008s-34.816-15.616-59.008-15.616zM437.376 586.752c3.328 0 7.040 0 10.624 0h21.376c3.584 0 7.296 0 10.624 0 0 3.328 0 7.040 0 10.624v21.376c0 3.584 0 7.296 0 10.624-3.328 0-7.040 0-10.624 0h-21.376c-3.584 0-7.296 0-10.624 0 0-3.328 0-7.040 0-10.624v-21.376c0-3.584 0-7.296 0-10.624zM576 629.376h-21.376c-24.32 0-43.392 0-59.008 15.616s-15.616 34.688-15.616 59.008v21.376c0 24.32 0 43.392 15.616 59.008s34.816 15.616 59.008 15.616h21.376c24.32 0 43.392 0 59.008-15.616s15.616-34.816 15.616-59.008v-21.376c0-24.32 0-43.392-15.616-59.008s-34.688-15.616-59.008-15.616zM544 693.376c3.328 0 7.040 0 10.624 0h21.376c3.584 0 7.296 0 10.624 0 0 3.328 0 7.040 0 10.624v21.376c0 3.584 0 7.296 0 10.624-3.328 0-7.040 0-10.624 0h-21.376c-3.584 0-7.296 0-10.624 0 0-3.328 0-7.040 0-10.624v-21.376c0-3.584 0-7.296 0-10.624zM576 416h-21.376c-24.32 0-43.392 0-59.008 15.616s-15.616 34.816-15.616 59.008v21.376c0 24.32 0 43.392 15.616 59.008s34.816 15.616 59.008 15.616h21.376c24.32 0 43.392 0 59.008-15.616s15.616-34.816 15.616-59.008v-21.376c0-24.32 0-43.392-15.616-59.008s-34.688-15.616-59.008-15.616zM544 480c3.328 0 7.040 0 10.624 0h21.376c3.584 0 7.296 0 10.624 0 0 3.328 0 7.040 0 10.624v21.376c0 3.584 0 7.296 0 10.624-3.328 0-7.040 0-10.624 0h-21.376c-3.584 0-7.296 0-10.624 0 0-3.328 0-7.040 0-10.624v-21.376c0-3.456 0-7.296 0-10.624z" />
<glyph unicode="&#xe914;" glyph-name="explorer-file-image" d="M778.624 320c0-17.664 14.336-32 32-32s32 14.336 32 32h-64zM469.376 842.624h85.376v64h-85.376v-64zM554.624 53.376h-85.376v-64h85.376v64zM245.376 277.376v341.248h-64v-341.376h64zM469.376 53.376c-61.184 0-103.936 0.128-136.192 4.352-31.36 4.224-47.872 11.904-59.648 23.68l-45.312-45.312c25.728-25.728 57.984-36.736 96.384-41.856 37.504-4.992 85.248-4.992 144.768-4.992v64.128zM181.376 277.376c0-59.392-0.128-107.264 4.992-144.768 5.12-38.4 16.256-70.784 41.856-96.384l45.312 45.312c-11.776 11.776-19.456 28.416-23.68 59.648-4.352 32.256-4.352 74.88-4.352 136.192h-64.128zM554.624-10.624c59.392 0 107.264-0.128 144.768 4.992 38.4 5.12 70.784 16.256 96.384 41.856l-45.312 45.312c-11.776-11.776-28.416-19.456-59.648-23.68-32.256-4.352-74.88-4.352-136.192-4.352v-64.128zM554.624 842.624c61.184 0 103.936-0.128 136.192-4.352 31.36-4.224 47.872-11.904 59.648-23.68l45.312 45.312c-25.728 25.728-57.984 36.736-96.384 41.856-37.504 4.992-85.248 4.992-144.768 4.992v-64.128zM842.624 618.624c0 59.392 0.128 107.264-4.992 144.768-5.12 38.4-16.256 70.784-41.856 96.384l-45.312-45.312c11.776-11.776 19.456-28.416 23.68-59.648 4.352-32.256 4.352-74.88 4.352-136.192h64.128zM469.376 906.624c-59.392 0-107.264 0.128-144.768-4.992-38.4-5.12-70.784-16.256-96.384-41.856l45.312-45.312c11.776 11.776 28.416 19.456 59.648 23.68 32.256 4.352 74.88 4.352 136.192 4.352v64.128zM245.376 618.624c0 61.184 0.128 103.936 4.352 136.192 4.224 31.36 11.904 47.872 23.68 59.648l-45.312 45.312c-25.728-25.728-36.736-57.984-41.856-96.384-4.992-37.504-4.992-85.248-4.992-144.768h64.128zM775.296 150.016c-3.968-37.12-11.904-55.68-24.832-68.608l45.312-45.312c28.032 28.032 38.656 64 43.136 107.136l-63.616 6.784zM778.624 618.624v-298.624h64v298.624h-64zM810.624 96v64c17.536 0 27.264 0 33.024 0.896 32 5.12 56.96 30.080 62.080 62.080 0.896 5.76 0.896 15.488 0.896 33.024v384c0 17.536 0 27.264-0.896 33.024-5.12 32-30.080 56.96-62.080 62.080-5.76 0.896-15.488 0.896-33.024 0.896v64c21.504 0 32.256 0 43.008-1.664 59.52-9.472 105.856-55.808 115.328-115.328 1.664-10.752 1.664-21.504 1.664-43.008v-384c0-21.504 0-32.256-1.664-43.008-9.472-59.52-55.808-105.856-115.328-115.2-10.752-1.792-21.504-1.792-43.008-1.792zM213.376 96c-21.504 0-32.256 0-43.008 1.664-59.52 9.472-105.856 55.808-115.328 115.328-1.664 10.752-1.664 21.504-1.664 43.008v384c0 21.504 0 32.256 1.664 43.008 9.472 59.52 55.808 105.856 115.328 115.328 10.752 1.664 21.504 1.664 43.008 1.664v-64c-17.536 0-27.264 0-33.024-0.896-32-5.12-56.96-30.080-62.080-62.080-0.896-5.76-0.896-15.488-0.896-33.024v-384c0-17.536 0-27.264 0.896-33.024 5.12-32 30.080-56.96 62.080-62.080 5.76-0.896 15.488-0.896 33.024-0.896v-64zM618.624 586.624c-52.992 0-96 43.008-96 96s43.008 96 96 96 96-43.008 96-96-43.008-96-96-96zM618.624 714.624c-17.664 0-32-14.336-32-32s14.336-32 32-32 32 14.336 32 32-14.336 32-32 32zM810.624 96c-7.296 0-14.592 2.432-20.608 7.552l-102.656 86.784-1.28 1.28c-21.12 22.272-50.816 24.576-73.728 5.632l-9.344-7.68c-38.528-31.744-92.416-26.496-125.312 12.16l-134.912 157.952c-7.168 8.448-16.384 13.312-25.856 13.568-9.344 0.256-18.176-3.584-25.728-11.264l-55.040-56.448c-12.288-12.672-32.64-12.928-45.312-0.64s-12.928 32.64-0.64 45.312l55.040 56.448c20.096 20.608 46.208 31.488 73.6 30.592 27.648-0.896 53.376-13.696 72.32-35.968l134.912-158.080c10.24-12.032 24.448-13.696 35.968-4.224l9.344 7.68c48.512 39.936 115.328 35.84 159.616-9.6l100.096-84.608c13.44-11.392 15.232-31.616 3.84-45.056-6.144-7.552-15.232-11.392-24.32-11.392z" />
<glyph unicode="&#xe915;" glyph-name="explorer-file-text" d="M480 234.624c0-17.664 14.336-32 32-32s32 14.336 32 32h-64zM650.624 544c0-17.664 14.336-32 32-32s32 14.336 32 32h-64zM309.376 544c0-17.664 14.336-32 32-32s32 14.336 32 32h-64zM670.208 647.424v0zM405.376 266.624c-17.664 0-32-14.336-32-32s14.336-32 32-32v64zM640 202.624c17.664 0 32 14.336 32 32s-14.336 32-32 32v-64zM426.624 629.376h85.376v64h-85.376v-64zM512 629.376h85.376v64h-85.376v-64zM544 234.624v426.752h-64v-426.624h64zM650.624 566.528v-22.528h64v22.528h-64zM309.376 566.528v-22.528h64v22.528h-64zM597.376 629.376c21.12 0 33.408-0.128 42.112-1.408 3.968-0.64 5.76-1.28 6.4-1.536 0.384-0.256 0.384-0.256 0.512-0.384l47.616 42.752c-13.056 14.464-29.312 19.968-45.056 22.4-14.464 2.176-32.384 2.048-51.584 2.048v-63.872zM714.624 566.528c0 21.504 0 40.576-1.792 55.808-1.92 15.872-6.4 32.512-18.944 46.464l-47.488-42.752c0.128-0.128 0.512-0.512 1.024-1.92 0.64-1.664 1.408-4.48 1.92-9.472 1.28-10.496 1.28-24.96 1.28-48.128h64zM426.624 693.376c-19.072 0-36.992 0.128-51.584-2.048-15.872-2.304-32.128-7.936-45.056-22.4l47.616-42.752c0.128 0.128 0.128 0.128 0.512 0.384 0.768 0.384 2.56 1.024 6.4 1.536 8.704 1.28 20.992 1.408 42.112 1.408v63.872zM373.376 566.528c0 23.168 0 37.632 1.28 48.128 0.64 4.992 1.408 7.808 1.92 9.472 0.512 1.408 0.896 1.792 1.024 1.92l-47.616 42.752c-12.544-13.952-17.024-30.592-18.944-46.464-1.792-15.232-1.792-34.304-1.792-55.808h64.128zM405.376 202.624h234.624v64h-234.624v-64zM512-10.624c-103.424 0-178.176 0-238.336 8.064-67.712 9.088-113.408 28.8-148.48 63.744-34.944 34.944-54.656 80.768-63.744 148.48-8.064 60.16-8.064 134.912-8.064 238.336s0 178.176 8.064 238.336c9.088 67.712 28.8 113.408 63.744 148.48s80.768 54.656 148.48 63.744c60.16 8.064 134.912 8.064 238.336 8.064s178.176 0 238.336-8.064c67.712-9.088 113.408-28.8 148.48-63.744 51.328-51.328 64.896-122.88 69.504-214.528 0.896-17.664-12.672-32.64-30.336-33.536s-32.64 12.672-33.536 30.336c-4.608 93.312-18.432 140.16-50.816 172.544-53.248 52.992-149.632 52.992-341.632 52.992s-288.384 0-341.504-53.12-53.12-149.504-53.12-341.504 0-288.384 53.12-341.504c53.12-53.12 149.504-53.12 341.504-53.12s288.384 0 341.504 53.12c53.12 53.12 53.12 149.504 53.12 341.504 0 17.664 14.336 32 32 32s32-14.336 32-32c0-103.424 0-178.176-8.064-238.336-9.088-67.712-28.8-113.408-63.744-148.48-34.944-34.944-80.768-54.656-148.48-63.744-60.16-8.064-134.912-8.064-238.336-8.064z" />
<glyph unicode="&#xe916;" glyph-name="explorer-file-unknown" d="M117.376 533.376c0 17.664-14.336 32-32 32s-32-14.336-32-32h64zM906.624 362.624c0-17.664 14.336-32 32-32s32 14.336 32 32h-64zM656.768 787.072v0zM825.728 635.008v0zM923.904 526.72v0zM135.296 71.296v0zM888.704 71.296v0zM57.856 707.072c-1.792-17.536 11.136-33.28 28.672-34.944 17.536-1.792 33.28 11.136 34.944 28.672l-63.616 6.272zM966.144 188.928c1.792 17.536-11.136 33.28-28.672 34.944s-33.28-11.136-34.944-28.672l63.616-6.272zM597.376 53.376h-170.752v-64h170.624v64zM117.376 362.624v170.752h-64v-170.624h64zM906.624 381.312v-18.688h64v18.688h-64zM635.392 763.264l168.96-152.064 42.752 47.616-168.96 152.064-42.752-47.616zM970.624 381.312c0 72.064 0.64 117.632-17.536 158.464l-58.368-25.984c11.392-25.472 12.032-54.784 12.032-132.48h63.872zM804.224 611.2c57.728-51.968 79.104-72.064 90.368-97.536l58.496 25.984c-18.176 40.832-52.48 70.784-106.112 119.040l-42.752-47.488zM427.904 842.624c67.456 0 92.928-0.512 115.712-9.216l22.912 59.776c-36.352 13.952-75.904 13.44-138.624 13.44v-64zM678.144 810.88c-46.336 41.6-75.264 68.352-111.616 82.304l-22.912-59.776c22.656-8.704 41.856-25.344 91.776-70.144l42.752 47.616zM426.624 53.376c-81.408 0-139.136 0.128-183.040 6.016-42.88 5.76-67.712 16.64-85.76 34.688l-45.184-45.44c31.872-31.872 72.448-46.080 122.496-52.864 49.152-6.656 112-6.528 191.488-6.528v64.128zM53.376 362.624c0-79.488-0.128-142.464 6.528-191.488 6.656-50.048 20.864-90.496 52.736-122.496l45.312 45.312c-18.048 18.048-28.928 42.752-34.688 85.76-5.888 43.904-6.016 101.632-6.016 183.040h-63.872zM597.376-10.624c79.488 0 142.464-0.128 191.488 6.528 50.048 6.656 90.496 20.864 122.496 52.736l-45.312 45.312c-18.048-18.048-42.752-28.928-85.76-34.688-43.904-5.888-101.632-6.016-183.040-6.016v-63.872zM427.904 906.624c-80 0-143.104 0.128-192.512-6.528-50.176-6.656-90.752-20.864-122.752-52.736l45.312-45.312c18.048 18.048 42.88 28.928 86.016 34.688 44.032 5.888 102.144 6.016 183.936 6.016v63.872zM121.472 700.928c5.12 52.608 16.384 81.024 36.48 101.248l-45.312 45.184c-35.584-35.584-49.152-81.92-54.912-140.16l63.744-6.272zM902.528 195.072c-5.12-52.608-16.384-81.024-36.48-101.12l45.312-45.312c35.584 35.584 49.152 81.92 54.912 140.16l-63.744 6.272zM938.624 501.376h-170.624c-105.856 0-164.096 0-204.672 40.576s-40.576 98.944-40.576 204.672v106.752h64v-106.624c0-97.92 0.896-138.496 21.888-159.488s61.568-21.888 159.488-21.888h170.624v-64z" />
<glyph unicode="&#xe917;" glyph-name="explorer-file-document" d="M554.624-10.624h-85.376c-62.592 0-107.776 0-144.768 4.992-43.52 5.888-73.344 18.816-96.384 41.856-23.168 23.168-36.096 52.864-41.856 96.384-4.992 36.992-4.992 82.176-4.992 144.768v341.248c0 62.592 0 107.776 4.992 144.768 5.888 43.52 18.816 73.344 41.856 96.384 23.168 23.168 52.864 36.096 96.384 41.856 36.992 4.992 82.176 4.992 144.768 4.992h85.376c62.592 0 107.776 0 144.768-4.992 43.52-5.888 73.344-18.816 96.384-41.856 23.168-23.168 36.096-52.864 41.856-96.384 4.992-36.992 4.992-82.176 4.992-144.768v-341.376c0-62.592 0-107.776-4.992-144.768-5.888-43.52-18.816-73.344-41.856-96.384s-52.864-36.096-96.384-41.856c-36.992-4.864-82.176-4.864-144.768-4.864zM469.376 842.624c-111.744 0-167.808 0-195.84-28.16s-28.16-84.224-28.16-195.84v-341.376c0-111.744 0-167.808 28.16-195.84s84.224-28.16 195.84-28.16h85.376c111.744 0 167.808 0 195.84 28.16s28.16 84.224 28.16 195.84v341.376c0 111.744 0 167.808-28.16 195.84s-84.224 28.16-195.84 28.16h-85.376zM210.176 78.080c-51.712 5.12-84.608 18.048-109.952 43.52-23.168 23.168-36.096 52.864-41.856 96.384-4.992 36.992-4.992 82.176-4.992 144.768v170.624c0 62.592 0 107.776 4.992 144.768 5.888 43.52 18.816 73.344 41.856 96.384 25.344 25.344 58.24 38.4 109.952 43.52l6.272-63.744c-36.224-3.584-56.832-10.752-71.040-24.96-28.16-28.16-28.16-84.224-28.16-195.84v-170.624c0-111.744 0-167.808 28.16-195.84 14.208-14.208 34.816-21.504 71.040-24.96l-6.272-64zM813.824 78.080l-6.272 63.744c36.224 3.584 56.832 10.752 71.040 24.96 28.16 28.16 28.16 84.224 28.16 195.84v170.752c0 111.744 0 167.808-28.16 195.84-14.208 14.208-34.816 21.504-71.040 24.96l6.272 63.744c51.712-5.12 84.608-18.048 109.952-43.52 23.168-23.168 36.096-52.864 41.856-96.384 4.992-36.992 4.992-82.176 4.992-144.768v-170.624c0-62.592 0-107.776-4.992-144.768-5.888-43.52-18.816-73.344-41.856-96.384-25.344-25.344-58.24-38.272-109.952-43.392zM640 373.376h-256c-17.664 0-32 14.336-32 32s14.336 32 32 32h256c17.664 0 32-14.336 32-32s-14.336-32-32-32zM640 544h-256c-17.664 0-32 14.336-32 32s14.336 32 32 32h256c17.664 0 32-14.336 32-32s-14.336-32-32-32zM512 202.624h-128c-17.664 0-32 14.336-32 32s14.336 32 32 32h128c17.664 0 32-14.336 32-32s-14.336-32-32-32z" />
<glyph unicode="&#xe918;" glyph-name="explorer-file-video" d="M725.376 10.624c-17.664 0-32 14.336-32 32v810.752c0 17.664 14.336 32 32 32s32-14.336 32-32v-810.624c0-17.792-14.336-32.128-32-32.128zM298.624 10.624c-17.664 0-32 14.336-32 32v810.752c0 17.664 14.336 32 32 32s32-14.336 32-32v-810.624c0-17.792-14.336-32.128-32-32.128zM938.624 416h-213.248c-17.664 0-32 14.336-32 32s14.336 32 32 32h213.376c17.664 0 32-14.336 32-32-0.128-17.664-14.464-32-32.128-32zM298.624 416h-213.248c-17.664 0-32 14.336-32 32s14.336 32 32 32h213.376c17.664 0 32-14.336 32-32-0.128-17.664-14.464-32-32.128-32zM917.376 629.376h-192c-17.664 0-32 14.336-32 32s14.336 32 32 32h192c17.664 0 32-14.336 32-32s-14.336-32-32-32zM298.624 629.376h-192c-17.664 0-32 14.336-32 32s14.336 32 32 32h192c17.664 0 32-14.336 32-32s-14.336-32-32-32zM917.376 202.624c17.664 0 32 14.336 32 32s-14.336 32-32 32v-64zM725.376 266.624c-17.664 0-32-14.336-32-32s14.336-32 32-32v64zM298.624 202.624c17.664 0 32 14.336 32 32s-14.336 32-32 32v-64zM725.376 202.624h192v64h-192v-64zM85.376 202.624h213.376v64h-213.376v-64zM456.064 309.376c-10.88 0-20.992 3.072-30.080 8.96-21.504 14.208-26.88 38.4-29.056 55.424-2.432 18.688-2.432 41.984-2.432 74.24s0 55.552 2.432 74.24c2.176 17.024 7.552 41.216 29.056 55.424 26.624 17.664 54.144 4.864 63.232 0.64 15.872-7.296 33.536-19.2 58.112-35.712 24.192-16.256 41.6-27.904 54.656-40.064 11.648-10.752 27.264-28.16 27.264-54.656s-15.616-43.904-27.264-54.656c-13.056-12.032-30.592-23.808-54.656-40.064-24.448-16.512-42.24-28.416-58.112-35.712-10.624-4.992-20.224-7.68-29.312-8.192-1.28 0.128-2.56 0.128-3.84 0.128zM461.696 520.704c-0.64-3.072-1.408-7.936-1.92-15.104-1.024-14.336-1.024-33.408-1.024-57.728 0-24.192 0-43.392 1.024-57.728 0.512-7.168 1.28-11.904 1.92-15.104 11.136 4.992 31.616 18.816 50.048 31.232 18.304 12.288 32.768 22.016 42.496 30.080 8.704 7.168 10.624 10.624 11.008 11.392-0.384 0.768-2.432 4.224-11.008 11.392-9.856 8.064-24.32 17.792-42.624 30.080-18.304 12.672-38.784 26.496-49.92 31.488zM512-10.624c-103.424 0-178.176 0-238.336 8.064-67.712 9.088-113.408 28.8-148.48 63.744-38.528 38.528-58.368 89.472-66.304 170.368-1.792 17.536 11.136 33.28 28.672 34.944 17.536 1.792 33.28-11.136 34.944-28.672 6.528-65.792 20.352-103.808 47.872-131.328 53.12-53.12 149.504-53.12 341.504-53.12s288.384 0 341.504 53.12c53.12 53.12 53.12 149.504 53.12 341.504 0 17.664 14.336 32 32 32s32-14.336 32-32c0-103.424 0-178.176-8.064-238.336-9.088-67.712-28.8-113.408-63.744-148.48-34.944-34.944-80.768-54.656-148.48-63.744-60.032-8.064-134.784-8.064-238.208-8.064zM85.376 416c-17.664 0-32 14.336-32 32 0 103.424 0 178.176 8.064 238.336 9.088 67.712 28.8 113.408 63.744 148.48s80.768 54.656 148.48 63.744c60.16 8.064 134.912 8.064 238.336 8.064s178.176 0 238.336-8.064c67.712-9.088 113.408-28.8 148.48-63.744 38.528-38.528 58.368-89.472 66.304-170.368 1.792-17.536-11.136-33.28-28.672-34.944-17.664-1.664-33.28 11.136-34.944 28.672-6.528 65.792-20.352 103.808-47.872 131.328-53.248 53.12-149.632 53.12-341.632 53.12s-288.384 0-341.504-53.12-53.12-149.504-53.12-341.504c0-17.664-14.336-32-32-32z" />
<glyph unicode="&#xe919;" glyph-name="toolbar-button-sort" d="M405.376 245.376c0 0 0 0 0 0s-0.128 0-0.128 0c-1.024 0-2.048 0-3.072 0.128 0 0 0 0 0 0s0 0-0.128 0c0 0-0.128 0-0.128 0s0 0 0 0c-2.304 0.256-4.608 0.768-6.656 1.408v0c0 0-0.128 0-0.128 0s0 0 0 0 0 0-0.128 0c-1.28 0.384-2.432 0.896-3.712 1.536-3.072 1.536-6.016 3.584-8.576 6.144-0.512 0.512-0.896 0.896-1.28 1.408l-106.368 116.992c-11.904 13.056-10.88 33.28 2.176 45.184s33.28 10.88 45.184-2.176l50.944-56.064v258.56c0 17.664 14.336 32 32 32s32-14.336 32-32v-258.56l50.944 56.064c11.904 13.056 32.128 14.080 45.184 2.176s14.080-32.128 2.176-45.184l-106.368-116.992c-0.384-0.512-0.896-0.896-1.28-1.408-2.56-2.56-5.376-4.48-8.448-6.016 0 0 0 0 0 0s-0.128 0-0.128 0c-1.152-0.64-2.432-1.152-3.712-1.536 0 0-0.128 0-0.128 0s0 0 0 0c-2.176-0.768-4.352-1.28-6.656-1.536v0c0 0-0.128 0-0.128 0s0 0 0 0 0 0-0.128 0c-1.152-0.128-2.176-0.128-3.328-0.128 0 0 0 0 0 0zM618.624 245.376c-17.664 0-32 14.336-32 32v258.56l-50.944-56.064c-11.904-13.056-32.128-14.080-45.184-2.176s-14.080 32.128-2.176 45.184l106.368 116.992c0.512 0.64 1.152 1.28 1.792 1.792 2.304 2.176 4.864 3.968 7.552 5.376 1.024 0.512 1.92 0.896 2.944 1.408 0 0 0 0 0.128 0 0 0 0 0 0 0 3.2 1.28 6.656 2.048 10.24 2.176 0 0 0 0 0 0s0.128 0 0.128 0c0 0 0 0 0 0 0.128 0 0.128 0 0.256 0s0.128 0 0.256 0c0 0 0.128 0 0.128 0s0.128 0 0.128 0c0 0 0.128 0 0.128 0s0.128 0 0.128 0 0.256 0 0.384 0c0 0 0.128 0 0.128 0s0.128 0 0.128 0c0 0 0.128 0 0.128 0s0.128 0 0.128 0 0.128 0 0.128 0 0 0 0 0 0.128 0 0.128 0c0 0 0 0 0 0s0.128 0 0.128 0c0 0 0 0 0 0 3.712-0.128 7.168-0.896 10.368-2.176 0 0 0 0 0 0s0 0 0.128 0c0.768-0.256 1.408-0.64 2.176-1.024 0 0 0 0 0 0s0 0 0.128 0c2.944-1.536 5.76-3.456 8.32-5.888 0.128-0.128 0.128-0.128 0.256-0.256 0 0 0 0 0 0s0 0 0 0c0.384-0.384 0.768-0.896 1.152-1.28l106.368-116.992c11.904-13.056 10.88-33.28-2.176-45.184s-33.28-10.88-45.184 2.176l-50.944 56.064v-258.56c0.256-17.792-14.080-32.128-31.744-32.128zM512-10.624c-103.424 0-178.176 0-238.336 8.064-67.712 9.088-113.408 28.8-148.48 63.744-34.944 34.944-54.656 80.768-63.744 148.48-8.064 60.16-8.064 134.912-8.064 238.336s0 178.176 8.064 238.336c9.088 67.712 28.8 113.408 63.744 148.48s80.768 54.656 148.48 63.744c60.16 8.064 134.912 8.064 238.336 8.064s178.176 0 238.336-8.064c67.712-9.088 113.408-28.8 148.48-63.744 51.328-51.328 64.896-122.88 69.504-214.528 0.896-17.664-12.672-32.64-30.336-33.536s-32.64 12.672-33.536 30.336c-4.608 93.312-18.432 140.16-50.816 172.544-53.248 52.992-149.632 52.992-341.632 52.992s-288.384 0-341.504-53.12-53.12-149.504-53.12-341.504 0-288.384 53.12-341.504c53.12-53.12 149.504-53.12 341.504-53.12s288.384 0 341.504 53.12c53.12 53.12 53.12 149.504 53.12 341.504 0 17.664 14.336 32 32 32s32-14.336 32-32c0-103.424 0-178.176-8.064-238.336-9.088-67.712-28.8-113.408-63.744-148.48-34.944-34.944-80.768-54.656-148.48-63.744-60.16-8.064-134.912-8.064-238.336-8.064z" />
<glyph unicode="&#xe91a;" glyph-name="auth-password" d="M512 160c-64.64 0-117.376 52.608-117.376 117.376s52.608 117.376 117.376 117.376 117.376-52.608 117.376-117.376-52.736-117.376-117.376-117.376zM512 330.624c-29.44 0-53.376-23.936-53.376-53.376s23.936-53.376 53.376-53.376c29.44 0 53.376 23.936 53.376 53.376s-23.936 53.376-53.376 53.376zM682.624-10.624h-42.624c-17.664 0-32 14.336-32 32s14.336 32 32 32h42.624c111.744 0 167.808 0 195.84 28.16 28.16 28.16 28.16 84.224 28.16 195.84s0 167.808-28.16 195.84-84.224 28.16-195.84 28.16h-341.248c-111.744 0-167.808 0-195.84-28.16s-28.16-84.224-28.16-195.84 0-167.808 28.16-195.84c28.16-28.16 84.224-28.16 195.84-28.16h128c17.664 0 32-14.336 32-32s-14.336-32-32-32h-128c-62.592 0-107.776 0-144.768 4.992-43.52 5.888-73.344 18.816-96.384 41.856-23.168 23.168-36.096 52.864-41.856 96.384-4.992 36.992-4.992 82.176-4.992 144.768s0 107.776 4.992 144.768c5.888 43.52 18.816 73.344 41.856 96.384 23.168 23.168 52.864 36.096 96.384 41.856 36.992 4.992 82.176 4.992 144.768 4.992h341.376c62.592 0 107.776 0 144.768-4.992 43.52-5.888 73.344-18.816 96.384-41.856s36.096-52.864 41.856-96.384c4.992-36.992 4.992-82.176 4.992-144.768s0-107.776-4.992-144.768c-5.888-43.52-18.816-73.344-41.856-96.384s-52.864-36.096-96.384-41.856c-37.12-4.992-82.304-4.992-144.896-4.992zM256 501.376c-17.664 0-32 14.336-32 32v85.376c0 16.128 1.28 32.256 3.968 48 2.944 17.408 19.456 29.184 36.864 26.24s29.184-19.456 26.24-36.864c-2.048-12.288-3.072-24.832-3.072-37.376v-85.376c0-17.664-14.336-32-32-32zM759.936 650.624c-14.208 0-27.264 9.6-30.976 24.064-25.472 98.944-114.688 167.936-216.96 167.936-63.616 0-124.544-27.264-166.912-74.624-11.776-13.184-32-14.336-45.184-2.56s-14.336 32-2.56 45.184c54.656 61.056 132.864 96 214.656 96 131.456 0 246.144-88.832 278.912-216.064 4.352-17.152-5.888-34.56-23.040-38.912-2.688-0.64-5.376-1.024-7.936-1.024z" />
<glyph unicode="&#xe91b;" glyph-name="auth-user" d="M512 501.376c-111.744 0-202.624 90.88-202.624 202.624s90.88 202.624 202.624 202.624 202.624-90.88 202.624-202.624-90.88-202.624-202.624-202.624zM512 842.624c-76.416 0-138.624-62.208-138.624-138.624s62.208-138.624 138.624-138.624 138.624 62.208 138.624 138.624-62.208 138.624-138.624 138.624zM512-10.624c-166.656 0-264.96 19.584-318.848 63.36-24.96 20.352-40.704 46.080-48.256 78.592-6.144 26.496-6.144 54.784-6.144 81.92 0 63.36 41.344 121.472 116.224 163.712 69.12 38.912 160.512 60.288 257.024 60.288 96.64 0 187.904-21.376 257.024-60.288 75.008-42.24 116.224-100.352 116.224-163.712 0-7.168 0-14.592-0.128-21.888-0.256-17.536-14.592-31.488-32-31.488-0.128 0-0.384 0-0.512 0-17.664 0.256-31.744 14.848-31.488 32.512 0.128 6.784 0.128 13.568 0.128 20.864 0 39.168-29.696 77.568-83.712 107.904-59.648 33.664-139.776 52.224-225.536 52.224s-165.888-18.56-225.664-52.096c-53.888-30.336-83.712-68.608-83.712-107.904 0-54.784 1.408-87.040 30.848-110.976 40.576-33.024 131.584-49.024 278.4-49.024 89.088 0 156.416 5.76 205.824 17.792 17.152 4.096 34.432-6.4 38.656-23.552 4.096-17.152-6.4-34.432-23.552-38.656-54.4-13.184-126.592-19.584-220.8-19.584z" />
<glyph unicode="&#xe91c;" glyph-name="explorer-file-binary" d="M400 512h-192c-26.496 0-48 21.504-48 48v288c0 26.496 21.504 48 48 48h192c26.496 0 48-21.504 48-48v-288c0-26.496-21.504-48-48-48zM256 608h96v192h-96v-192zM816 512h-192c-26.496 0-48 21.504-48 48s21.504 48 48 48h48v192h-48c-26.496 0-48 21.504-48 48s21.504 48 48 48h96c26.496 0 48-21.504 48-48v-240h48c26.496 0 48-21.504 48-48s-21.504-48-48-48zM816 0h-192c-26.496 0-48 21.504-48 48v288c0 26.496 21.504 48 48 48h192c26.496 0 48-21.504 48-48v-288c0-26.496-21.504-48-48-48zM672 96h96v192h-96v-192zM400 0h-192c-26.496 0-48 21.504-48 48s21.504 48 48 48h48v192h-48c-26.496 0-48 21.504-48 48s21.504 48 48 48h96c26.496 0 48-21.504 48-48v-240h48c26.496 0 48-21.504 48-48s-21.504-48-48-48z" />
<glyph unicode="&#xe91d;" glyph-name="explorer-file-program" d="M632.192 912c-35.2 0-64-28.8-64-64 0.256-2.304 0.512-4.224 1.024-6.272-0.256-0.256-0.768-0.256-1.024-0.256 3.456-13.44-0.768-27.776-11.264-36.736-3.712-2.944-7.936-5.504-12.544-7.040-18.304-5.76-37.76 3.712-44.8 21.248 0 0-0.256 0-0.512-0.256-1.024 2.048-2.304 3.968-3.456 5.76-12.8 17.536-33.536 27.52-55.296 26.24-12.288-0.768-24.064-4.992-34.048-12.288-28.544-20.736-34.944-60.8-14.208-89.216 1.536-1.792 3.2-3.2 4.736-4.736 0-0.256-0.256-0.512-0.512-0.768 10.496-8.704 15.232-22.784 12.032-36.224-1.024-4.48-2.944-8.96-6.016-12.8-11.264-15.488-32.512-19.2-48.512-9.216 0 0 0-0.256-0.256-0.256-2.048 1.024-3.968 1.792-6.016 2.56-5.76 2.048-12.032 2.944-18.048 2.944-28.544 1.024-54.016-17.024-62.72-44.288-11.008-33.536 7.552-69.504 40.96-80.512 2.304-0.512 4.224-0.768 6.528-1.024 0-0.256 0-0.512-0.256-1.024 13.952-0.768 26.24-9.216 31.488-22.272 1.792-4.224 2.688-8.96 2.688-13.696 0-19.2-15.232-34.688-34.304-35.968 0.256-0.256 0.256-0.512 0.256-1.024-2.304-0.256-4.224-0.512-6.528-1.024-33.536-11.008-51.968-46.976-40.96-80.768 11.008-33.536 46.976-51.968 80.768-40.96 2.048 0.768 3.968 1.536 6.016 2.56 0.256-0.256 0.256-0.256 0.256-0.512 5.504 3.456 11.52 5.504 17.792 5.76 7.296 0.512 14.208-1.28 20.48-5.248 3.968-2.56 7.808-5.76 10.496-9.728 11.264-15.488 7.936-36.736-6.528-48.768l0.768-0.768c-1.536-1.536-3.2-2.944-4.736-4.736-20.736-28.544-14.208-68.48 14.208-89.472 28.544-20.736 68.48-14.208 89.216 14.208 1.28 1.792 2.56 3.456 3.456 5.504 0.256 0 0.256 0 0.512-0.256 4.992 13.056 16.768 22.016 30.72 23.040 4.736 0.512 9.472-0.256 13.952-1.792 18.56-5.76 28.8-25.216 23.808-43.52 0.512 0 0.768 0 1.024-0.256-0.512-2.048-0.768-4.224-1.024-6.272 0-35.2 28.8-64 64-64s64 28.8 64 64c0 2.304-0.256 4.224-0.512 6.528h0.256c-4.736 18.56 5.76 37.76 24.064 43.776 4.736 1.536 9.472 2.048 14.208 1.536 13.312-1.024 25.216-9.728 30.208-23.040 0.512 0.256 0.768 0.512 1.024 0.512 1.024-2.048 2.048-3.712 2.944-5.76 20.992-28.544 61.056-34.944 89.472-14.208 28.544 20.992 34.944 61.056 13.952 89.472-1.536 1.792-2.944 3.2-4.736 4.736 0.256 0.256 0.512 0.256 0.768 0.512-14.464 12.288-17.536 33.792-6.272 49.28 7.296 9.984 18.944 15.232 30.464 14.72 6.272-0.256 12.544-2.048 18.048-5.504 0.256 0.256 0.512 0.512 0.768 0.768 1.792-1.024 3.712-2.048 5.76-2.944 33.792-11.008 69.76 7.552 80.768 40.96 11.008 33.792-7.552 69.76-40.96 80.768-2.304 0.512-4.224 0.768-6.528 1.28 0 0.256 0 0.512 0.256 0.768-18.944 1.28-34.304 17.024-34.304 36.224 0 18.944 15.232 34.56 34.304 35.712-0.256 0.256-0.256 0.768-0.256 1.024 2.304 0.256 4.224 0.512 6.528 1.024 33.536 11.008 51.968 46.976 40.96 80.768-8.704 27.008-34.304 45.056-62.72 44.032-6.016 0-12.288-1.024-18.048-2.944-2.048-1.024-3.968-2.048-5.76-2.944-0.256 0.256-0.512 0.512-0.768 1.024-15.744-10.24-37.248-6.528-48.512 9.216-11.264 15.232-8.192 36.736 6.272 49.024-0.256 0-0.512 0.256-0.768 0.512 1.792 1.536 3.2 2.944 4.736 4.736 20.992 28.544 14.464 68.48-13.952 89.472-9.984 7.040-21.76 11.264-34.048 12.032-21.76 1.28-42.496-8.704-55.552-26.24-1.024-2.048-2.048-3.712-2.944-5.76-0.256 0-0.512 0.256-0.768 0.256-7.040-17.536-26.496-27.008-45.056-20.992-18.304 5.76-28.544 25.216-23.808 43.52 0 0 0 0-0.256 0 0.256 2.304 0.512 4.224 0.512 6.528 0.64 34.944-28.16 63.744-63.36 63.744v0zM632.192 688c88.192 0 160-71.808 160-160s-71.808-160-160-160-160 71.808-160 160 71.68 160 160 160zM183.424 304c-87.552 0-160-72.448-160-160s72.448-160 160-160c87.552 0 160 72.448 160 160s-72.576 160-160 160zM183.424 176c18.56 0 32-13.44 32-32s-13.44-32-32-32c-18.56 0-32 13.44-32 32s13.44 32 32 32z" />
<glyph unicode="&#xe91e;" glyph-name="explorer-file-android" d="M512 832c56.704 0 110.208-13.824 157.312-38.4l25.856 25.856c16.64 16.64 43.648 16.64 60.288 0s16.64-43.648 0-60.288l-14.976-14.976c69.248-62.464 112.768-152.96 112.768-253.568v-341.376c0-70.656-57.344-128-128-128h-426.624c-70.656 0-128 57.344-128 128v341.376c0 100.608 43.52 191.104 112.768 253.568l-14.976 14.976c-16.64 16.64-16.64 43.648 0 60.288s43.648 16.64 60.288 0l25.856-25.856c47.232 24.576 100.736 38.4 157.44 38.4zM768 362.624h-512v-213.376c0-23.552 19.072-42.624 42.624-42.624h426.624c23.552 0 42.624 19.072 42.624 42.624v213.376zM512 746.624c-138.112 0-250.752-109.44-255.872-246.4l-0.128-9.6v-42.624h512v42.624c0 141.44-114.56 256-256 256zM384 618.624c23.552 0 42.624-19.072 42.624-42.624s-19.072-42.624-42.624-42.624c-23.552 0-42.624 19.072-42.624 42.624s19.072 42.624 42.624 42.624zM640 618.624c23.552 0 42.624-19.072 42.624-42.624s-19.072-42.624-42.624-42.624-42.624 19.072-42.624 42.624c0 23.552 19.072 42.624 42.624 42.624z" />
<glyph unicode="&#xe91f;" glyph-name="explorer-file-font" d="M896 448c23.552 0 42.624-19.072 42.624-42.624v-256c0-23.552-19.072-42.624-42.624-42.624-17.28 0-32.128 10.24-38.912 25.088-25.984-15.872-56.448-25.088-89.088-25.088-94.208 0-170.624 76.416-170.624 170.624s76.416 170.624 170.624 170.624c32.64 0 63.232-9.216 89.088-25.088 6.784 14.848 21.632 25.088 38.912 25.088zM341.376 789.376c31.232 0 58.88-20.224 68.48-49.92l185.472-577.024c7.168-22.4-5.12-46.464-27.52-53.632s-46.464 5.12-53.632 27.52l-59.136 183.68h-227.328l-59.008-183.68c-7.168-22.4-31.232-34.816-53.632-27.52-22.4 7.168-34.816 31.232-27.52 53.632l185.472 577.024c9.344 29.696 37.12 49.92 68.352 49.92zM768 362.624c-47.104 0-85.376-38.272-85.376-85.376s38.144-85.376 85.376-85.376c47.104 0 85.376 38.144 85.376 85.376s-38.272 85.376-85.376 85.376zM341.376 673.664l-86.272-268.288h172.416l-86.144 268.288z" />
<glyph unicode="&#xe920;" glyph-name="explorer-file-disk" d="M725.376 74.624h-426.752c-42.496 0-83.072 16.896-113.152 46.848-29.952 29.952-46.848 70.656-46.848 113.152v426.752c0 42.496 16.896 83.072 46.848 113.152s70.656 46.848 113.152 46.848h426.624c42.496 0 83.072-16.896 113.152-46.848 29.952-29.952 46.848-70.656 46.848-113.152v-426.624c0-42.496-16.896-83.072-46.848-113.152s-70.656-46.976-113.024-46.976zM298.624 757.376c-25.472 0-49.92-10.112-67.84-28.16s-28.16-42.368-28.16-67.84v-426.624c0-25.472 10.112-49.92 28.16-67.84 18.048-18.048 42.368-28.16 67.84-28.16h426.624c25.472 0 49.92 10.112 67.84 28.16 18.048 18.048 28.16 42.368 28.16 67.84v426.624c0 25.472-10.112 49.92-28.16 67.84-18.048 18.048-42.368 28.16-67.84 28.16h-426.624zM512 202.624c-8.448 0-16.64 3.328-22.656 9.344s-9.344 14.080-9.344 22.656c0 4.224 0.768 8.448 2.176 12.416 1.792 3.84 4.224 7.296 7.296 10.24 2.944 2.944 6.4 5.248 10.24 6.784 3.84 1.664 7.936 2.56 12.16 2.56s8.32-0.896 12.16-2.56c3.968-1.536 7.68-3.84 10.624-6.784s5.248-6.4 6.784-10.24c1.664-3.968 2.56-8.064 2.56-12.416 0-8.448-3.328-16.64-9.344-22.656-6.144-5.888-14.208-9.216-22.656-9.344zM618.624 373.376h-213.248c-36.736 0-72.064 14.592-98.048 40.576s-40.576 61.312-40.576 98.048c0 36.736 14.592 72.064 40.576 98.048s61.312 40.576 98.048 40.576h213.376c36.736 0 72.064-14.592 98.048-40.576s40.576-61.312 40.576-98.048c0-36.736-14.592-72.064-40.576-98.048-26.112-25.984-61.312-40.576-98.176-40.576zM405.376 586.624c-19.84 0-38.784-7.808-52.736-21.888-13.952-13.952-21.888-33.024-21.888-52.736 0-19.84 7.808-38.784 21.888-52.736 13.952-13.952 33.024-21.888 52.736-21.888h213.376c19.84 0 38.784 7.808 52.736 21.888 13.952 13.952 21.888 33.024 21.888 52.736 0 19.84-7.808 38.784-21.888 52.736s-33.024 21.888-52.736 21.888h-213.376z" />
<glyph unicode="&#xe921;" glyph-name="explorer-file-code" d="M682.624 74.624c-8.704 0-17.536 3.584-23.808 10.624-11.776 13.184-10.752 33.408 2.432 45.184l72.448 65.152c61.056 55.040 88.064 80.256 88.064 103.040s-27.008 48.128-88.064 103.040l-72.448 65.152c-13.184 11.776-14.208 32-2.432 45.184s32 14.208 45.184 2.432l72.448-65.152c70.528-63.488 109.312-98.432 109.312-150.656s-38.784-87.168-109.312-150.656l-72.448-65.152c-6.016-5.376-13.696-8.192-21.376-8.192zM341.376 337.92c-7.68 0-15.232 2.688-21.376 8.192l-72.32 65.152c-70.656 63.488-109.44 98.432-109.44 150.656s38.784 87.168 109.312 150.656l72.448 65.152c13.184 11.776 33.408 10.752 45.184-2.432s10.752-33.408-2.432-45.184l-72.32-65.152c-61.056-55.040-88.192-80.256-88.192-103.040s27.008-48.128 88.192-103.040l72.32-65.152c13.184-11.776 14.208-32 2.432-45.184-6.4-7.040-15.104-10.624-23.808-10.624zM427.264 81.92c-2.688 0-5.504 0.384-8.32 1.152-17.024 4.608-27.264 22.144-22.656 39.168l78.080 291.456c4.608 17.024 22.144 27.264 39.168 22.656s27.264-22.144 22.656-39.168l-78.080-291.456c-3.84-14.336-16.768-23.808-30.848-23.808zM554.368 556.416c-2.688 0-5.504 0.384-8.32 1.152-17.024 4.608-27.264 22.144-22.656 39.168l42.368 158.208c4.608 17.024 22.144 27.264 39.168 22.656s27.264-22.144 22.656-39.168l-42.368-158.208c-3.712-14.336-16.64-23.808-30.848-23.808z" />
<glyph unicode="&#xe922;" glyph-name="explorer-file-audio" d="M810.624 96v64c17.536 0 27.264 0 33.024 0.896 32 5.12 56.96 30.080 62.080 62.080 0.896 5.76 0.896 15.488 0.896 33.024v384c0 17.536 0 27.264-0.896 33.024-5.12 32-30.080 56.96-62.080 62.080-5.76 0.896-15.488 0.896-33.024 0.896v64c21.504 0 32.256 0 43.008-1.664 59.52-9.472 105.856-55.808 115.328-115.328 1.664-10.752 1.664-21.504 1.664-43.008v-384c0-21.504 0-32.256-1.664-43.008-9.472-59.52-55.808-105.856-115.328-115.2-10.752-1.792-21.504-1.792-43.008-1.792zM213.376 96c-21.504 0-32.256 0-43.008 1.664-59.52 9.472-105.856 55.808-115.328 115.328-1.664 10.752-1.664 21.504-1.664 43.008v384c0 21.504 0 32.256 1.664 43.008 9.472 59.52 55.808 105.856 115.328 115.328 10.752 1.664 21.504 1.664 43.008 1.664v-64c-17.536 0-27.264 0-33.024-0.896-32-5.12-56.96-30.080-62.080-62.080-0.896-5.76-0.896-15.488-0.896-33.024v-384c0-17.536 0-27.264 0.896-33.024 5.12-32 30.080-56.96 62.080-62.080 5.76-0.896 15.488-0.896 33.024-0.896v-64zM426.624 202.624c-64.64 0-117.376 52.608-117.376 117.376s52.608 117.376 117.376 117.376c19.2 0 37.376-4.608 53.376-12.8v108.8h64v-213.376c0-64.64-52.608-117.376-117.376-117.376zM426.624 373.376c-29.44 0-53.376-23.936-53.376-53.376s23.936-53.376 53.376-53.376c29.44 0 53.376 23.936 53.376 53.376s-23.936 53.376-53.376 53.376zM554.496 442.368c-31.104 0-59.136 19.328-70.016 49.28-4.48 12.288-4.48 24.576-4.48 49.024 0 9.984 0 16.128 1.28 23.040 3.456 18.048 13.44 34.176 28.032 45.312 5.632 4.352 11.008 7.040 19.968 11.52l56.192 28.032c21.888 10.88 32.768 16.384 45.824 17.92 34.56 3.968 66.944-16 78.848-48.768 4.48-12.288 4.48-24.576 4.48-49.024 0-9.984 0-16.128-1.28-23.040-3.456-18.048-13.44-34.176-28.032-45.312-5.632-4.352-11.008-7.040-19.968-11.52l-56.192-28.032c-21.888-10.88-32.768-16.384-45.824-17.92-2.944-0.384-5.888-0.512-8.832-0.512zM555.392 506.368c0 0 0 0 0 0zM544.768 513.152c1.792-4.352 6.144-7.168 10.88-6.656 3.456 0.896 13.952 6.144 24.96 11.648l56.192 28.032c4.352 2.176 8.704 4.352 9.728 5.12 2.048 1.536 3.456 3.84 3.968 6.4 0.128 1.28 0.128 6.144 0.128 11.008 0 12.288 0 24.064-0.768 27.52-1.792 4.352-6.144 7.168-10.88 6.656-3.456-0.896-13.952-6.144-24.96-11.648l-56.064-28.032c-4.352-2.176-8.704-4.352-9.856-5.12-2.048-1.536-3.456-3.84-3.968-6.4-0.128-1.28-0.128-6.144-0.128-11.008 0-12.416 0-24.064 0.768-27.52zM544.768 512.896v0 0zM639.232 603.008c0 0 0 0 0 0s0 0 0 0zM599.808 619.904v0 0zM554.624-10.624h-85.376c-62.592 0-107.776 0-144.768 4.992-43.52 5.888-73.344 18.816-96.384 41.856-23.168 23.168-36.096 52.864-41.856 96.384-4.992 36.992-4.992 82.176-4.992 144.768v341.248c0 62.592 0 107.776 4.992 144.768 5.888 43.52 18.816 73.344 41.856 96.384 23.168 23.168 52.864 36.096 96.384 41.856 36.992 4.992 82.176 4.992 144.768 4.992h85.376c62.592 0 107.776 0 144.768-4.992 43.52-5.888 73.344-18.816 96.384-41.856 23.168-23.168 36.096-52.864 41.856-96.384 4.992-36.992 4.992-82.176 4.992-144.768v-213.376c0-17.664-14.336-32-32-32s-32 14.336-32 32v213.376c0 111.744 0 167.808-28.16 195.84s-84.224 28.16-195.84 28.16h-85.376c-111.744 0-167.808 0-195.84-28.16s-28.16-84.224-28.16-195.84v-341.376c0-111.744 0-167.808 28.16-195.84s84.224-28.16 195.84-28.16h85.376c111.744 0 167.808 0 195.84 28.16 23.552 23.552 27.52 64.512 28.032 153.344 0.128 17.664 14.464 31.872 32 31.872 0 0 0.128 0 0.128 0 17.664-0.128 31.872-14.464 31.872-32.128-0.512-94.848-3.968-155.392-46.848-198.272-23.168-23.168-52.864-36.096-96.384-41.856-36.864-4.992-82.048-4.992-144.64-4.992z" />
<glyph unicode="&#xe923;" glyph-name="explorer-file-ebook" d="M201.6 174.208l-61.824 16.512c14.72 55.040 58.112 98.432 113.152 113.152 20.352 5.504 41.6 5.504 84.096 5.504h512v-64h-512c-35.712 0-55.296 0-67.456-3.328-33.152-8.832-59.136-34.816-67.968-67.84zM682.624 629.376h-341.248c-17.664 0-32 14.336-32 32s14.336 32 32 32h341.376c17.664 0 32-14.336 32-32s-14.464-32-32.128-32zM554.624 480h-213.248c-17.664 0-32 14.336-32 32s14.336 32 32 32h213.376c17.664 0 32-14.336 32-32s-14.464-32-32.128-32zM597.376-10.624c-17.664 0-32 14.336-32 32s14.336 32 32 32c111.744 0 167.808 0 195.84 28.16s28.16 84.224 28.16 195.84v170.624c0 17.664 14.336 32 32 32s32-14.336 32-32v-170.624c0-62.592 0-107.776-4.992-144.768-5.888-43.52-18.816-73.344-41.856-96.384s-52.864-36.096-96.384-41.856c-37.12-4.992-82.304-4.992-144.768-4.992zM426.624-10.624c-62.592 0-107.776 0-144.768 4.992-43.52 5.888-73.344 18.816-96.384 41.856-23.168 23.168-36.096 52.864-41.856 96.384-4.992 36.992-4.992 82.176-4.992 144.768v341.248c0 62.592 0 107.776 4.992 144.768 5.888 43.52 18.816 73.344 41.856 96.384 23.168 23.168 52.864 36.096 96.384 41.856 36.992 4.992 82.176 4.992 144.768 4.992h170.624c62.592 0 107.776 0 144.768-4.992 43.52-5.888 73.344-18.816 96.384-41.856 23.168-23.168 36.096-52.864 41.856-96.384 4.992-36.992 4.992-82.176 4.992-144.768 0-17.664-14.336-32-32-32s-32 14.336-32 32c0 111.744 0 167.808-28.16 195.84-28.16 28.16-84.224 28.16-195.84 28.16h-170.624c-111.744 0-167.808 0-195.84-28.16-28.16-28.16-28.16-84.224-28.16-195.84v-341.376c0-111.744 0-167.808 28.16-195.84 28.16-28.16 84.224-28.16 195.84-28.16 17.664 0 32-14.336 32-32 0-17.536-14.336-31.872-32-31.872z" />
<glyph unicode="&#xe925;" glyph-name="arrow-bottom-fill" d="M764.544 610.944h-505.216c-40.96 0-61.44-49.536-32.384-78.464l221.056-221.056c35.456-35.456 93.056-35.456 128.384 0l221.056 221.056c28.544 29.056 8.064 78.464-32.896 78.464z" />
<glyph unicode="&#xe926;" glyph-name="arrow-left-fill" d="M596.352 733.056l-136.96-136.96-84.096-83.584c-35.456-35.456-35.456-93.056 0-128.384l221.056-221.056c29.056-29.056 78.464-8.064 78.464 32.384v505.216c0.128 40.96-49.408 61.44-78.464 32.384z" />
<glyph unicode="&#xe927;" glyph-name="arrow-right-fill" d="M648.576 512.384l-221.056 220.928c-29.056 28.544-78.464 8.064-78.464-32.896v-505.216c0-40.96 49.536-61.44 78.464-32.384l221.056 221.056c35.328 35.072 35.328 93.056 0 128.512z" />
<glyph unicode="&#xe928;" glyph-name="arrow-top-fill" d="M797.056 363.648l-136.96 136.96-83.584 84.096c-35.456 35.456-93.056 35.456-128.384 0l-221.056-221.056c-29.056-29.056-8.064-78.464 32.384-78.464h505.216c40.96-0.128 61.44 49.408 32.384 78.464z" />
<glyph unicode="&#xe929;" glyph-name="action-copy" d="M640-10.624h-128c-62.592 0-107.776 0-144.768 4.992-43.52 5.888-73.344 18.816-96.384 41.856-23.168 23.168-36.096 52.864-41.856 96.384-4.992 36.992-4.992 82.176-4.992 144.768v213.248c0 62.592 0 107.776 4.992 144.768 5.888 43.52 18.816 73.344 41.856 96.384 23.168 23.168 52.864 36.096 96.384 41.856 36.992 4.992 82.176 4.992 144.768 4.992h128c62.592 0 107.776 0 144.768-4.992 43.52-5.888 73.344-18.816 96.384-41.856 42.88-42.88 46.208-103.552 46.848-198.272 0.128-17.664-14.208-32.128-31.872-32.128 0 0-0.128 0-0.128 0-17.536 0-31.872 14.208-32 31.872-0.512 88.832-4.608 129.792-28.16 153.344-28.16 28.16-84.224 28.16-195.84 28.16h-128c-111.744 0-167.808 0-195.84-28.16-28.16-28.16-28.16-84.224-28.16-195.84v-213.376c0-111.744 0-167.808 28.16-195.84s84.224-28.16 195.84-28.16h128c111.744 0 167.808 0 195.84 28.16 28.16 28.16 28.16 84.224 28.16 195.84v42.624c0 17.664 14.336 32 32 32s32-14.336 32-32v-42.624c0-62.592 0-107.776-4.992-144.768-5.888-43.52-18.816-73.344-41.856-96.384s-52.864-36.096-96.384-41.856c-36.992-4.992-82.176-4.992-144.768-4.992zM256 117.376c-88.192 0-160 71.808-160 160v256c0 17.664 14.336 32 32 32s32-14.336 32-32v-256c0-52.992 43.008-96 96-96 17.664 0 32-14.336 32-32s-14.336-32-32-32zM132.352 672c-1.024 0-2.048 0-3.2 0.128-17.536 1.792-30.464 17.408-28.672 34.944 6.528 66.432 22.912 108.288 54.912 140.288 29.056 29.056 66.816 45.312 122.496 52.864 48.64 6.528 108.544 6.528 191.488 6.528h170.624c88.192 0 160-71.808 160-160 0-17.664-14.336-32-32-32s-32 14.336-32 32c0 52.992-43.008 96-96 96h-170.624c-151.936 0-228.096 0-268.672-40.576-20.864-20.864-31.36-50.176-36.48-101.12-1.664-16.768-15.616-29.056-31.872-29.056z" />
<glyph unicode="&#xe92a;" glyph-name="action-delete" d="M587.904 74.624h-112.512c-100.352 0-150.656 0-197.376 25.216-46.976 25.344-75.392 69.632-126.976 149.888l-29.056 45.184c-44.288 68.992-68.608 107.008-68.608 153.088s24.32 84.096 68.608 152.96l29.056 45.184c51.584 80.384 80 124.544 126.976 149.888 46.72 25.216 97.152 25.216 197.376 25.216h112.512c85.248 0 146.816 0 196.608-6.528 56.832-7.424 95.488-23.68 125.184-52.48 32.896-32 49.664-73.984 56.448-140.416 1.792-17.536-11.008-33.28-28.672-35.072-1.152-0.128-2.176-0.128-3.2-0.128-16.256 0-30.080 12.288-31.744 28.8-5.12 50.816-16 80.128-37.376 100.992-42.112 40.96-120.576 40.96-277.12 40.96h-112.512c-89.472 0-134.528 0-167.040-17.536-32.384-17.408-56.192-54.4-103.424-128.128l-29.056-45.184c-38.912-60.672-58.496-91.008-58.496-118.4s19.584-57.728 58.496-118.4l29.056-45.184c47.36-73.728 71.040-110.72 103.552-128.128 32.512-17.536 77.44-17.536 167.040-17.536h112.512c156.544 0 235.008 0 277.12 40.96 41.728 40.576 41.728 116.736 41.728 268.416 0 17.664 14.336 32 32 32s32-14.336 32-32c0-83.072 0-142.976-6.784-191.616-7.68-55.68-24.448-93.568-54.272-122.624-29.696-28.928-68.224-45.056-125.184-52.48-50.048-6.912-111.616-6.912-196.864-6.912zM661.376 309.376c-8.192 0-16.384 3.072-22.656 9.344l-84.096 84.096-83.968-84.096c-12.544-12.544-32.768-12.544-45.312 0s-12.544 32.768 0 45.312l84.096 83.968-84.096 84.096c-12.544 12.544-12.544 32.768 0 45.312s32.768 12.544 45.312 0l84.096-84.096 83.968 83.968c12.544 12.544 32.768 12.544 45.312 0s12.544-32.768 0-45.312l-84.096-83.968 84.096-84.096c12.544-12.544 12.544-32.768 0-45.312-6.272-6.144-14.464-9.216-22.656-9.216z" />
<glyph unicode="&#xe92b;" glyph-name="action-paste" d="M640-10.624h-256c-62.592 0-107.776 0-144.768 4.992-43.52 5.888-73.344 18.816-96.384 41.856-23.168 23.168-36.096 52.864-41.856 96.384-4.992 36.992-4.992 82.176-4.992 144.768v128c0 17.664 14.336 32 32 32s32-14.336 32-32v-128c0-111.744 0-167.808 28.16-195.84 28.16-28.16 84.224-28.16 195.84-28.16h256c111.744 0 167.808 0 195.84 28.16 28.16 28.16 28.16 84.224 28.16 195.84 0 17.664 14.336 32 32 32s32-14.336 32-32c0-62.592 0-107.776-4.992-144.768-5.888-43.52-18.816-73.344-41.856-96.384-23.168-23.168-52.864-36.096-96.384-41.856-36.992-4.992-82.176-4.992-144.768-4.992zM896 416c-17.664 0-32 14.336-32 32v85.376c0 111.744 0 167.808-28.16 195.84-23.552 23.552-64.512 27.52-153.344 28.032-17.664 0.128-31.872 14.464-31.872 32.128 0.128 17.664 14.464 31.872 32 31.872 0 0 0.128 0 0.128 0 94.848-0.512 155.392-3.968 198.272-46.848 23.168-23.168 36.096-52.864 41.856-96.384 4.992-36.992 4.992-82.176 4.992-144.768v-85.248c0.128-17.664-14.208-32-31.872-32zM128.128 544c0 0-0.128 0-0.128 0-17.664 0.128-31.872 14.464-31.872 32.128 0.512 94.848 3.968 155.392 46.848 198.272s103.552 46.208 198.272 46.848c0 0 0.128 0 0.128 0 17.536 0 31.872-14.208 32-31.872s-14.208-32.128-31.872-32.128c-88.832-0.512-129.792-4.48-153.344-28.032s-27.52-64.512-28.032-153.344c-0.128-17.664-14.464-31.872-32-31.872zM618.624 672h-213.248c-52.992 0-96 43.008-96 96v42.624c0 52.992 43.008 96 96 96h213.376c52.992 0 96-43.008 96-96v-42.624c-0.128-52.992-43.136-96-96.128-96zM405.376 842.624c-17.664 0-32-14.336-32-32v-42.624c0-17.664 14.336-32 32-32h213.376c17.664 0 32 14.336 32 32v42.624c0 17.664-14.336 32-32 32h-213.376z" />
<glyph unicode="&#xe92c;" glyph-name="action-rename" d="M512 32c-93.44 0-160.896 0-215.296 7.296-61.696 8.32-103.552 26.24-135.68 58.24-51.328 51.2-62.464 121.984-65.024 234.496-0.384 17.664 13.568 32.256 31.232 32.768 17.664 0.384 32.256-13.568 32.768-31.232 2.56-110.592 14.208-158.72 46.208-190.592 46.976-46.976 133.504-46.976 305.792-46.976s258.816 0 305.792 46.848c32 31.872 43.648 80 46.208 190.592 0.384 17.664 15.104 31.744 32.768 31.232 17.664-0.384 31.616-15.104 31.232-32.768-2.56-112.64-13.696-183.296-65.024-234.496-32.128-32-73.984-50.048-135.68-58.24-54.4-7.168-121.856-7.168-215.296-7.168zM896 531.2c-17.28 0-31.616 13.824-32 31.232-2.56 110.592-14.208 158.72-46.208 190.592-26.752 26.752-65.28 39.040-137.344 43.904-17.664 1.152-30.976 16.384-29.824 34.048s16.384 30.976 34.048 29.824c64.384-4.352 130.56-14.976 178.176-62.464 51.328-51.2 62.336-121.856 65.024-234.496 0.384-17.664-13.568-32.256-31.232-32.768-0.128 0.128-0.384 0.128-0.64 0.128zM128 531.2c-0.256 0-0.512 0-0.768 0-17.664 0.384-31.616 15.104-31.232 32.768 2.56 112.64 13.696 183.296 65.024 234.496 32.128 32 73.984 50.048 135.68 58.24 54.4 7.296 121.856 7.296 215.296 7.296 17.664 0 32-14.336 32-32s-14.336-32-32-32c-172.288 0-258.816 0-305.792-46.848-32-32-43.648-80-46.208-190.592-0.384-17.536-14.592-31.36-32-31.36zM682.624 586.624h-341.248c-17.664 0-32 14.336-32 32s14.336 32 32 32h341.376c17.664 0 32-14.336 32-32s-14.464-32-32.128-32zM512 245.376c-17.664 0-32 14.336-32 32v341.248c0 17.664 14.336 32 32 32s32-14.336 32-32v-341.376c0-17.536-14.336-31.872-32-31.872zM938.624 416h-85.376c-17.664 0-32 14.336-32 32s14.336 32 32 32h85.376c17.664 0 32-14.336 32-32s-14.336-32-32-32zM170.624 416h-85.248c-17.664 0-32 14.336-32 32s14.336 32 32 32h85.376c17.664 0 32-14.336 32-32s-14.464-32-32.128-32z" />
<glyph unicode="&#xe92d;" glyph-name="action-detail" d="M512 202.624c-17.664 0-32 14.336-32 32v256c0 17.664 14.336 32 32 32s32-14.336 32-32v-256c0-17.664-14.336-32-32-32zM554.624 618.624c0-23.541-19.083-42.624-42.624-42.624s-42.624 19.083-42.624 42.624c0 23.541 19.083 42.624 42.624 42.624s42.624-19.083 42.624-42.624zM512-10.624c-103.424 0-178.176 0-238.336 8.064-67.712 9.088-113.408 28.8-148.48 63.744-34.944 34.944-54.656 80.768-63.744 148.48-8.064 60.16-8.064 134.912-8.064 238.336s0 178.176 8.064 238.336c9.088 67.712 28.8 113.408 63.744 148.48s80.768 54.656 148.48 63.744c60.16 8.064 134.912 8.064 238.336 8.064s178.176 0 238.336-8.064c67.712-9.088 113.408-28.8 148.48-63.744 51.328-51.328 64.896-122.88 69.504-214.528 0.896-17.664-12.672-32.64-30.336-33.536s-32.64 12.672-33.536 30.336c-4.608 93.312-18.432 140.16-50.816 172.544-53.248 52.992-149.632 52.992-341.632 52.992s-288.384 0-341.504-53.12-53.12-149.504-53.12-341.504 0-288.384 53.12-341.504c53.12-53.12 149.504-53.12 341.504-53.12s288.384 0 341.504 53.12c53.12 53.12 53.12 149.504 53.12 341.504 0 17.664 14.336 32 32 32s32-14.336 32-32c0-103.424 0-178.176-8.064-238.336-9.088-67.712-28.8-113.408-63.744-148.48-34.944-34.944-80.768-54.656-148.48-63.744-60.16-8.064-134.912-8.064-238.336-8.064z" />
<glyph unicode="&#xe92e;" glyph-name="action-cut" d="M688 160c-40.448 0-75.904 20.864-95.616 52.224-0.512 0.64-0.896 1.28-1.28 2.048l-277.376 473.6c-8.96 15.232-3.84 34.816 11.392 43.776s34.816 3.84 43.776-11.392l227.712-388.736c20.352 27.904 53.76 46.080 91.392 46.080 61.696 0 112-48.768 112-108.8s-50.304-108.8-112-108.8zM688 313.6c-26.496 0-48-20.096-48-44.8s21.504-44.8 48-44.8 48 20.096 48 44.8-21.504 44.8-48 44.8zM336 160c-61.696 0-112 48.768-112 108.8s50.304 108.8 112 108.8c37.76 0 71.168-18.176 91.392-46.080l227.584 388.608c8.96 15.232 28.544 20.352 43.776 11.392s20.352-28.544 11.392-43.776l-277.376-473.6c-0.384-0.64-0.896-1.408-1.28-2.048-19.584-31.232-55.040-52.096-95.488-52.096zM336 313.6c-26.496 0-48-20.096-48-44.8s21.504-44.8 48-44.8 48 20.096 48 44.8-21.504 44.8-48 44.8zM512-10.624c-103.424 0-178.176 0-238.336 8.064-67.712 9.088-113.408 28.8-148.48 63.744-34.944 34.944-54.656 80.768-63.744 148.48-8.064 60.16-8.064 134.912-8.064 238.336s0 178.176 8.064 238.336c9.088 67.712 28.8 113.408 63.744 148.48s80.768 54.656 148.48 63.744c60.16 8.064 134.912 8.064 238.336 8.064s178.176 0 238.336-8.064c67.712-9.088 113.408-28.8 148.48-63.744 51.328-51.328 64.896-122.88 69.504-214.528 0.896-17.664-12.672-32.64-30.336-33.536s-32.64 12.672-33.536 30.336c-4.608 93.312-18.432 140.16-50.816 172.544-53.248 52.992-149.632 52.992-341.632 52.992s-288.384 0-341.504-53.12-53.12-149.504-53.12-341.504 0-288.384 53.12-341.504c53.12-53.12 149.504-53.12 341.504-53.12s288.384 0 341.504 53.12c53.12 53.12 53.12 149.504 53.12 341.504 0 17.664 14.336 32 32 32s32-14.336 32-32c0-103.424 0-178.176-8.064-238.336-9.088-67.712-28.8-113.408-63.744-148.48-34.944-34.944-80.768-54.656-148.48-63.744-60.16-8.064-134.912-8.064-238.336-8.064z" />
<glyph unicode="&#xe92f;" glyph-name="action-favorites" d="M282.368-10.624c-17.152 0-35.2 4.096-51.84 16.768-30.464 23.168-35.84 59.008-37.12 87.68-1.536 33.28 2.56 75.136 8.192 133.248l2.816 28.928c2.816 28.544 3.84 41.472 1.28 49.664-2.56 8.064-10.624 17.792-28.8 39.040l-18.56 21.632c-37.248 43.52-64.128 75.008-81.664 102.912-13.952 21.888-31.104 55.552-19.456 92.928 11.776 37.888 45.056 54.784 69.12 64.256 30.080 11.904 69.632 20.736 124.288 33.152 17.28 3.968 34.432-6.912 38.272-24.192s-6.912-34.432-24.192-38.272c-49.92-11.264-89.472-20.224-114.944-30.336-27.392-10.752-30.208-19.584-31.488-23.808-1.92-6.272-2.304-16.512 12.416-39.936 15.104-23.936 41.984-55.424 76.16-95.36l18.56-21.632c22.4-26.24 34.816-40.704 41.344-61.696 6.528-20.864 4.608-40.064 1.28-74.88l-2.816-28.928c-8.704-90.112-14.464-149.632 3.968-163.712 17.408-13.184 69.12 10.624 147.328 46.592l25.472 11.776c30.080 13.824 48.256 22.272 70.016 22.272s39.936-8.32 70.016-22.144l25.472-11.776c78.208-35.968 129.92-59.776 147.328-46.592 18.432 13.952 12.672 73.6 3.968 163.712l63.744 6.144c5.632-57.984 9.728-99.968 8.192-133.248-1.28-28.672-6.656-64.512-37.12-87.68-31.616-23.936-68.608-17.152-93.568-9.984-30.976 8.832-67.968 25.856-119.168 49.536l-25.472 11.776c-22.912 10.496-35.456 16.384-43.264 16.384s-20.352-5.76-43.264-16.384l-25.472-11.776c-51.2-23.552-88.192-40.576-119.168-49.536-12.032-3.2-26.496-6.528-41.856-6.528zM841.344 354.944c-7.296 0-14.72 2.56-20.736 7.68-13.44 11.52-14.976 31.744-3.584 45.056 34.176 39.936 61.056 71.424 76.16 95.36 14.72 23.424 14.336 33.664 12.416 39.936-1.28 4.224-3.968 12.928-31.488 23.808-25.472 10.112-65.024 18.944-114.944 30.336l-27.136 6.144c-32.128 7.296-51.456 11.648-68.992 24.96-17.28 13.184-26.624 29.824-43.648 60.288l-13.952 25.088c-41.728 75.008-71.808 129.024-93.44 129.024s-51.712-54.144-93.568-129.024l-55.936 31.104c28.16 50.432 48.384 86.912 68.352 112.896 16.128 20.992 41.984 48.896 81.024 48.896s64.896-27.904 81.024-48.896c19.968-26.112 40.32-62.464 68.352-112.896l13.952-25.088c12.8-22.912 19.84-35.456 26.368-40.448 6.144-4.736 18.048-7.552 44.416-13.44l27.136-6.144c54.656-12.416 94.208-21.376 124.288-33.152 24.064-9.472 57.344-26.496 69.12-64.256 11.648-37.376-5.504-71.040-19.328-93.056-17.536-27.904-44.416-59.392-81.664-102.912-6.144-7.424-15.104-11.264-24.192-11.264z" />
<glyph unicode="&#xe930;" glyph-name="action-share" d="M277.376 309.376c-76.416 0-138.624 62.208-138.624 138.624 0 17.664 14.336 32 32 32s32-14.336 32-32c0-41.216 33.536-74.624 74.624-74.624 41.216 0 74.624 33.536 74.624 74.624s-33.536 74.624-74.624 74.624c-17.664 0-32 14.336-32 32s14.336 32 32 32c76.416 0 138.624-62.208 138.624-138.624s-62.208-138.624-138.624-138.624zM384 501.376c-10.112 0-19.968 4.736-26.24 13.696-10.112 14.464-6.656 34.432 7.808 44.544l213.376 149.376c14.464 10.112 34.432 6.656 44.544-7.808s6.656-34.432-7.808-44.544l-213.376-149.504c-5.504-3.968-11.904-5.76-18.304-5.76zM597.248 181.376c-6.4 0-12.8 1.92-18.304 5.76l-213.248 149.376c-14.464 10.112-18.048 30.080-7.808 44.544 10.112 14.464 30.080 18.048 44.544 7.808l213.248-149.376c14.464-10.112 18.048-30.080 7.808-44.544-6.144-8.832-16.128-13.568-26.24-13.568zM704 32c-17.664 0-32 14.336-32 32s14.336 32 32 32c41.216 0 74.624 33.536 74.624 74.624s-33.536 74.624-74.624 74.624-74.624-33.536-74.624-74.624c0-17.664-14.336-32-32-32s-32 14.336-32 32c0 76.416 62.208 138.624 138.624 138.624s138.624-62.208 138.624-138.624c0-76.416-62.208-138.624-138.624-138.624zM703.744 586.752c-23.552 0-47.36 6.016-69.12 18.56-32.128 18.56-55.040 48.384-64.64 84.224s-4.608 73.088 13.824 105.216c18.56 32.128 48.384 55.040 84.224 64.64 35.712 9.6 73.088 4.608 105.216-13.824 15.36-8.832 20.608-28.416 11.776-43.776s-28.416-20.608-43.776-11.648c-17.28 9.984-37.376 12.672-56.704 7.424-19.2-5.12-35.328-17.536-45.312-34.816s-12.672-37.376-7.424-56.704c5.12-19.328 17.536-35.328 34.816-45.312 35.712-20.608 81.408-8.32 102.016 27.392 8.832 15.36 28.416 20.608 43.776 11.648 15.36-8.832 20.608-28.416 11.648-43.776-25.6-44.416-72.32-69.248-120.32-69.248z" />
</font>
</defs>
</svg>
