<?xml version="1.0" encoding="utf-8"?>
<!-- Generator: Adobe Illustrator 27.0.0, SVG Export Plug-In . SVG Version: 6.00 Build 0)  -->
<svg version="1.1" id="Layer_1" xmlns="http://www.w3.org/2000/svg" xmlns:xlink="http://www.w3.org/1999/xlink" x="0px" y="0px"
	 viewBox="0 0 800 800" style="enable-background:new 0 0 800 800;" xml:space="preserve">
<g>
	<g>
		<g>
			<path d="M400,358.3c-87.3,0-158.3-71-158.3-158.3S312.7,41.7,400,41.7s158.3,71,158.3,158.3S487.3,358.3,400,358.3z M400,91.7
				c-59.7,0-108.3,48.6-108.3,108.3S340.3,308.3,400,308.3S508.3,259.7,508.3,200S459.7,91.7,400,91.7z"/>
			<path d="M400,368.3c-92.8,0-168.3-75.5-168.3-168.3S307.2,31.7,400,31.7S568.3,107.2,568.3,200S492.8,368.3,400,368.3z M400,51.7
				c-81.8,0-148.3,66.5-148.3,148.3S318.2,348.3,400,348.3c81.8,0,148.3-66.5,148.3-148.3S481.8,51.7,400,51.7z M400,318.3
				c-65.2,0-118.3-53.1-118.3-118.3S334.8,81.7,400,81.7c65.2,0,118.3,53.1,118.3,118.3S465.2,318.3,400,318.3z M400,101.7
				c-54.2,0-98.3,44.1-98.3,98.3s44.1,98.3,98.3,98.3c54.2,0,98.3-44.1,98.3-98.3S454.2,101.7,400,101.7z"/>
		</g>
	</g>
	<g>
		<g>
			<path d="M400,725c-66.6,0-129.6-15-177.4-42.3c-52.2-29.8-80.9-71-80.9-116s28.7-86.2,80.9-116c47.8-27.3,110.8-42.3,177.4-42.3
				s129.6,15,177.4,42.3c52.2,29.8,80.9,71,80.9,116c0,14.8-3.2,29.5-9.6,43.6c-5.7,12.6-20.5,18.2-33.1,12.5
				c-12.6-5.7-18.2-20.5-12.5-33.1c3.4-7.6,5.1-15.3,5.1-23.1c0-35.4-34.9-60.7-55.7-72.6C512.2,471,458,458.3,400,458.3
				c-58,0-112.2,12.7-152.6,35.8c-20.8,11.9-55.7,37.1-55.7,72.6s34.9,60.7,55.7,72.6C287.8,662.3,342,675,400,675
				c32.8,0,64.2-4,93.5-12c13.3-3.6,27.1,4.3,30.7,17.6c3.6,13.3-4.3,27.1-17.6,30.7C473,720.4,437.2,725,400,725z"/>
			<path d="M400,735c-68.3,0-133.1-15.5-182.4-43.7c-55.4-31.7-86-76-86-124.7s30.5-93,86-124.7c49.3-28.2,114-43.7,182.4-43.7
				s133.1,15.5,182.4,43.7c55.4,31.7,86,76,86,124.7c0,16.3-3.5,32.3-10.4,47.7c-7.9,17.6-28.7,25.5-46.3,17.5
				c-17.6-7.9-25.5-28.7-17.5-46.3c2.8-6.3,4.3-12.7,4.3-19c0-30.4-31.8-53.1-50.7-63.9c-38.9-22.2-91.3-34.4-147.6-34.4
				c-56.3,0-108.8,12.2-147.6,34.4c-18.9,10.8-50.7,33.5-50.7,63.9c0,30.4,31.8,53.1,50.7,63.9C291.2,652.8,343.7,665,400,665
				c31.9,0,62.5-3.9,90.8-11.6c18.6-5.1,37.9,6,42.9,24.6c2.4,9,1.2,18.5-3.4,26.6c-4.6,8.1-12.2,13.9-21.2,16.4
				C474.8,730.3,438.1,735,400,735z M400,418.3c-64.9,0-126.1,14.6-172.4,41c-48.9,28-75.9,66.1-75.9,107.3s27,79.3,75.9,107.3
				c46.3,26.5,107.5,41,172.4,41c36.3,0,71.3-4.5,103.9-13.4c3.9-1,7.1-3.5,9.1-7s2.5-7.5,1.5-11.4c-2.2-8-10.4-12.7-18.4-10.5
				C466,680.9,433.7,685,400,685c-59.8,0-115.7-13.2-157.5-37.1c-22.7-13-60.8-40.8-60.8-81.3c0-40.5,38.1-68.3,60.8-81.3
				c41.8-23.9,97.8-37.1,157.5-37.1c59.8,0,115.7,13.2,157.5,37.1c22.7,13,60.8,40.8,60.8,81.3c0,9.1-2,18.3-6,27.2
				c-3.4,7.5,0,16.4,7.5,19.8c7.5,3.4,16.4,0,19.8-7.5c5.8-12.8,8.7-26.1,8.7-39.5c0-41.2-27-79.3-75.9-107.3
				C526.1,432.9,464.9,418.3,400,418.3z"/>
		</g>
	</g>
</g>
</svg>
