<?xml version="1.0" encoding="utf-8"?>
<!-- Generator: Adobe Illustrator 27.1.0, SVG Export Plug-In . SVG Version: 6.00 Build 0)  -->
<svg version="1.1" id="Layer_1" xmlns="http://www.w3.org/2000/svg" xmlns:xlink="http://www.w3.org/1999/xlink" x="0px" y="0px"
	 viewBox="0 0 800 800" style="enable-background:new 0 0 800 800;" xml:space="preserve">
<style type="text/css">
	.st0{fill:none;}
	.st1{fill:#231F20;}
</style>
<path id="MingCute" class="st0" d="M800,0v800H0V0H800z M419.8,775.3l-0.4,0.1l-2.4,1.2l-0.6,0.1l0,0l-0.5-0.1l-2.4-1.2
	c-0.3-0.1-0.6,0-0.8,0.2l-0.1,0.4l-0.6,14.2l0.2,0.7l0.4,0.4l3.5,2.5l0.5,0.1l0,0l0.4-0.1l3.5-2.5l0.4-0.5l0,0l0.1-0.6l-0.6-14.2
	C420.3,775.5,420,775.3,419.8,775.3L419.8,775.3z M428.6,771.5l-0.5,0.1l-6.2,3.1l-0.3,0.3l0,0l-0.1,0.4l0.6,14.3l0.2,0.4l0,0
	l0.3,0.2l6.7,3.1c0.4,0.1,0.8,0,0.9-0.3l0.1-0.5l-1.1-20.5C429.2,771.8,428.9,771.6,428.6,771.5L428.6,771.5z M404.8,771.6
	c-0.3-0.2-0.7-0.1-0.9,0.2l-0.2,0.5l-1.1,20.5c0,0.4,0.2,0.7,0.6,0.8l0.5,0l6.7-3.1l0.3-0.3l0,0l0.1-0.4l0.6-14.3l-0.1-0.4l0,0
	l-0.3-0.3L404.8,771.6z"/>
<path id="形状" class="st1" d="M400,100c44.3,0,86.1,10.8,122.9,30l20.2-20.2c13-13,34.1-13,47.1,0c13,13,13,34.1,0,47.1
	l-11.7,11.7c54.1,48.8,88.1,119.5,88.1,198.1v266.7c0,55.2-44.8,100-100,100H233.3c-55.2,0-100-44.8-100-100V366.7
	c0-78.6,34-149.3,88.1-198.1l-11.7-11.7c-13-13-13-34.1,0-47.1c13-13,34.1-13,47.1,0l20.2,20.2C313.9,110.8,355.7,100,400,100z
	 M600,466.7H200v166.7c0,18.4,14.9,33.3,33.3,33.3h333.3c18.4,0,33.3-14.9,33.3-33.3V466.7z M400,166.7
	c-107.9,0-195.9,85.5-199.9,192.5l-0.1,7.5V400h400v-33.3C600,256.2,510.5,166.7,400,166.7z M300,266.7c18.4,0,33.3,14.9,33.3,33.3
	c0,18.4-14.9,33.3-33.3,33.3c-18.4,0-33.3-14.9-33.3-33.3C266.7,281.6,281.6,266.7,300,266.7z M500,266.7
	c18.4,0,33.3,14.9,33.3,33.3c0,18.4-14.9,33.3-33.3,33.3s-33.3-14.9-33.3-33.3C466.7,281.6,481.6,266.7,500,266.7z"/>
</svg>
