<?xml version="1.0" encoding="utf-8"?>
<!-- Generator: Adobe Illustrator 27.1.0, SVG Export Plug-In . SVG Version: 6.00 Build 0)  -->
<svg version="1.1" id="Layer_1" xmlns="http://www.w3.org/2000/svg" xmlns:xlink="http://www.w3.org/1999/xlink" x="0px" y="0px"
	 viewBox="0 0 800 800" style="enable-background:new 0 0 800 800;" xml:space="preserve">
<style type="text/css">
	.st0{fill:#231F20;}
</style>
<path class="st0" d="M566.7,691.7H233.3c-33.2,0-64.9-13.2-88.4-36.6c-23.4-23.4-36.6-55.2-36.6-88.4V233.3
	c0-33.2,13.2-64.9,36.6-88.4s55.2-36.6,88.4-36.6h333.3c33.2,0,64.9,13.2,88.4,36.6c23.4,23.4,36.6,55.2,36.6,88.4v333.3
	c0,33.2-13.2,64.9-36.6,88.4C631.6,678.5,599.8,691.7,566.7,691.7z M233.3,158.3c-19.9,0-39,7.9-53,22s-22,33.1-22,53v333.3
	c0,19.9,7.9,39,22,53c14.1,14.1,33.1,22,53,22h333.3c19.9,0,39-7.9,53-22c14.1-14.1,22-33.1,22-53V233.3c0-19.9-7.9-39-22-53
	c-14.1-14.1-33.1-22-53-22H233.3z"/>
<path class="st0" d="M400,591.7c-6.6,0-13-2.6-17.7-7.3c-4.7-4.7-7.3-11-7.3-17.7c0-3.3,0.6-6.6,1.7-9.7c1.4-3,3.3-5.7,5.7-8
	c2.3-2.3,5-4.1,8-5.3c3-1.3,6.2-2,9.5-2s6.5,0.7,9.5,2c3.1,1.2,6,3,8.3,5.3c2.3,2.3,4.1,5,5.3,8c1.3,3.1,2,6.3,2,9.7
	c0,6.6-2.6,13-7.3,17.7C412.9,589,406.6,591.6,400,591.7z"/>
<path class="st0" d="M483.3,458.3H316.7c-28.7,0-56.3-11.4-76.6-31.7c-20.3-20.3-31.7-47.9-31.7-76.6c0-28.7,11.4-56.3,31.7-76.6
	c20.3-20.3,47.9-31.7,76.6-31.7h166.7c28.7,0,56.3,11.4,76.6,31.7c20.3,20.3,31.7,47.9,31.7,76.6c0,28.7-11.4,56.3-31.7,76.6
	C539.6,446.9,512.1,458.3,483.3,458.3z M316.7,291.7c-15.5,0-30.3,6.1-41.2,17.1c-10.9,10.9-17.1,25.8-17.1,41.2
	c0,15.5,6.1,30.3,17.1,41.2c10.9,10.9,25.8,17.1,41.2,17.1h166.7c15.5,0,30.3-6.1,41.2-17.1c10.9-10.9,17.1-25.8,17.1-41.2
	c0-15.5-6.1-30.3-17.1-41.2s-25.8-17.1-41.2-17.1H316.7z"/>
</svg>
