<?xml version="1.0" encoding="utf-8"?>
<!-- Generator: Adobe Illustrator 27.0.0, SVG Export Plug-In . SVG Version: 6.00 Build 0)  -->
<svg version="1.1" id="Layer_1" xmlns="http://www.w3.org/2000/svg" xmlns:xlink="http://www.w3.org/1999/xlink" x="0px" y="0px"
	 viewBox="0 0 800 800" style="enable-background:new 0 0 800 800;" xml:space="preserve">
<style type="text/css">
	.st0{fill:#231F20;}
</style>
<path class="st0" d="M608.3,500c0,13.8,11.2,25,25,25s25-11.2,25-25H608.3z M366.7,91.7h66.7v-50h-66.7V91.7z M433.3,708.3h-66.7v50
	h66.7V708.3z M191.7,533.3V266.7h-50v266.7H191.7z M366.7,708.3c-47.8,0-81.2-0.1-106.4-3.4c-24.5-3.3-37.4-9.3-46.6-18.5
	l-35.4,35.4c20.1,20.1,45.3,28.7,75.3,32.7c29.3,3.9,66.6,3.9,113.1,3.9V708.3z M141.7,533.3c0,46.4-0.1,83.8,3.9,113.1
	c4,30,12.7,55.3,32.7,75.3l35.4-35.4c-9.2-9.2-15.2-22.2-18.5-46.6c-3.4-25.2-3.4-58.5-3.4-106.4H141.7z M433.3,758.3
	c46.4,0,83.8,0.1,113.1-3.9c30-4,55.3-12.7,75.3-32.7l-35.4-35.4c-9.2,9.2-22.2,15.2-46.6,18.5c-25.2,3.4-58.5,3.4-106.4,3.4V758.3z
	 M433.3,91.7c47.8,0,81.2,0.1,106.4,3.4c24.5,3.3,37.4,9.3,46.6,18.5l35.4-35.4c-20.1-20.1-45.3-28.7-75.3-32.7
	c-29.3-3.9-66.6-3.9-113.1-3.9V91.7z M658.3,266.7c0-46.4,0.1-83.8-3.9-113.1c-4-30-12.7-55.3-32.7-75.3l-35.4,35.4
	c9.2,9.2,15.2,22.2,18.5,46.6c3.4,25.2,3.4,58.5,3.4,106.4H658.3z M366.7,41.7c-46.4,0-83.8-0.1-113.1,3.9
	c-30,4-55.3,12.7-75.3,32.7l35.4,35.4c9.2-9.2,22.2-15.2,46.6-18.5c25.2-3.4,58.5-3.4,106.4-3.4V41.7z M191.7,266.7
	c0-47.8,0.1-81.2,3.4-106.4c3.3-24.5,9.3-37.4,18.5-46.6l-35.4-35.4c-20.1,20.1-28.7,45.3-32.7,75.3c-3.9,29.3-3.9,66.6-3.9,113.1
	H191.7z M605.7,632.8c-3.1,29-9.3,43.5-19.4,53.6l35.4,35.4c21.9-21.9,30.2-50,33.7-83.7L605.7,632.8z M608.3,266.7V500h50V266.7
	H608.3z"/>
<g>
	<path class="st0" d="M633.3,675v-50c13.7,0,21.3,0,25.8-0.7c25-4,44.5-23.5,48.5-48.5c0.7-4.5,0.7-12.1,0.7-25.8V250
		c0-13.7,0-21.3-0.7-25.8c-4-25-23.5-44.5-48.5-48.5c-4.5-0.7-12.1-0.7-25.8-0.7v-50c16.8,0,25.2,0,33.6,1.3
		c46.5,7.4,82.7,43.6,90.1,90.1c1.3,8.4,1.3,16.8,1.3,33.6v300c0,16.8,0,25.2-1.3,33.6c-7.4,46.5-43.6,82.7-90.1,90
		C658.5,675,650.1,675,633.3,675z"/>
</g>
<g>
	<path class="st0" d="M166.7,675c-16.8,0-25.2,0-33.6-1.3c-46.5-7.4-82.7-43.6-90.1-90.1c-1.3-8.4-1.3-16.8-1.3-33.6V250
		c0-16.8,0-25.2,1.3-33.6c7.4-46.5,43.6-82.7,90.1-90.1c8.4-1.3,16.8-1.3,33.6-1.3v50c-13.7,0-21.3,0-25.8,0.7
		c-25,4-44.5,23.5-48.5,48.5c-0.7,4.5-0.7,12.1-0.7,25.8v300c0,13.7,0,21.3,0.7,25.8c4,25,23.5,44.5,48.5,48.5
		c4.5,0.7,12.1,0.7,25.8,0.7V675z"/>
</g>
<g>
	<path class="st0" d="M483.3,291.7c-41.4,0-75-33.6-75-75s33.6-75,75-75s75,33.6,75,75S524.7,291.7,483.3,291.7z M483.3,191.7
		c-13.8,0-25,11.2-25,25s11.2,25,25,25s25-11.2,25-25S497.1,191.7,483.3,191.7z"/>
</g>
<g>
	<path class="st0" d="M633.3,675c-5.7,0-11.4-1.9-16.1-5.9L537,601.3l-1-1c-16.5-17.4-39.7-19.2-57.6-4.4l-7.3,6
		c-30.1,24.8-72.2,20.7-97.9-9.5L267.8,469c-5.6-6.6-12.8-10.4-20.2-10.6c-7.3-0.2-14.2,2.8-20.1,8.8l-43,44.1
		c-9.6,9.9-25.5,10.1-35.4,0.5c-9.9-9.6-10.1-25.5-0.5-35.4l43-44.1c15.7-16.1,36.1-24.6,57.5-23.9c21.6,0.7,41.7,10.7,56.5,28.1
		l105.4,123.5c8,9.4,19.1,10.7,28.1,3.3l7.3-6c37.9-31.2,90.1-28,124.7,7.5l78.2,66.1c10.5,8.9,11.9,24.7,3,35.2
		C647.5,672,640.4,675,633.3,675z"/>
</g>
</svg>
