<?xml version="1.0" encoding="utf-8"?>
<!-- Generator: Adobe Illustrator 27.0.0, SVG Export Plug-In . SVG Version: 6.00 Build 0)  -->
<svg version="1.1" id="Layer_1" xmlns="http://www.w3.org/2000/svg" xmlns:xlink="http://www.w3.org/1999/xlink" x="0px" y="0px"
	 viewBox="0 0 800 800" style="enable-background:new 0 0 800 800;" xml:space="preserve">
<style type="text/css">
	.st0{fill:#231F20;}
</style>
<path class="st0" d="M91.7,333.3c0-13.8-11.2-25-25-25s-25,11.2-25,25H91.7z M708.3,466.7c0,13.8,11.2,25,25,25s25-11.2,25-25H708.3
	z M513.1,135.1l-16.7,18.6L513.1,135.1z M645.1,253.9l-16.7,18.6L645.1,253.9z M721.8,338.5L699,348.6l0,0L721.8,338.5z
	 M105.7,694.3l17.7-17.7l0,0L105.7,694.3z M694.3,694.3l-17.7-17.7l0,0L694.3,694.3z M45.2,197.6c-1.4,13.7,8.7,26,22.4,27.3
	c13.7,1.4,26-8.7,27.3-22.4L45.2,197.6z M754.8,602.4c1.4-13.7-8.7-26-22.4-27.3c-13.7-1.3-26,8.7-27.3,22.4L754.8,602.4z
	 M466.7,708.3H333.3v50h133.3V708.3z M91.7,466.7V333.3h-50v133.3H91.7z M708.3,452.1v14.6h50v-14.6H708.3z M496.4,153.7l132,118.8
	l33.4-37.2l-132-118.8L496.4,153.7z M758.3,452.1c0-56.3,0.5-91.9-13.7-123.8L699,348.6c8.9,19.9,9.4,42.8,9.4,103.5H758.3z
	 M628.3,272.5c45.1,40.6,61.8,56.3,70.6,76.2l45.7-20.3c-14.2-31.9-41-55.3-82.9-93L628.3,272.5z M334.3,91.7
	c52.7,0,72.6,0.4,90.4,7.2l17.9-46.7c-28.4-10.9-59.3-10.5-108.3-10.5V91.7z M529.8,116.5C493.6,84,471,63.1,442.6,52.2l-17.9,46.7
	c17.7,6.8,32.7,19.8,71.7,54.8L529.8,116.5z M333.3,708.3c-63.6,0-108.7-0.1-143-4.7c-33.5-4.5-52.9-13-67-27.1L88,712
	c24.9,24.9,56.6,36,95.7,41.3c38.4,5.2,87.5,5.1,149.6,5.1V708.3z M41.7,466.7c0,62.1-0.1,111.3,5.1,149.6C52,655.4,63.1,687,88,712
	l35.4-35.4c-14.1-14.1-22.6-33.4-27.1-67c-4.6-34.3-4.7-79.4-4.7-143H41.7z M466.7,758.3c62.1,0,111.3,0.1,149.6-5.1
	C655.4,748,687,736.9,712,712l-35.4-35.4c-14.1,14.1-33.4,22.6-67,27.1c-34.3,4.6-79.4,4.7-143,4.7V758.3z M334.3,41.7
	c-62.5,0-111.8-0.1-150.4,5.1C144.7,52,113,63.1,88,88l35.4,35.4c14.1-14.1,33.5-22.6,67.2-27.1c34.4-4.6,79.8-4.7,143.7-4.7V41.7z
	 M94.9,202.4c4-41.1,12.8-63.3,28.5-79.1L88,88c-27.8,27.8-38.4,64-42.9,109.5L94.9,202.4z M705.1,597.6c-4,41.1-12.8,63.3-28.5,79
	L712,712c27.8-27.8,38.4-64,42.9-109.5L705.1,597.6z"/>
<g>
	<path class="st0" d="M733.3,358.3H600c-82.7,0-128.2,0-159.9-31.7c-31.7-31.7-31.7-77.3-31.7-159.9V83.3h50v83.3
		c0,76.5,0.7,108.2,17.1,124.6c16.4,16.4,48.1,17.1,124.6,17.1h133.3V358.3z"/>
</g>
</svg>
