<?xml version="1.0" encoding="utf-8"?>
<!-- Generator: Adobe Illustrator 27.0.0, SVG Export Plug-In . SVG Version: 6.00 Build 0)  -->
<svg version="1.1" id="Layer_1" xmlns="http://www.w3.org/2000/svg" xmlns:xlink="http://www.w3.org/1999/xlink" x="0px" y="0px"
	 viewBox="0 0 800 800" style="enable-background:new 0 0 800 800;" xml:space="preserve">
<style type="text/css">
	.st0{fill:#231F20;}
</style>
<g>
	<path class="st0" d="M533.3,691.7c-6.8,0-13.7-2.8-18.6-8.3c-9.2-10.3-8.4-26.1,1.9-35.3l56.6-50.9c47.7-43,68.8-62.7,68.8-80.5
		c0-17.8-21.1-37.6-68.8-80.5l-56.6-50.9c-10.3-9.2-11.1-25-1.9-35.3c9.2-10.3,25-11.1,35.3-1.9l56.6,50.9
		c55.1,49.6,85.4,76.9,85.4,117.7s-30.3,68.1-85.4,117.7l-56.6,50.9C545.3,689.5,539.3,691.7,533.3,691.7z"/>
</g>
<g>
	<path class="st0" d="M266.7,486c-6,0-11.9-2.1-16.7-6.4l-56.5-50.9C138.3,379.1,108,351.8,108,311c0-40.8,30.3-68.1,85.4-117.7
		l56.6-50.9c10.3-9.2,26.1-8.4,35.3,1.9c9.2,10.3,8.4,26.1-1.9,35.3l-56.5,50.9c-47.7,43-68.9,62.7-68.9,80.5
		c0,17.8,21.1,37.6,68.9,80.5l56.5,50.9c10.3,9.2,11.1,25,1.9,35.3C280.3,483.2,273.5,486,266.7,486z"/>
</g>
<g>
	<path class="st0" d="M333.8,686c-2.1,0-4.3-0.3-6.5-0.9c-13.3-3.6-21.3-17.3-17.7-30.6l61-227.7c3.6-13.3,17.3-21.3,30.6-17.7
		c13.3,3.6,21.3,17.3,17.7,30.6l-61,227.7C354.9,678.6,344.8,686,333.8,686z M433.1,315.3c-2.1,0-4.3-0.3-6.5-0.9
		c-13.3-3.6-21.3-17.3-17.7-30.6l33.1-123.6c3.6-13.3,17.3-21.3,30.6-17.7c13.3,3.6,21.3,17.3,17.7,30.6l-33.1,123.6
		C454.3,307.9,444.2,315.3,433.1,315.3z"/>
</g>
</svg>
