<?xml version="1.0" encoding="utf-8"?>
<!-- Generator: Adobe Illustrator 27.0.0, SVG Export Plug-In . SVG Version: 6.00 Build 0)  -->
<svg version="1.1" id="Layer_1" xmlns="http://www.w3.org/2000/svg" xmlns:xlink="http://www.w3.org/1999/xlink" x="0px" y="0px"
	 viewBox="0 0 800 800" style="enable-background:new 0 0 800 800;" xml:space="preserve">
<style type="text/css">
	.st0{fill:#231F20;}
</style>
<g>
	<path class="st0" d="M566.7,741.7c-13.8,0-25-11.2-25-25V83.3c0-13.8,11.2-25,25-25s25,11.2,25,25v633.3
		C591.7,730.5,580.5,741.7,566.7,741.7z"/>
</g>
<g>
	<path class="st0" d="M233.3,741.7c-13.8,0-25-11.2-25-25V83.3c0-13.8,11.2-25,25-25s25,11.2,25,25v633.3
		C258.3,730.5,247.1,741.7,233.3,741.7z"/>
</g>
<g>
	<path class="st0" d="M733.3,425H566.7c-13.8,0-25-11.2-25-25c0-13.8,11.2-25,25-25h166.7c13.8,0,25,11.2,25,25
		C758.3,413.8,747.1,425,733.3,425z M233.3,425H66.7c-13.8,0-25-11.2-25-25c0-13.8,11.2-25,25-25h166.7c13.8,0,25,11.2,25,25
		C258.3,413.8,247.1,425,233.3,425z"/>
</g>
<g>
	<path class="st0" d="M716.7,258.3h-150c-13.8,0-25-11.2-25-25s11.2-25,25-25h150c13.8,0,25,11.2,25,25S730.5,258.3,716.7,258.3z
		 M233.3,258.3h-150c-13.8,0-25-11.2-25-25s11.2-25,25-25h150c13.8,0,25,11.2,25,25S247.1,258.3,233.3,258.3z"/>
</g>
<path class="st0" d="M716.7,591.7c13.8,0,25-11.2,25-25c0-13.8-11.2-25-25-25V591.7z M566.7,541.7c-13.8,0-25,11.2-25,25
	c0,13.8,11.2,25,25,25V541.7z M233.3,591.7c13.8,0,25-11.2,25-25c0-13.8-11.2-25-25-25V591.7z M566.7,591.7h150v-50h-150V591.7z
	 M66.7,591.7h166.7v-50H66.7V591.7z"/>
<g>
	<path class="st0" d="M356.3,508.3c-8.5,0-16.4-2.4-23.5-7c-16.8-11.1-21-30-22.7-43.3c-1.9-14.6-1.9-32.8-1.9-58
		c0-25.2,0-43.4,1.9-58c1.7-13.3,5.9-32.2,22.7-43.3c20.8-13.8,42.3-3.8,49.4-0.5c12.4,5.7,26.2,15,45.4,27.9
		c18.9,12.7,32.5,21.8,42.7,31.3c9.1,8.4,21.3,22,21.3,42.7s-12.2,34.3-21.3,42.7c-10.2,9.4-23.9,18.6-42.7,31.3
		c-19.1,12.9-33,22.2-45.4,27.9c-8.3,3.9-15.8,6-22.9,6.4C358.3,508.3,357.3,508.3,356.3,508.3z M360.7,343.2
		c-0.5,2.4-1.1,6.2-1.5,11.8c-0.8,11.2-0.8,26.1-0.8,45.1c0,18.9,0,33.9,0.8,45.1c0.4,5.6,1,9.3,1.5,11.8
		c8.7-3.9,24.7-14.7,39.1-24.4c14.3-9.6,25.6-17.2,33.2-23.5c6.8-5.6,8.3-8.3,8.6-8.9c-0.3-0.6-1.9-3.3-8.6-8.9
		c-7.7-6.3-19-13.9-33.3-23.5C385.4,357.9,369.4,347.1,360.7,343.2z"/>
</g>
<g>
	<path class="st0" d="M400,758.3c-80.8,0-139.2,0-186.2-6.3c-52.9-7.1-88.6-22.5-116-49.8C67.7,672.1,52.2,632.3,46,569.1
		c-1.4-13.7,8.7-26,22.4-27.3c13.7-1.4,26,8.7,27.3,22.4c5.1,51.4,15.9,81.1,37.4,102.6c41.5,41.5,116.8,41.5,266.8,41.5
		s225.3,0,266.8-41.5c41.5-41.5,41.5-116.8,41.5-266.8c0-13.8,11.2-25,25-25c13.8,0,25,11.2,25,25c0,80.8,0,139.2-6.3,186.2
		c-7.1,52.9-22.5,88.6-49.8,116c-27.3,27.3-63.1,42.7-116,49.8C539.2,758.3,480.8,758.3,400,758.3z M66.7,425c-13.8,0-25-11.2-25-25
		c0-80.8,0-139.2,6.3-186.2c7.1-52.9,22.5-88.6,49.8-116s63.1-42.7,116-49.8c47-6.3,105.4-6.3,186.2-6.3c80.8,0,139.2,0,186.2,6.3
		c52.9,7.1,88.6,22.5,116,49.8c30.1,30.1,45.6,69.9,51.8,133.1c1.4,13.7-8.7,26-22.4,27.3c-13.8,1.3-26-8.7-27.3-22.4
		c-5.1-51.4-15.9-81.1-37.4-102.6C625.3,91.7,550,91.7,400,91.7s-225.3,0-266.8,41.5S91.7,250,91.7,400
		C91.7,413.8,80.5,425,66.7,425z"/>
</g>
</svg>
