<?xml version="1.0" encoding="utf-8"?>
<!-- Generator: Adobe Illustrator 27.1.0, SVG Export Plug-In . SVG Version: 6.00 Build 0)  -->
<svg version="1.1" id="Layer_1" xmlns="http://www.w3.org/2000/svg" xmlns:xlink="http://www.w3.org/1999/xlink" x="0px" y="0px"
	 viewBox="0 0 800 800" style="enable-background:new 0 0 800 800;" xml:space="preserve">
<g>
	<path d="M312.5,350h-150c-20.7,0-37.5-16.8-37.5-37.5v-225c0-20.7,16.8-37.5,37.5-37.5h150c20.7,0,37.5,16.8,37.5,37.5v225
		C350,333.2,333.2,350,312.5,350z M200,275h75V125h-75V275z"/>
</g>
<g>
	<path d="M637.5,350h-150c-20.7,0-37.5-16.8-37.5-37.5s16.8-37.5,37.5-37.5H525V125h-37.5c-20.7,0-37.5-16.8-37.5-37.5
		S466.8,50,487.5,50h75c20.7,0,37.5,16.8,37.5,37.5V275h37.5c20.7,0,37.5,16.8,37.5,37.5S658.2,350,637.5,350z"/>
</g>
<g>
	<path d="M637.5,750h-150c-20.7,0-37.5-16.8-37.5-37.5v-225c0-20.7,16.8-37.5,37.5-37.5h150c20.7,0,37.5,16.8,37.5,37.5v225
		C675,733.2,658.2,750,637.5,750z M525,675h75V525h-75V675z"/>
</g>
<g>
	<path d="M312.5,750h-150c-20.7,0-37.5-16.8-37.5-37.5s16.8-37.5,37.5-37.5H200V525h-37.5c-20.7,0-37.5-16.8-37.5-37.5
		s16.8-37.5,37.5-37.5h75c20.7,0,37.5,16.8,37.5,37.5V675h37.5c20.7,0,37.5,16.8,37.5,37.5S333.2,750,312.5,750z"/>
</g>
</svg>
