<?xml version="1.0" encoding="utf-8"?>
<!-- Generator: Adobe Illustrator 27.1.0, SVG Export Plug-In . SVG Version: 6.00 Build 0)  -->
<svg version="1.1" id="Layer_1" xmlns="http://www.w3.org/2000/svg" xmlns:xlink="http://www.w3.org/1999/xlink" x="0px" y="0px"
	 viewBox="0 0 800 800" style="enable-background:new 0 0 800 800;" xml:space="preserve">
<style type="text/css">
	.st0{fill:none;}
	.st1{fill-rule:evenodd;clip-rule:evenodd;fill:#231F20;}
</style>
<path id="MingCute" class="st0" d="M800,0v800H0V0H800z M419.8,775.3l-0.4,0.1l-2.4,1.2l-0.6,0.1l0,0l-0.5-0.1l-2.4-1.2
	c-0.3-0.1-0.6,0-0.8,0.2l-0.1,0.4l-0.6,14.2l0.2,0.7l0.4,0.4l3.5,2.5l0.5,0.1l0,0l0.4-0.1l3.5-2.5l0.4-0.5l0,0l0.1-0.6l-0.6-14.2
	C420.3,775.5,420,775.3,419.8,775.3L419.8,775.3z M428.6,771.5l-0.5,0.1l-6.2,3.1l-0.3,0.3l0,0l-0.1,0.4l0.6,14.3l0.2,0.4l0,0
	l0.3,0.2l6.7,3.1c0.4,0.1,0.8,0,0.9-0.3l0.1-0.5l-1.1-20.5C429.2,771.8,428.9,771.6,428.6,771.5L428.6,771.5z M404.8,771.6
	c-0.3-0.2-0.7-0.1-0.9,0.2l-0.2,0.5l-1.1,20.5c0,0.4,0.2,0.7,0.6,0.8l0.5,0l6.7-3.1l0.3-0.3l0,0l0.1-0.4l0.6-14.3l-0.1-0.4l0,0
	l-0.3-0.3L404.8,771.6z"/>
<path id="形状" class="st1" d="M700,400c18.4,0,33.3,14.9,33.3,33.3v200c0,18.4-14.9,33.3-33.3,33.3c-13.5,0-25.1-8-30.4-19.6
	c-20.3,12.4-44.1,19.6-69.6,19.6c-73.6,0-133.3-59.7-133.3-133.3c0-73.6,59.7-133.3,133.3-133.3c25.5,0,49.4,7.2,69.6,19.6
	C674.9,408,686.5,400,700,400z M266.7,133.3c24.4,0,46,15.8,53.5,39l144.9,450.8c5.6,17.5-4,36.3-21.5,41.9
	c-17.5,5.6-36.3-4-41.9-21.5L355.5,500H177.9l-46.1,143.5c-5.6,17.5-24.4,27.2-41.9,21.5c-17.5-5.6-27.2-24.4-21.5-41.9l144.9-450.8
	C220.6,149.1,242.3,133.3,266.7,133.3z M600,466.7c-36.8,0-66.7,29.9-66.7,66.7c0,36.8,29.8,66.7,66.7,66.7
	c36.8,0,66.7-29.8,66.7-66.7C666.7,496.5,636.8,466.7,600,466.7z M266.7,223.7l-67.4,209.6H334L266.7,223.7z"/>
</svg>
