<?xml version="1.0" encoding="utf-8"?>
<!-- Generator: Adobe Illustrator 27.0.0, SVG Export Plug-In . SVG Version: 6.00 Build 0)  -->
<svg version="1.1" id="Layer_1" xmlns="http://www.w3.org/2000/svg" xmlns:xlink="http://www.w3.org/1999/xlink" x="0px" y="0px"
	 viewBox="0 0 800 800" style="enable-background:new 0 0 800 800;" xml:space="preserve">
<style type="text/css">
	.st0{fill:#231F20;}
</style>
<g>
	<path class="st0" d="M633.3,675v-50c13.7,0,21.3,0,25.8-0.7c25-4,44.5-23.5,48.5-48.5c0.7-4.5,0.7-12.1,0.7-25.8V250
		c0-13.7,0-21.3-0.7-25.8c-4-25-23.5-44.5-48.5-48.5c-4.5-0.7-12.1-0.7-25.8-0.7v-50c16.8,0,25.2,0,33.6,1.3
		c46.5,7.4,82.7,43.6,90.1,90.1c1.3,8.4,1.3,16.8,1.3,33.6v300c0,16.8,0,25.2-1.3,33.6c-7.4,46.5-43.6,82.7-90.1,90
		C658.5,675,650.1,675,633.3,675z"/>
</g>
<g>
	<path class="st0" d="M166.7,675c-16.8,0-25.2,0-33.6-1.3c-46.5-7.4-82.7-43.6-90.1-90.1c-1.3-8.4-1.3-16.8-1.3-33.6V250
		c0-16.8,0-25.2,1.3-33.6c7.4-46.5,43.6-82.7,90.1-90.1c8.4-1.3,16.8-1.3,33.6-1.3v50c-13.7,0-21.3,0-25.8,0.7
		c-25,4-44.5,23.5-48.5,48.5c-0.7,4.5-0.7,12.1-0.7,25.8v300c0,13.7,0,21.3,0.7,25.8c4,25,23.5,44.5,48.5,48.5
		c4.5,0.7,12.1,0.7,25.8,0.7V675z"/>
</g>
<g>
	<path class="st0" d="M333.3,591.7c-50.5,0-91.7-41.1-91.7-91.7s41.1-91.7,91.7-91.7c15,0,29.2,3.6,41.7,10v-85h50V500
		C425,550.5,383.9,591.7,333.3,591.7z M333.3,458.3c-23,0-41.7,18.7-41.7,41.7s18.7,41.7,41.7,41.7c23,0,41.7-18.7,41.7-41.7
		S356.3,458.3,333.3,458.3z"/>
</g>
<g>
	<path class="st0" d="M433.2,404.4c-24.3,0-46.2-15.1-54.7-38.5c-3.5-9.6-3.5-19.2-3.5-38.3c0-7.8,0-12.6,1-18
		c2.7-14.1,10.5-26.7,21.9-35.4c4.4-3.4,8.6-5.5,15.6-9l43.9-21.9c17.1-8.5,25.6-12.8,35.8-14c27-3.1,52.3,12.5,61.6,38.1
		c3.5,9.6,3.5,19.2,3.5,38.3c0,7.8,0,12.6-1,18c-2.7,14.1-10.5,26.7-21.9,35.4c-4.4,3.4-8.6,5.5-15.6,9L475.9,390
		c-17.1,8.5-25.6,12.8-35.8,14C437.8,404.3,435.5,404.4,433.2,404.4z M433.9,354.4C433.9,354.4,433.9,354.4,433.9,354.4z
		 M425.6,349.1c1.4,3.4,4.8,5.6,8.5,5.2c2.7-0.7,10.9-4.8,19.5-9.1l43.9-21.9c3.4-1.7,6.8-3.4,7.6-4c1.6-1.2,2.7-3,3.1-5
		c0.1-1,0.1-4.8,0.1-8.6c0-9.6,0-18.8-0.6-21.5c-1.4-3.4-4.8-5.6-8.5-5.2c-2.7,0.7-10.9,4.8-19.5,9.1L435.9,310
		c-3.4,1.7-6.8,3.4-7.7,4c-1.6,1.2-2.7,3-3.1,5c-0.1,1-0.1,4.8-0.1,8.6C425,337.3,425,346.4,425.6,349.1z M425.6,349.3L425.6,349.3
		L425.6,349.3z M499.4,278.9C499.4,278.9,499.4,278.9,499.4,278.9C499.4,278.9,499.4,278.9,499.4,278.9z M468.6,265.7L468.6,265.7
		L468.6,265.7z"/>
</g>
<g>
	<path class="st0" d="M433.3,758.3h-66.7c-48.9,0-84.2,0-113.1-3.9c-34-4.6-57.3-14.7-75.3-32.7c-18.1-18.1-28.2-41.3-32.7-75.3
		c-3.9-28.9-3.9-64.2-3.9-113.1V266.7c0-48.9,0-84.2,3.9-113.1c4.6-34,14.7-57.3,32.7-75.3c18.1-18.1,41.3-28.2,75.3-32.7
		c28.9-3.9,64.2-3.9,113.1-3.9h66.7c48.9,0,84.2,0,113.1,3.9c34,4.6,57.3,14.7,75.3,32.7c18.1,18.1,28.2,41.3,32.7,75.3
		c3.9,28.9,3.9,64.2,3.9,113.1v166.7c0,13.8-11.2,25-25,25c-13.8,0-25-11.2-25-25V266.7c0-87.3,0-131.1-22-153s-65.8-22-153-22
		h-66.7c-87.3,0-131.1,0-153,22s-22,65.8-22,153v266.7c0,87.3,0,131.1,22,153s65.8,22,153,22h66.7c87.3,0,131.1,0,153-22
		c18.4-18.4,21.5-50.4,21.9-119.8c0.1-13.8,11.3-24.9,25-24.9c0,0,0.1,0,0.1,0c13.8,0.1,24.9,11.3,24.9,25.1
		c-0.4,74.1-3.1,121.4-36.6,154.9c-18.1,18.1-41.3,28.2-75.3,32.7C517.5,758.3,482.2,758.3,433.3,758.3z"/>
</g>
</svg>
