<?xml version="1.0" encoding="utf-8"?>
<!-- Generator: Adobe Illustrator 27.1.0, SVG Export Plug-In . SVG Version: 6.00 Build 0)  -->
<svg version="1.1" id="Layer_1" xmlns="http://www.w3.org/2000/svg" xmlns:xlink="http://www.w3.org/1999/xlink" x="0px" y="0px"
	 viewBox="0 0 800 800" style="enable-background:new 0 0 800 800;" xml:space="preserve">
<style type="text/css">
	.st0{fill:#231F20;}
	.st1{enable-background:new    ;}
</style>
<g>
	<path class="st0" d="M433.3,758.3h-66.7c-48.9,0-84.2,0-113.1-3.9c-34-4.6-57.3-14.7-75.3-32.7c-18.1-18.1-28.2-41.3-32.7-75.3
		c-3.9-28.9-3.9-64.2-3.9-113.1V266.7c0-48.9,0-84.2,3.9-113.1c4.6-34,14.7-57.3,32.7-75.3c18.1-18.1,41.3-28.2,75.3-32.7
		c28.9-3.9,64.2-3.9,113.1-3.9h66.7c48.9,0,84.2,0,113.1,3.9c34,4.6,57.3,14.7,75.3,32.7c18.1,18.1,28.2,41.3,32.7,75.3
		c3.9,28.9,3.9,64.2,3.9,113.1v266.7c0,48.9,0,84.2-3.9,113.1c-4.6,34-14.7,57.3-32.7,75.3s-41.3,28.2-75.3,32.7
		C517.5,758.3,482.2,758.3,433.3,758.3z M366.7,91.7c-87.3,0-131.1,0-153,22s-22,65.8-22,153v266.7c0,87.3,0,131.1,22,153
		s65.8,22,153,22h66.7c87.3,0,131.1,0,153-22s22-65.8,22-153V266.7c0-87.3,0-131.1-22-153s-65.8-22-153-22H366.7z"/>
</g>
<g class="st1">
	<path class="st0" d="M164.2,689c-40.4-4-66.1-14.1-85.9-34c-18.1-18.1-28.2-41.3-32.7-75.3c-3.9-28.9-3.9-64.2-3.9-113.1V333.3
		c0-48.9,0-84.2,3.9-113.1c4.6-34,14.7-57.3,32.7-75.3c19.8-19.8,45.5-30,85.9-34l4.9,49.8c-28.3,2.8-44.4,8.4-55.5,19.5
		c-22,22-22,65.8-22,153v133.3c0,87.3,0,131.1,22,153c11.1,11.1,27.2,16.8,55.5,19.5L164.2,689z"/>
</g>
<g class="st1">
	<path class="st0" d="M635.8,689l-4.9-49.8c28.3-2.8,44.4-8.4,55.5-19.5c22-22,22-65.8,22-153V333.3c0-87.3,0-131.1-22-153
		c-11.1-11.1-27.2-16.8-55.5-19.5l4.9-49.8c40.4,4,66.1,14.1,85.9,34c18.1,18.1,28.2,41.3,32.7,75.3c3.9,28.9,3.9,64.2,3.9,113.1
		v133.3c0,48.9,0,84.2-3.9,113.1c-4.6,34-14.7,57.3-32.7,75.3C701.9,674.9,676.2,685,635.8,689z"/>
</g>
<g class="st1">
	<path class="st0" d="M500,458.3H300c-13.8,0-25-11.2-25-25s11.2-25,25-25h200c13.8,0,25,11.2,25,25S513.8,458.3,500,458.3z"/>
</g>
<g>
	<path class="st0" d="M500,325H300c-13.8,0-25-11.2-25-25s11.2-25,25-25h200c13.8,0,25,11.2,25,25S513.8,325,500,325z"/>
</g>
<g class="st1">
	<path class="st0" d="M400,591.7H300c-13.8,0-25-11.2-25-25s11.2-25,25-25h100c13.8,0,25,11.2,25,25S413.8,591.7,400,591.7z"/>
</g>
</svg>
