<?xml version="1.0" encoding="utf-8"?>
<!-- Generator: Adobe Illustrator 27.0.0, SVG Export Plug-In . SVG Version: 6.00 Build 0)  -->
<svg version="1.1" id="Layer_1" xmlns="http://www.w3.org/2000/svg" xmlns:xlink="http://www.w3.org/1999/xlink" x="0px" y="0px"
	 viewBox="0 0 800 800" style="enable-background:new 0 0 800 800;" xml:space="preserve">
<style type="text/css">
	.st0{fill:#231F20;}
</style>
<g>
	<path class="st0" d="M433.3,758.3h-66.7c-64.8,0-111.7,0-149.6-5.1c-43.5-5.8-73-18.6-95.7-41.3c-25-25-37.8-57.7-42.9-109.5
		c-1.4-13.7,8.7-26,22.4-27.3c13.7-1.4,26,8.7,27.3,22.4c3.9,39.8,12.2,62.7,28.5,79c31.7,31.7,91.3,31.7,209.9,31.7h66.7
		c118.7,0,178.2,0,209.9-31.7C675,644.9,675,585.3,675,466.7V333.3c0-13.8,11.2-25,25-25s25,11.2,25,25v133.3
		c0,64.8,0,111.7-5.1,149.6c-5.8,43.5-18.6,73-41.3,95.7c-22.7,22.7-52.2,35.4-95.7,41.3C545,758.3,498.2,758.3,433.3,758.3z
		 M100,491.7c-13.8,0-25-11.2-25-25V333.3c0-64.8,0-111.7,5.1-149.6c5.8-43.5,18.6-73,41.3-95.7c22.7-22.7,52.2-35.4,95.7-41.3
		c38-5.1,84.8-5.1,149.6-5.1h66.7c64.8,0,111.7,0,149.6,5.1c43.5,5.8,73,18.6,95.7,41.3c25,25,37.8,57.7,42.9,109.5
		c1.4,13.7-8.7,26-22.4,27.3c-13.7,1.3-26-8.7-27.3-22.4c-3.9-39.8-12.2-62.8-28.5-79C611.5,91.7,552,91.7,433.3,91.7h-66.7
		c-118.7,0-178.2,0-209.9,31.7C125,155.1,125,214.7,125,333.3v133.3C125,480.5,113.8,491.7,100,491.7z"/>
</g>
<g>
	<path class="st0" d="M400,625c-59.7,0-108.3-48.6-108.3-108.3v-4.2c0-29.9,24.3-54.2,54.2-54.2h108.3c29.9,0,54.2,24.3,54.2,54.2
		v4.2C508.3,576.4,459.7,625,400,625z M345.8,508.3c-2.3,0-4.2,1.9-4.2,4.2v4.2c0,32.2,26.2,58.3,58.3,58.3s58.3-26.2,58.3-58.3
		v-4.2c0-2.3-1.9-4.2-4.2-4.2H345.8z"/>
</g>
<g>
	<path class="st0" d="M366.7,175H350c-19,0-33.9,0-46.1-12.2c-12.2-12.2-12.2-27.2-12.2-46.1V100c0-19,0-33.9,12.2-46.1
		C316.1,41.7,331,41.7,350,41.7h16.7c19,0,33.9,0,46.1,12.2C425,66.1,425,81,425,100v16.7c0,19,0,33.9-12.2,46.1
		C400.6,175,385.6,175,366.7,175z M341.7,125c2.6,0,5.5,0,8.3,0h16.7c2.8,0,5.7,0,8.3,0c0-2.6,0-5.5,0-8.3V100c0-2.8,0-5.7,0-8.3
		c-2.6,0-5.5,0-8.3,0H350c-2.8,0-5.7,0-8.3,0c0,2.6,0,5.5,0,8.3v16.7C341.7,119.4,341.7,122.4,341.7,125z"/>
</g>
<g>
	<path class="st0" d="M366.7,341.7H350c-19,0-33.9,0-46.1-12.2c-12.2-12.2-12.2-27.2-12.2-46.1v-16.7c0-19,0-33.9,12.2-46.1
		c12.2-12.2,27.2-12.2,46.1-12.2h16.7c19,0,33.9,0,46.1,12.2c12.2,12.2,12.2,27.2,12.2,46.1v16.7c0,19,0,33.9-12.2,46.1
		C400.6,341.7,385.6,341.7,366.7,341.7z M341.7,291.6c2.6,0,5.5,0,8.3,0h16.7c2.8,0,5.7,0,8.3,0c0-2.6,0-5.5,0-8.3v-16.7
		c0-2.8,0-5.7,0-8.3c-2.6,0-5.5,0-8.3,0H350c-2.8,0-5.7,0-8.3,0c0,2.6,0,5.5,0,8.3v16.7C341.7,286.1,341.7,289,341.7,291.6z"/>
</g>
<g>
	<path class="st0" d="M450,258.3h-16.7c-19,0-33.9,0-46.1-12.2C375,233.9,375,219,375,200v-16.7c0-19,0-33.9,12.2-46.1
		c12.2-12.2,27.2-12.2,46.1-12.2H450c19,0,33.9,0,46.1,12.2c12.2,12.2,12.2,27.2,12.2,46.1V200c0,19,0,33.9-12.2,46.1
		C483.9,258.3,469,258.3,450,258.3z M425,208.3c2.6,0,5.5,0,8.3,0H450c2.8,0,5.7,0,8.3,0c0-2.6,0-5.5,0-8.3v-16.7c0-2.8,0-5.7,0-8.3
		c-2.6,0-5.5,0-8.3,0h-16.7c-2.8,0-5.7,0-8.3,0c0,2.6,0,5.5,0,8.3V200C425,202.8,425,205.7,425,208.3z"/>
</g>
<g>
	<path class="st0" d="M450,425h-16.7c-19,0-33.9,0-46.1-12.2C375,400.6,375,385.6,375,366.7V350c0-19,0-33.9,12.2-46.1
		c12.2-12.2,27.2-12.2,46.1-12.2H450c19,0,33.9,0,46.1,12.2c12.2,12.2,12.2,27.2,12.2,46.1v16.7c0,19,0,33.9-12.2,46.1
		C483.9,425,469,425,450,425z M425,375c2.6,0,5.5,0,8.3,0H450c2.8,0,5.7,0,8.3,0c0-2.6,0-5.5,0-8.3V350c0-2.8,0-5.7,0-8.3
		c-2.6,0-5.5,0-8.3,0h-16.7c-2.8,0-5.7,0-8.3,0c0,2.6,0,5.5,0,8.3v16.7C425,369.4,425,372.4,425,375z"/>
</g>
</svg>
