<?xml version="1.0" encoding="utf-8"?>
<!-- Generator: Adobe Illustrator 27.1.0, SVG Export Plug-In . SVG Version: 6.00 Build 0)  -->
<svg version="1.1" id="Layer_1" xmlns="http://www.w3.org/2000/svg" xmlns:xlink="http://www.w3.org/1999/xlink" x="0px" y="0px"
	 viewBox="0 0 800 800" style="enable-background:new 0 0 800 800;" xml:space="preserve">
<style type="text/css">
	.st0{fill:#231F20;}
</style>
<path class="st0" d="M493.9,37.5c-27.5,0-50,22.5-50,50c0.2,1.8,0.4,3.3,0.8,4.9c-0.2,0.2-0.6,0.2-0.8,0.2
	c2.7,10.5-0.6,21.7-8.8,28.7c-2.9,2.3-6.2,4.3-9.8,5.5c-14.3,4.5-29.5-2.9-35-16.6c0,0-0.2,0-0.4,0.2c-0.8-1.6-1.8-3.1-2.7-4.5
	c-10-13.7-26.2-21.5-43.2-20.5c-9.6,0.6-18.8,3.9-26.6,9.6c-22.3,16.2-27.3,47.5-11.1,69.7c1.2,1.4,2.5,2.5,3.7,3.7
	c0,0.2-0.2,0.4-0.4,0.6c8.2,6.8,11.9,17.8,9.4,28.3c-0.8,3.5-2.3,7-4.7,10c-8.8,12.1-25.4,15-37.9,7.2c0,0,0,0.2-0.2,0.2
	c-1.6-0.8-3.1-1.4-4.7-2c-4.5-1.6-9.4-2.3-14.1-2.3c-22.3-0.8-42.2,13.3-49,34.6c-8.6,26.2,5.9,54.3,32,62.9
	c1.8,0.4,3.3,0.6,5.1,0.8c0,0.2,0,0.4-0.2,0.8c10.9,0.6,20.5,7.2,24.6,17.4c1.4,3.3,2.1,7,2.1,10.7c0,15-11.9,27.1-26.8,28.1
	c0.2,0.2,0.2,0.4,0.2,0.8c-1.8,0.2-3.3,0.4-5.1,0.8c-26.2,8.6-40.6,36.7-32,63.1c8.6,26.2,36.7,40.6,63.1,32c1.6-0.6,3.1-1.2,4.7-2
	c0.2,0.2,0.2,0.2,0.2,0.4c4.3-2.7,9-4.3,13.9-4.5c5.7-0.4,11.1,1,16,4.1c3.1,2,6.1,4.5,8.2,7.6c8.8,12.1,6.2,28.7-5.1,38.1l0.6,0.6
	c-1.2,1.2-2.5,2.3-3.7,3.7c-16.2,22.3-11.1,53.5,11.1,69.9c22.3,16.2,53.5,11.1,69.7-11.1c1-1.4,2-2.7,2.7-4.3c0.2,0,0.2,0,0.4,0.2
	c3.9-10.2,13.1-17.2,24-18c3.7-0.4,7.4,0.2,10.9,1.4c14.5,4.5,22.5,19.7,18.6,34c0.4,0,0.6,0,0.8,0.2c-0.4,1.6-0.6,3.3-0.8,4.9
	c0,27.5,22.5,50,50,50s50-22.5,50-50c0-1.8-0.2-3.3-0.4-5.1h0.2c-3.7-14.5,4.5-29.5,18.8-34.2c3.7-1.2,7.4-1.6,11.1-1.2
	c10.4,0.8,19.7,7.6,23.6,18c0.4-0.2,0.6-0.4,0.8-0.4c0.8,1.6,1.6,2.9,2.3,4.5c16.4,22.3,47.7,27.3,69.9,11.1
	c22.3-16.4,27.3-47.7,10.9-69.9c-1.2-1.4-2.3-2.5-3.7-3.7c0.2-0.2,0.4-0.2,0.6-0.4c-11.3-9.6-13.7-26.4-4.9-38.5
	c5.7-7.8,14.8-11.9,23.8-11.5c4.9,0.2,9.8,1.6,14.1,4.3c0.2-0.2,0.4-0.4,0.6-0.6c1.4,0.8,2.9,1.6,4.5,2.3c26.4,8.6,54.5-5.9,63.1-32
	c8.6-26.4-5.9-54.5-32-63.1c-1.8-0.4-3.3-0.6-5.1-1c0-0.2,0-0.4,0.2-0.6c-14.8-1-26.8-13.3-26.8-28.3c0-14.8,11.9-27,26.8-27.9
	c-0.2-0.2-0.2-0.6-0.2-0.8c1.8-0.2,3.3-0.4,5.1-0.8c26.2-8.6,40.6-36.7,32-63.1c-6.8-21.1-26.8-35.2-49-34.4
	c-4.7,0-9.6,0.8-14.1,2.3c-1.6,0.8-3.1,1.6-4.5,2.3c-0.2-0.2-0.4-0.4-0.6-0.8c-12.3,8-29.1,5.1-37.9-7.2
	c-8.8-11.9-6.4-28.7,4.9-38.3c-0.2,0-0.4-0.2-0.6-0.4c1.4-1.2,2.5-2.3,3.7-3.7c16.4-22.3,11.3-53.5-10.9-69.9
	c-7.8-5.5-17-8.8-26.6-9.4c-17-1-33.2,6.8-43.4,20.5c-0.8,1.6-1.6,2.9-2.3,4.5c-0.2,0-0.4-0.2-0.6-0.2
	c-5.5,13.7-20.7,21.1-35.2,16.4c-14.3-4.5-22.3-19.7-18.6-34c0,0,0,0-0.2,0c0.2-1.8,0.4-3.3,0.4-5.1C543.9,60,521.4,37.5,493.9,37.5
	L493.9,37.5z M493.9,212.5c68.9,0,125,56.1,125,125s-56.1,125-125,125s-125-56.1-125-125S424.9,212.5,493.9,212.5z M143.3,512.5
	c-68.4,0-125,56.6-125,125s56.6,125,125,125c68.4,0,125-56.6,125-125S211.6,512.5,143.3,512.5z M143.3,612.5c14.5,0,25,10.5,25,25
	s-10.5,25-25,25c-14.5,0-25-10.5-25-25S128.8,612.5,143.3,612.5z"/>
</svg>
