<?xml version="1.0" encoding="utf-8"?>
<!-- Generator: Adobe Illustrator 27.1.0, SVG Export Plug-In . SVG Version: 6.00 Build 0)  -->
<svg version="1.1" id="Layer_1" xmlns="http://www.w3.org/2000/svg" xmlns:xlink="http://www.w3.org/1999/xlink" x="0px" y="0px"
	 viewBox="0 0 800 800" style="enable-background:new 0 0 800 800;" xml:space="preserve">
<style type="text/css">
	.st0{fill:#231F20;}
</style>
<g>
	<path class="st0" d="M157.5,613.9L109.2,601c11.5-43,45.4-76.9,88.4-88.4c15.9-4.3,32.5-4.3,65.7-4.3h400v50h-400
		c-27.9,0-43.2,0-52.7,2.6C184.7,567.8,164.4,588.1,157.5,613.9z"/>
</g>
<g>
	<path class="st0" d="M533.3,258.3H266.7c-13.8,0-25-11.2-25-25s11.2-25,25-25h266.7c13.8,0,25,11.2,25,25S547.1,258.3,533.3,258.3z
		"/>
</g>
<g>
	<path class="st0" d="M433.3,375H266.7c-13.8,0-25-11.2-25-25s11.2-25,25-25h166.7c13.8,0,25,11.2,25,25S447.1,375,433.3,375z"/>
</g>
<g>
	<path class="st0" d="M466.7,758.3c-13.8,0-25-11.2-25-25c0-13.8,11.2-25,25-25c87.3,0,131.1,0,153-22s22-65.8,22-153V400
		c0-13.8,11.2-25,25-25c13.8,0,25,11.2,25,25v133.3c0,48.9,0,84.2-3.9,113.1c-4.6,34-14.7,57.3-32.7,75.3s-41.3,28.2-75.3,32.7
		C550.8,758.3,515.5,758.3,466.7,758.3z M333.3,758.3c-48.9,0-84.2,0-113.1-3.9c-34-4.6-57.3-14.7-75.3-32.7
		c-18.1-18.1-28.2-41.3-32.7-75.3c-3.9-28.9-3.9-64.2-3.9-113.1V266.7c0-48.9,0-84.2,3.9-113.1c4.6-34,14.7-57.3,32.7-75.3
		c18.1-18.1,41.3-28.2,75.3-32.7c28.9-3.9,64.2-3.9,113.1-3.9h133.3c48.9,0,84.2,0,113.1,3.9c34,4.6,57.3,14.7,75.3,32.7
		c18.1,18.1,28.2,41.3,32.7,75.3c3.9,28.9,3.9,64.2,3.9,113.1c0,13.8-11.2,25-25,25c-13.8,0-25-11.2-25-25c0-87.3,0-131.1-22-153
		c-22-22-65.8-22-153-22H333.3c-87.3,0-131.1,0-153,22c-22,22-22,65.8-22,153v266.7c0,87.3,0,131.1,22,153c22,22,65.8,22,153,22
		c13.8,0,25,11.2,25,25C358.3,747.1,347.1,758.3,333.3,758.3z"/>
</g>
</svg>
