<?xml version="1.0" encoding="utf-8"?>
<!-- Generator: Adobe Illustrator 27.0.0, SVG Export Plug-In . SVG Version: 6.00 Build 0)  -->
<svg version="1.1" id="Layer_1" xmlns="http://www.w3.org/2000/svg" xmlns:xlink="http://www.w3.org/1999/xlink" x="0px" y="0px"
	 viewBox="0 0 800 800" style="enable-background:new 0 0 800 800;" xml:space="preserve">
<style type="text/css">
	.st0{fill:#231F20;}
</style>
<path class="st0" d="M375,566.7c0,13.8,11.2,25,25,25c13.8,0,25-11.2,25-25H375z M508.3,325c0,13.8,11.2,25,25,25s25-11.2,25-25
	H508.3z M241.7,325c0,13.8,11.2,25,25,25c13.8,0,25-11.2,25-25H241.7z M523.6,244.2l18.6-16.7l0,0L523.6,244.2z M316.7,541.7
	c-13.8,0-25,11.2-25,25c0,13.8,11.2,25,25,25V541.7z M500,591.7c13.8,0,25-11.2,25-25c0-13.8-11.2-25-25-25V591.7z M333.3,258.3H400
	v-50h-66.7V258.3z M400,258.3h66.7v-50H400V258.3z M425,566.7V233.3h-50v333.3H425z M508.3,307.4V325h50v-17.6H508.3z M241.7,307.4
	V325h50v-17.6H241.7z M466.7,258.3c16.5,0,26.1,0.1,32.9,1.1c3.1,0.5,4.5,1,5,1.2c0.3,0.2,0.3,0.2,0.4,0.3l37.2-33.4
	c-10.2-11.3-22.9-15.6-35.2-17.5c-11.3-1.7-25.3-1.6-40.3-1.6V258.3z M558.3,307.4c0-16.8,0-31.7-1.4-43.6
	c-1.5-12.4-5-25.4-14.8-36.3L505,260.9c0.1,0.1,0.4,0.4,0.8,1.5c0.5,1.3,1.1,3.5,1.5,7.4c1,8.2,1,19.5,1,37.6H558.3z M333.3,208.3
	c-14.9,0-28.9-0.1-40.3,1.6c-12.4,1.8-25.1,6.2-35.2,17.5l37.2,33.4c0.1-0.1,0.1-0.1,0.4-0.3c0.6-0.3,2-0.8,5-1.2
	c6.8-1,16.4-1.1,32.9-1.1V208.3z M291.7,307.4c0-18.1,0-29.4,1-37.6c0.5-3.9,1.1-6.1,1.5-7.4c0.4-1.1,0.7-1.4,0.8-1.5l-37.2-33.4
	c-9.8,10.9-13.3,23.9-14.8,36.3c-1.4,11.9-1.4,26.8-1.4,43.6H291.7z M316.7,591.7H500v-50H316.7V591.7z"/>
<g>
	<path class="st0" d="M400,758.3c-80.8,0-139.2,0-186.2-6.3c-52.9-7.1-88.6-22.5-116-49.8c-27.3-27.3-42.7-63.1-49.8-116
		c-6.3-47-6.3-105.4-6.3-186.2c0-80.8,0-139.2,6.3-186.2c7.1-52.9,22.5-88.6,49.8-116s63.1-42.7,116-49.8
		c47-6.3,105.4-6.3,186.2-6.3c80.8,0,139.2,0,186.2,6.3c52.9,7.1,88.6,22.5,116,49.8c40.1,40.1,50.7,96,54.3,167.6
		c0.7,13.8-9.9,25.5-23.7,26.2c-13.8,0.7-25.5-9.9-26.2-23.7c-3.6-72.9-14.4-109.5-39.7-134.8C625.3,91.7,550,91.7,400,91.7
		s-225.3,0-266.8,41.5S91.7,250,91.7,400s0,225.3,41.5,266.8c41.5,41.5,116.8,41.5,266.8,41.5s225.3,0,266.8-41.5
		c41.5-41.5,41.5-116.8,41.5-266.8c0-13.8,11.2-25,25-25c13.8,0,25,11.2,25,25c0,80.8,0,139.2-6.3,186.2
		c-7.1,52.9-22.5,88.6-49.8,116c-27.3,27.3-63.1,42.7-116,49.8C539.2,758.3,480.8,758.3,400,758.3z"/>
</g>
</svg>
