<?xml version="1.0" encoding="utf-8"?>
<!-- Generator: Adobe Illustrator 27.0.0, SVG Export Plug-In . SVG Version: 6.00 Build 0)  -->
<svg version="1.1" id="Layer_1" xmlns="http://www.w3.org/2000/svg" xmlns:xlink="http://www.w3.org/1999/xlink" x="0px" y="0px"
	 viewBox="0 0 800 800" style="enable-background:new 0 0 800 800;" xml:space="preserve">
<style type="text/css">
	.st0{fill:#231F20;}
</style>
<g>
	<path class="st0" d="M400,358.3c-87.3,0-158.3-71-158.3-158.3S312.7,41.7,400,41.7s158.3,71,158.3,158.3S487.3,358.3,400,358.3z
		 M400,91.7c-59.7,0-108.3,48.6-108.3,108.3S340.3,308.3,400,308.3S508.3,259.7,508.3,200S459.7,91.7,400,91.7z"/>
</g>
<g>
	<path class="st0" d="M400,758.3c-130.2,0-207-15.3-249.1-49.5c-19.5-15.9-31.8-36-37.7-61.4c-4.8-20.7-4.8-42.8-4.8-64
		c0-49.5,32.3-94.9,90.8-127.9c54-30.4,125.4-47.1,200.8-47.1c75.5,0,146.8,16.7,200.8,47.1c58.6,33,90.8,78.4,90.8,127.9
		c0,5.6,0,11.4-0.1,17.1c-0.2,13.7-11.4,24.6-25,24.6c-0.1,0-0.3,0-0.4,0c-13.8-0.2-24.8-11.6-24.6-25.4c0.1-5.3,0.1-10.6,0.1-16.3
		c0-30.6-23.2-60.6-65.4-84.3C529.6,472.8,467,458.3,400,458.3c-67,0-129.6,14.5-176.3,40.7c-42.1,23.7-65.4,53.6-65.4,84.3
		c0,42.8,1.1,68,24.1,86.7c31.7,25.8,102.8,38.3,217.5,38.3c69.6,0,122.2-4.5,160.8-13.9c13.4-3.2,26.9,5,30.2,18.4
		c3.2,13.4-5,26.9-18.4,30.2C530,753.3,473.6,758.3,400,758.3z"/>
</g>
</svg>
