<?xml version="1.0" encoding="utf-8"?>
<!-- Generator: Adobe Illustrator 27.0.0, SVG Export Plug-In . SVG Version: 6.00 Build 0)  -->
<svg version="1.1" id="Layer_1" xmlns="http://www.w3.org/2000/svg" xmlns:xlink="http://www.w3.org/1999/xlink" x="0px" y="0px"
	 viewBox="0 0 800 800" style="enable-background:new 0 0 800 800;" xml:space="preserve">
<style type="text/css">
	.st0{fill:#231F20;}
</style>
<g>
	<path class="st0" d="M400,625c-50.5,0-91.7-41.1-91.7-91.7s41.1-91.7,91.7-91.7s91.7,41.1,91.7,91.7S450.5,625,400,625z M400,491.7
		c-23,0-41.7,18.7-41.7,41.7c0,23,18.7,41.7,41.7,41.7c23,0,41.7-18.7,41.7-41.7C441.7,510.4,423,491.7,400,491.7z"/>
</g>
<g>
	<path class="st0" d="M533.3,758.3H500c-13.8,0-25-11.2-25-25s11.2-25,25-25h33.3c87.3,0,131.1,0,153-22c22-22,22-65.8,22-153
		s0-131.1-22-153s-65.8-22-153-22H266.7c-87.3,0-131.1,0-153,22s-22,65.8-22,153s0,131.1,22,153c22,22,65.8,22,153,22h100
		c13.8,0,25,11.2,25,25s-11.2,25-25,25h-100c-48.9,0-84.2,0-113.1-3.9c-34-4.6-57.3-14.7-75.3-32.7c-18.1-18.1-28.2-41.3-32.7-75.3
		c-3.9-28.9-3.9-64.2-3.9-113.1s0-84.2,3.9-113.1c4.6-34,14.7-57.3,32.7-75.3c18.1-18.1,41.3-28.2,75.3-32.7
		c28.9-3.9,64.2-3.9,113.1-3.9h266.7c48.9,0,84.2,0,113.1,3.9c34,4.6,57.3,14.7,75.3,32.7s28.2,41.3,32.7,75.3
		c3.9,28.9,3.9,64.2,3.9,113.1s0,84.2-3.9,113.1c-4.6,34-14.7,57.3-32.7,75.3s-41.3,28.2-75.3,32.7
		C617.5,758.3,582.2,758.3,533.3,758.3z"/>
</g>
<g>
	<path class="st0" d="M200,358.3c-13.8,0-25-11.2-25-25v-66.7c0-12.6,1-25.2,3.1-37.5c2.3-13.6,15.2-22.8,28.8-20.5
		c13.6,2.3,22.8,15.2,20.5,28.8c-1.6,9.6-2.4,19.4-2.4,29.2v66.7C225,347.1,213.8,358.3,200,358.3z M593.7,241.7
		c-11.1,0-21.3-7.5-24.2-18.8C549.6,145.6,479.9,91.7,400,91.7c-49.7,0-97.3,21.3-130.4,58.3c-9.2,10.3-25,11.2-35.3,2
		c-10.3-9.2-11.2-25-2-35.3C275,69,336.1,41.7,400,41.7c102.7,0,192.3,69.4,217.9,168.8c3.4,13.4-4.6,27-18,30.4
		C597.8,241.4,595.7,241.7,593.7,241.7z"/>
</g>
</svg>
