<?xml version="1.0" encoding="utf-8"?>
<!-- Generator: Adobe Illustrator 27.0.0, SVG Export Plug-In . SVG Version: 6.00 Build 0)  -->
<svg version="1.1" id="Layer_1" xmlns="http://www.w3.org/2000/svg" xmlns:xlink="http://www.w3.org/1999/xlink" x="0px" y="0px"
	 viewBox="0 0 800 800" style="enable-background:new 0 0 800 800;" xml:space="preserve">
<style type="text/css">
	.st0{fill:#231F20;}
</style>
<g>
	<path class="st0" d="M457.1,558.3H323.8c-45.3,0-82.1-35-82.1-77.9c0-36.9,27.2-67.9,63.5-75.9c0-0.2,0-0.4,0-0.6
		c0-52.7,45.4-95.6,101.2-95.6c46,0,85.3,29,97.4,69.5c33.2,16.2,54.6,48.8,54.6,84.9C558.3,515.5,512.9,558.3,457.1,558.3z
		 M323.8,452.5c-17.7,0-32.1,12.5-32.1,27.9s14.4,27.9,32.1,27.9h133.3c28.2,0,51.2-20.5,51.2-45.6c0-19-13.4-36.2-33.5-42.8
		c-0.3-0.1-0.6-0.2-0.8-0.3c-5.4-1.7-11.1-2.5-16.9-2.5c-6.1,0-12,0.9-17.6,2.8c-13.1,4.3-27.2-2.9-31.5-16s2.9-27.2,16-31.5
		c4.9-1.6,9.9-2.8,15-3.7c-8.9-6.5-20.2-10.4-32.6-10.4c-28.2,0-51.2,20.4-51.2,45.6c0,1.5,0.1,3,0.2,4.5c4.6,1.8,9.1,4.1,13.3,6.7
		c11.7,7.3,15.3,22.7,8.1,34.4c-7.3,11.7-22.7,15.3-34.4,8.1c-3.5-2.2-7.4-3.7-11.6-4.5c-0.2,0-0.4-0.1-0.6-0.1
		C328,452.6,325.9,452.5,323.8,452.5z"/>
</g>
<g>
	<path class="st0" d="M466.7,758.3H333.3c-64.8,0-111.7,0-149.6-5.1c-43.5-5.8-73-18.6-95.7-41.3s-35.4-52.2-41.3-95.7
		c-5.1-38-5.1-84.8-5.1-149.6v-100c0-13.8,11.2-25,25-25s25,11.2,25,25v100c0,118.7,0,178.2,31.7,209.9s91.3,31.7,209.9,31.7h133.3
		c118.7,0,178.2,0,209.9-31.7c25.4-25.1,30.6-68,31.6-143.5c0.2-13.8,11.5-24.8,25.4-24.6c13.8,0.2,24.8,11.6,24.6,25.4
		c-1.3,89-8.8,140.9-46.1,178.3c-22.7,22.7-52.2,35.4-95.7,41.3C578.3,758.3,531.5,758.3,466.7,758.3z M733.3,418.3
		c-13.8,0-25-11.2-25-25c0-81.2,0-122-19.2-143.4c-1.8-2-3.7-3.8-5.6-5.6C662.1,225,621.3,225,540.1,225h-12.5
		c-40.7,0-61.2,0-82.5-6.1c-11.7-3.3-23-8-33.6-13.9c-19.3-10.8-33.8-25.2-62.6-54l-18.3-18.3c-8.6-8.6-12.8-12.8-16.7-16.1
		c-16.8-14-37.3-22.4-59-24.5c-5-0.5-11.1-0.5-23.2-0.5c-27.8,0-41.8,0-51.7,1.9c-44.1,8.3-78,42.2-86.4,86.4
		c-1.9,10-1.9,23.9-1.9,51.7c0,13.8-11.2,25-25,25s-25-11.2-25-25c0-30.9,0-46.5,2.7-61c5.9-31.4,21-60,43.6-82.6
		s51.2-37.7,82.6-43.6c14.5-2.7,30.1-2.7,61-2.7c13.6,0,20.5,0,27.9,0.7c31.8,3,61.7,15.3,86.3,35.7c5.7,4.7,10.5,9.6,20.2,19.2
		l18.3,18.3c25.5,25.5,38.3,38.3,51.5,45.7c7.3,4,15,7.2,23,9.5c14.6,4.1,32.7,4.1,68.7,4.1H540c45.5,0,78.3,0,105.4,3.4
		c31.8,4,53.9,12.8,71.5,28.7c3.3,2.9,6.4,6.1,9.4,9.4C742.1,234,751,256,755,287.9c3.4,27.1,3.4,59.9,3.4,105.4
		C758.3,407.1,747.1,418.3,733.3,418.3z"/>
</g>
</svg>
