<?xml version="1.0" encoding="utf-8"?>
<!-- Generator: Adobe Illustrator 27.0.0, SVG Export Plug-In . SVG Version: 6.00 Build 0)  -->
<svg version="1.1" id="Layer_1" xmlns="http://www.w3.org/2000/svg" xmlns:xlink="http://www.w3.org/1999/xlink" x="0px" y="0px"
	 viewBox="0 0 800 800" style="enable-background:new 0 0 800 800;" xml:space="preserve">
<style type="text/css">
	.st0{fill:#231F20;}
</style>
<g>
	<path class="st0" d="M346,558.3c-8.5,0-16.1-2.5-22.6-7.5c-14.6-11.1-15.4-28.1-15.6-33.7c-0.4-9,0.6-19.4,2-33.7l0.7-6.8
		c0.1-1.5,0.3-3.2,0.4-4.5c-0.8-1-1.8-2.1-2.7-3.2l-4.3-5.1c-9.2-10.8-15.9-18.5-20.7-26.2c-2.9-4.7-11.9-18.9-6.4-36.3
		c3.7-11.9,12.6-20.7,26.5-26.2c8.3-3.3,18.1-5.5,31.7-8.6l6.4-1.4c1.1-0.2,2.2-0.5,3.3-0.8c0.6-1,1.3-2.2,1.9-3.3l3.3-5.9
		c6.9-12.5,12-21.5,17.4-28.6c9.3-12.2,20.4-18.3,32.9-18.3c12.5,0,23.6,6.2,32.9,18.3c5.5,7.1,10.5,16.1,17.4,28.6l3.3,5.9
		c0.6,1.1,1.3,2.3,1.9,3.4c1.1,0.2,2.2,0.5,3.3,0.8l6.4,1.4c13.6,3.1,23.4,5.3,31.7,8.6c13.9,5.5,22.8,14.3,26.5,26.1
		c5.4,17.5-3.5,31.7-6.4,36.3c-4.8,7.6-11.4,15.4-20.6,26.2l-4.4,5.1c-0.9,1.1-1.9,2.2-2.7,3.2c0.1,1.3,0.3,3,0.4,4.5l0.7,6.8
		c1.4,14.3,2.4,24.7,2,33.7c-0.2,5.6-1,22.6-15.6,33.7c-10.1,7.7-22.7,9.4-37.3,5.2c-8.6-2.5-17.7-6.7-30.4-12.5l-6-2.7
		c-0.9-0.4-1.9-0.9-2.8-1.3c-0.9,0.4-1.9,0.9-2.8,1.3l-6,2.8c-12.7,5.8-21.9,10.1-30.4,12.5C355.6,557.6,350.7,558.3,346,558.3z
		 M400,488.6c8.9,0,15.5,3,23.7,6.8l6,2.8c4,1.8,8.3,3.8,12.1,5.5c-0.4-4.8-0.9-10.2-1.4-15.3l-0.7-6.8c-0.9-9-1.6-16.2,1-24.4
		c2.6-8.4,7.2-13.8,13.1-20.6l4.3-5.1c3.6-4.2,7.4-8.6,10.5-12.5c-4.5-1.1-9.7-2.3-14.6-3.4l-6.4-1.4c-8.5-1.9-15.8-3.6-22.9-9
		c-7-5.3-10.5-11.6-14.9-19.6l-3.3-5.9c-2.2-3.9-4.5-8-6.6-11.8c-2.1,3.7-4.4,7.8-6.6,11.8l-3.3,5.9c-4.4,8-7.9,14.3-14.9,19.6
		c-7.1,5.4-14.4,7.1-22.9,9l-6.4,1.4c-4.9,1.1-10.2,2.3-14.7,3.4c3.1,3.9,7,8.3,10.5,12.5l4.3,5.1c5.9,6.8,10.5,12.3,13.1,20.6
		c2.6,8.3,1.9,15.4,1,24.4l-0.7,6.8c-0.5,5.1-1,10.6-1.4,15.3c3.9-1.7,8.1-3.6,12.1-5.5l6-2.7C384.5,491.6,391.1,488.6,400,488.6z"
		/>
</g>
<g>
	<path class="st0" d="M466.7,758.3H333.3c-64.8,0-111.7,0-149.6-5.1c-43.5-5.8-73-18.6-95.7-41.3c-22.7-22.7-35.4-52.2-41.3-95.7
		c-5.1-38-5.1-84.8-5.1-149.6v-100c0-13.8,11.2-25,25-25c13.8,0,25,11.2,25,25v100c0,118.7,0,178.2,31.7,209.9
		c31.7,31.7,91.3,31.7,209.9,31.7h133.3c118.7,0,178.2,0,209.9-31.7C701.8,651.4,707,608.5,708,533c0.2-13.8,11.5-24.8,25.4-24.6
		c13.8,0.2,24.8,11.6,24.6,25.4c-1.3,89-8.8,140.9-46.1,178.3c-22.7,22.7-52.2,35.4-95.7,41.3C578.3,758.3,531.5,758.3,466.7,758.3z
		 M733.3,418.3c-13.8,0-25-11.2-25-25c0-81.2,0-122-19.2-143.4c-1.8-2-3.7-3.8-5.6-5.6C662.1,225,621.3,225,540.1,225h-12.5
		c-40.7,0-61.2,0-82.5-6.1c-11.7-3.3-23-8-33.6-13.9c-19.3-10.8-33.8-25.2-62.6-54l-18.3-18.3c-8.6-8.6-12.8-12.8-16.7-16.1
		c-16.8-14-37.3-22.4-59-24.5c-5-0.5-11.1-0.5-23.2-0.5c-27.8,0-41.8,0-51.7,1.9c-44.1,8.3-78,42.2-86.4,86.4
		c-1.9,10-1.9,23.9-1.9,51.7c0,13.8-11.2,25-25,25c-13.8,0-25-11.2-25-25c0-30.9,0-46.5,2.7-61c5.9-31.4,21-60,43.6-82.6
		c22.6-22.6,51.2-37.7,82.6-43.6c14.5-2.7,30.1-2.7,61-2.7c13.6,0,20.5,0,27.9,0.7c31.8,3,61.7,15.3,86.3,35.7
		c5.7,4.7,10.5,9.6,20.2,19.2l18.3,18.3c25.5,25.5,38.3,38.3,51.5,45.7c7.3,4,15,7.2,23,9.5c14.6,4.1,32.7,4.1,68.7,4.1h12.5
		c45.5,0,78.3,0,105.4,3.4c31.8,4,53.9,12.8,71.5,28.7c3.3,2.9,6.4,6.1,9.4,9.4c15.8,17.6,24.7,39.6,28.7,71.5
		c3.4,27.1,3.4,59.9,3.4,105.4C758.3,407.1,747.1,418.3,733.3,418.3z"/>
</g>
</svg>
