<?xml version="1.0" encoding="utf-8"?>
<!-- Generator: Adobe Illustrator 27.0.0, SVG Export Plug-In . SVG Version: 6.00 Build 0)  -->
<svg version="1.1" id="Layer_1" xmlns="http://www.w3.org/2000/svg" xmlns:xlink="http://www.w3.org/1999/xlink" x="0px" y="0px"
	 viewBox="0 0 800 800" style="enable-background:new 0 0 800 800;" xml:space="preserve">
<style type="text/css">
	.st0{fill:#231F20;}
</style>
<g>
	<path class="st0" d="M600,358.3H433.3c-13.8,0-25-11.2-25-25s11.2-25,25-25H600c13.8,0,25,11.2,25,25S613.8,358.3,600,358.3z"/>
</g>
<g>
	<path class="st0" d="M691.7,216.7h-50c0-13.9,0-21.6-0.6-26.4c-4.4-33.6-31-60.2-64.6-64.6c-4.9-0.6-12.5-0.6-26.5-0.6H333.3V75
		H550c16.6,0,24.9,0,33,1.1c56,7.4,100.2,51.6,107.6,107.6C691.7,191.8,691.7,200.1,691.7,216.7z"/>
</g>
<g>
	<path class="st0" d="M466.7,758.3H333.3c-64.8,0-111.7,0-149.6-5.1c-43.5-5.8-73-18.6-95.7-41.3c-22.7-22.7-35.4-52.2-41.3-95.7
		c-5.1-38-5.1-84.8-5.1-149.6v-100c0-13.8,11.2-25,25-25c13.8,0,25,11.2,25,25v100c0,118.7,0,178.2,31.7,209.9
		c31.7,31.7,91.3,31.7,209.9,31.7h133.3c118.7,0,178.2,0,209.9-31.7C701.8,651.4,707,608.5,708,533c0.2-13.8,11.5-24.8,25.4-24.6
		c13.8,0.2,24.8,11.6,24.6,25.4c-1.3,89-8.8,140.9-46.1,178.3c-22.7,22.7-52.2,35.4-95.7,41.3C578.3,758.3,531.5,758.3,466.7,758.3z
		 M733.3,418.3c-13.8,0-25-11.2-25-25c0-81.2,0-122-19.2-143.4c-1.8-2-3.7-3.8-5.6-5.6C662.1,225,621.3,225,540.1,225h-12.5
		c-40.7,0-61.2,0-82.5-6.1c-11.7-3.3-23-8-33.6-13.9c-19.3-10.8-33.8-25.2-62.6-54l-18.3-18.3c-8.6-8.6-12.8-12.8-16.7-16.1
		c-16.8-14-37.3-22.4-59-24.5c-5-0.5-11.1-0.5-23.2-0.5c-27.8,0-41.8,0-51.7,1.9c-44.1,8.3-78,42.2-86.4,86.4
		c-1.9,10-1.9,23.9-1.9,51.7c0,13.8-11.2,25-25,25c-13.8,0-25-11.2-25-25c0-30.9,0-46.5,2.7-61c5.9-31.4,21-60,43.6-82.6
		c22.6-22.6,51.2-37.7,82.6-43.6c14.5-2.7,30.1-2.7,61-2.7c13.6,0,20.5,0,27.9,0.7c31.8,3,61.7,15.3,86.3,35.7
		c5.7,4.7,10.5,9.6,20.2,19.2l18.3,18.3c25.5,25.5,38.3,38.3,51.5,45.7c7.3,4,15,7.2,23,9.5c14.6,4.1,32.7,4.1,68.7,4.1h12.5
		c45.5,0,78.3,0,105.4,3.4c31.8,4,53.9,12.8,71.5,28.7c3.3,2.9,6.4,6.1,9.4,9.4c15.8,17.6,24.7,39.6,28.7,71.5
		c3.4,27.1,3.4,59.9,3.4,105.4C758.3,407.1,747.1,418.3,733.3,418.3z"/>
</g>
</svg>
