<?xml version="1.0" encoding="utf-8"?>
<!-- Generator: Adobe Illustrator 27.0.0, SVG Export Plug-In . SVG Version: 6.00 Build 0)  -->
<svg version="1.1" id="Layer_1" xmlns="http://www.w3.org/2000/svg" xmlns:xlink="http://www.w3.org/1999/xlink" x="0px" y="0px"
	 viewBox="0 0 800 800" style="enable-background:new 0 0 800 800;" xml:space="preserve">
<style type="text/css">
	.st0{fill:#231F20;}
</style>
<g>
	<path class="st0" d="M666.7,408.3c-13.8,0-25-11.2-25-25v-71.7c0-63.1-0.5-89.2-13.6-102.8c-1.3-1.3-2.6-2.6-4-3.8
		c-15.8-13.4-50-13.4-112-13.4h-10c-31.9,0-49.4,0-66.9-4.7c-9.6-2.6-19-6.2-27.7-10.8c-16.1-8.4-28.5-20.1-51.2-41.3l-14.7-13.8
		c-6.7-6.3-10.1-9.5-13-11.7c-12.8-9.9-28.3-16-45-17.4c-3.9-0.3-8.7-0.3-18.2-0.3c-22,0-33.1,0-40.7,1.4
		c-32.7,5.8-58.8,29.9-64.9,60c-0.7,3.3-1,7.6-1.2,14.3c-0.2,5.9-0.2,13.5-0.2,23.1c0,13.8-11.2,25-25,25c-13.8,0-25-11.2-25-25
		c0-9.9,0-17.8,0.2-24.4c0.3-9.7,0.9-16.5,2.2-22.8c5-25,17.8-47.6,36.8-65.5c18.8-17.6,42.4-29.3,68.4-33.9
		c12-2.1,24.5-2.1,49.5-2.1c10.7,0,16.6,0,22.6,0.5c26.2,2.3,50.9,11.9,71.3,27.7c4.8,3.7,8.9,7.6,16.5,14.7l14.7,13.8
		c20.1,18.8,30.1,28.2,40.1,33.5c5.5,2.9,11.4,5.2,17.5,6.8c11.2,3,25.5,3,54,3h10c73.8,0,114.4,0,144.2,25.1
		c2.8,2.3,5.4,4.8,7.9,7.4c27.5,28.6,27.5,67.3,27.5,137.4v71.7C691.7,397.1,680.5,408.3,666.7,408.3z M133.3,408.3
		c-13.8,0-25-11.2-25-25V300c0-13.8,11.2-25,25-25c13.8,0,25,11.2,25,25v83.3C158.3,397.1,147.1,408.3,133.3,408.3z"/>
</g>
<g>
	<path class="st0" d="M466.7,591.7H333.3c-13.8,0-25-11.2-25-25s11.2-25,25-25h133.3c13.8,0,25,11.2,25,25S480.5,591.7,466.7,591.7z
		"/>
</g>
<g>
	<path class="st0" d="M509.8,758.3H290.2c-66.9,0-103.7,0-134.1-20.6c-7.9-5.3-15.1-11.6-21.6-18.6c-24.8-27-30.9-62.1-43.2-132
		c-17-96.5-25.5-144.9-1.5-185.4c6.2-10.4,13.7-19.8,22.5-27.9c17.2-15.9,39.2-24.7,71.3-28.7c27.2-3.4,60.5-3.4,106.5-3.4h43.2
		c13.8,0,25,11.2,25,25c0,13.8-11.2,25-25,25h-43.2c-82.3,0-123.6,0-143.9,18.8c-5.2,4.9-9.8,10.5-13.5,16.7
		c-14.6,24.6-7.1,66.9,7.7,151.3c10.6,60.3,15.9,90.6,30.8,106.8c3.8,4.2,8.1,7.9,12.8,11c17.8,12,47.3,12,106.1,12h219.6
		c58.8,0,88.3,0,106.1-12c4.6-3.1,8.9-6.8,12.8-11c14.9-16.2,20.2-46.5,30.8-106.8c14.8-84.4,22.3-126.7,7.7-151.3
		c-3.7-6.2-8.2-11.9-13.5-16.7c-20.3-18.8-61.6-18.8-143.9-18.8h-43.2c-13.8,0-25-11.2-25-25c0-13.8,11.2-25,25-25h43.2
		c46.1,0,79.3,0,106.5,3.4c32.2,4,54.1,12.8,71.3,28.7c8.8,8.1,16.4,17.5,22.5,27.9c24,40.5,15.5,88.9-1.5,185.4
		c-12.3,69.9-18.4,105-43.2,132c-6.5,7-13.7,13.3-21.6,18.6C613.5,758.3,576.7,758.3,509.8,758.3z"/>
</g>
</svg>
