<?xml version="1.0" encoding="utf-8"?>
<!-- Generator: Adobe Illustrator 27.0.0, SVG Export Plug-In . SVG Version: 6.00 Build 0)  -->
<svg version="1.1" id="Layer_1" xmlns="http://www.w3.org/2000/svg" xmlns:xlink="http://www.w3.org/1999/xlink" x="0px" y="0px"
	 viewBox="0 0 800 800" style="enable-background:new 0 0 800 800;" xml:space="preserve">
<g>
	<g>
		<path d="M654,694.7H146c-52.2,0-94.7-42.5-94.7-94.7V253.3c0-15.5,12.5-28,28-28H654c52.2,0,94.7,42.5,94.7,94.7v280
			C748.7,652.2,706.2,694.7,654,694.7z M107.3,281.3V600c0,21.3,17.3,38.7,38.7,38.7h508c21.3,0,38.7-17.3,38.7-38.7V320
			c0-21.3-17.3-38.7-38.7-38.7H107.3z"/>
		<path d="M654,703.2H146c-56.9,0-103.2-46.3-103.2-103.2V253.3c0-20.1,16.4-36.5,36.5-36.5H654c56.9,0,103.2,46.3,103.2,103.2v280
			C757.2,656.9,710.9,703.2,654,703.2z M79.3,233.8c-10.8,0-19.5,8.7-19.5,19.5V600c0,47.5,38.7,86.2,86.2,86.2h508
			c47.5,0,86.2-38.7,86.2-86.2V320c0-47.5-38.7-86.2-86.2-86.2H79.3z M654,647.2H146c-26,0-47.2-21.2-47.2-47.2V272.8H654
			c26,0,47.2,21.2,47.2,47.2v280C701.2,626,680,647.2,654,647.2z M115.8,289.8V600c0,16.7,13.5,30.2,30.2,30.2h508
			c16.7,0,30.2-13.5,30.2-30.2V320c0-16.7-13.5-30.2-30.2-30.2H115.8z"/>
	</g>
</g>
<g>
	<g>
		<path d="M79.3,384.7c-15.5,0-28-12.5-28-28v-177c0-0.3,0-0.6,0-0.9c1-31.9,27.7-57.2,59.6-56.8H417c15.3,0,29.9,5.7,41.2,15.9
			c2.1,1.9,4,4.2,5.4,6.7l54.7,94.7c7.7,13.4,3.1,30.5-10.2,38.2c-13.4,7.7-30.5,3.1-38.2-10.2l-51.5-89.2c-0.4-0.1-0.9-0.2-1.3-0.2
			H110.7c-0.2,0-0.4,0-0.6,0c-1.4,0-2.6,1-2.7,2.4v176.3C107.3,372.1,94.8,384.7,79.3,384.7z"/>
		<path d="M79.3,393.2c-20.1,0-36.5-16.4-36.5-36.5l0-178.2c1.1-36.3,31.7-65.4,68.1-65h306c17.3,0,34,6.4,46.9,18.1
			c2.9,2.6,5.3,5.6,7.1,8.8l54.7,94.7c10,17.4,4,39.8-13.3,49.8c-17.4,10-39.8,4-49.8-13.3l-49.2-85.2H115.9v170.2
			C115.8,376.8,99.4,393.2,79.3,393.2z M59.8,178.9v177.8c0,10.8,8.7,19.5,19.5,19.5c10.7,0,19.5-8.8,19.6-19.7V180l0-0.3
			c0.4-5.8,5.3-10.3,11.2-10.3h307c1,0,2.1,0.1,3.4,0.5l3.5,0.9l53.3,92.3c5.4,9.3,17.3,12.4,26.6,7.1c9.2-5.3,12.4-17.3,7.1-26.6
			l-54.7-94.8c-0.9-1.6-2.2-3.2-3.7-4.5c-9.8-8.8-22.4-13.7-35.5-13.7l-306.2,0c-0.2,0-0.4,0-0.6,0
			C83.2,130.5,60.7,152.1,59.8,178.9z"/>
	</g>
</g>
</svg>
