<?xml version="1.0" encoding="utf-8"?>
<!-- Generator: Adobe Illustrator 27.0.0, SVG Export Plug-In . SVG Version: 6.00 Build 0)  -->
<svg version="1.1" id="Layer_1" xmlns="http://www.w3.org/2000/svg" xmlns:xlink="http://www.w3.org/1999/xlink" x="0px" y="0px"
	 viewBox="0 0 800 800" style="enable-background:new 0 0 800 800;" xml:space="preserve">
<g>
	<path d="M225,375c-56.7,0-92.5-10.5-116-34c-23.5-23.5-34-59.3-34-116s10.5-92.5,34-116c23.5-23.5,59.3-34,116-34s92.5,10.5,116,34
		c23.5,23.5,34,59.3,34,116s-10.5,92.5-34,116C317.5,364.5,281.7,375,225,375z M225,125c-42.4,0-67.3,6-80.7,19.3
		C131,157.7,125,182.6,125,225s6,67.3,19.3,80.7C157.7,319,182.6,325,225,325s67.3-6,80.7-19.3C319,292.3,325,267.4,325,225
		s-6-67.3-19.3-80.7C292.3,131,267.4,125,225,125z"/>
</g>
<g>
	<path d="M225,725c-56.7,0-92.5-10.5-116-34c-23.5-23.5-34-59.3-34-116s10.5-92.5,34-116c23.5-23.5,59.3-34,116-34s92.5,10.5,116,34
		c23.5,23.5,34,59.3,34,116s-10.5,92.5-34,116C317.5,714.5,281.7,725,225,725z M225,475c-42.4,0-67.3,6-80.7,19.3
		C131,507.7,125,532.6,125,575s6,67.3,19.3,80.7C157.7,669,182.6,675,225,675s67.3-6,80.7-19.3C319,642.3,325,617.4,325,575
		s-6-67.3-19.3-80.7C292.3,481,267.4,475,225,475z"/>
</g>
<g>
	<path d="M575,725c-56.7,0-92.5-10.5-116-34s-34-59.3-34-116s10.5-92.5,34-116s59.3-34,116-34s92.5,10.5,116,34s34,59.3,34,116
		s-10.5,92.5-34,116S631.7,725,575,725z M575,475c-42.4,0-67.3,6-80.7,19.3C481,507.7,475,532.6,475,575s6,67.3,19.3,80.7
		C507.7,669,532.6,675,575,675s67.3-6,80.7-19.3C669,642.3,675,617.4,675,575s-6-67.3-19.3-80.7C642.3,481,617.4,475,575,475z"/>
</g>
<g>
	<path d="M575,375c-56.7,0-92.5-10.5-116-34c-23.5-23.5-34-59.3-34-116s10.5-92.5,34-116c23.5-23.5,59.3-34,116-34s92.5,10.5,116,34
		c23.5,23.5,34,59.3,34,116s-10.5,92.5-34,116C667.5,364.5,631.7,375,575,375z M575,125c-42.4,0-67.3,6-80.7,19.3
		C481,157.7,475,182.6,475,225s6,67.3,19.3,80.7C507.7,319,532.6,325,575,325s67.3-6,80.7-19.3C669,292.3,675,267.4,675,225
		s-6-67.3-19.3-80.7C642.3,131,617.4,125,575,125z"/>
</g>
</svg>
