<?xml version="1.0" encoding="utf-8"?>
<!-- Generator: Adobe Illustrator 27.0.0, SVG Export Plug-In . SVG Version: 6.00 Build 0)  -->
<svg version="1.1" id="Layer_1" xmlns="http://www.w3.org/2000/svg" xmlns:xlink="http://www.w3.org/1999/xlink" x="0px" y="0px"
	 viewBox="0 0 800 800" style="enable-background:new 0 0 800 800;" xml:space="preserve">
<g>
	<path d="M400,358.3c-63.1,0-126.4-1.5-178.4-4.1c-80.7-4.1-92.8-8.8-97.4-10.6c-15.8-6.1-28.5-23-37.6-50.2
		C79.2,271,75,243.7,75,216.7c0-27,4.2-54.3,11.7-76.8c9.1-27.2,21.7-44,37.6-50.2c4.6-1.8,16.7-6.5,97.4-10.6
		C273.6,76.4,336.9,75,400,75c63.1,0,126.4,1.5,178.3,4.1c80.7,4.1,92.8,8.8,97.4,10.6c15.8,6.2,28.4,23,37.6,50.2
		c7.6,22.5,11.7,49.8,11.7,76.8c0,27-4.2,54.3-11.7,76.8c-9.1,27.2-21.7,44-37.6,50.2c-4.6,1.8-16.7,6.5-97.4,10.6
		C526.4,356.9,463.1,358.3,400,358.3z M143.6,297.3c18.5,4.2,114.4,11,256.4,11c142,0,237.9-6.8,256.4-11c6-6.9,18.6-37.2,18.6-80.7
		s-12.7-73.8-18.6-80.7c-18.5-4.2-114.4-11-256.4-11c-142,0-237.9,6.8-256.4,11c-6,6.9-18.6,37.2-18.6,80.7
		C125,260.1,137.7,290.5,143.6,297.3z M655.5,298.2C655.5,298.2,655.5,298.2,655.5,298.2L655.5,298.2z M144.5,298.2
		C144.5,298.2,144.5,298.2,144.5,298.2L144.5,298.2z M144.5,135.1C144.5,135.1,144.5,135.1,144.5,135.1
		C144.5,135.1,144.5,135.1,144.5,135.1z M655.5,135.1C655.5,135.1,655.5,135.1,655.5,135.1S655.5,135.1,655.5,135.1z"/>
</g>
<g>
	<path d="M400,725c-63.1,0-126.4-1.4-178.4-4.1c-80.7-4.1-92.8-8.8-97.4-10.6c-15.8-6.1-28.4-23-37.6-50.2
		C79.2,637.6,75,610.3,75,583.3s4.2-54.3,11.7-76.8c9.1-27.2,21.7-44,37.6-50.2c4.6-1.8,16.7-6.5,97.4-10.6
		c51.9-2.6,115.2-4.1,178.4-4.1s126.4,1.5,178.3,4.1c80.7,4.1,92.8,8.8,97.4,10.6c15.8,6.1,28.4,23,37.6,50.2
		c7.6,22.5,11.7,49.8,11.7,76.8s-4.2,54.3-11.7,76.8c-9.1,27.2-21.7,44-37.6,50.2c-4.6,1.8-16.7,6.5-97.4,10.6
		C526.4,723.6,463.1,725,400,725z M143.6,664c18.5,4.2,114.4,11,256.4,11c142,0,237.9-6.8,256.4-11c6-6.9,18.6-37.2,18.6-80.7
		c0-43.5-12.7-73.8-18.6-80.7c-18.5-4.2-114.4-11-256.4-11c-142,0-237.9,6.8-256.4,11c-6,6.9-18.6,37.2-18.6,80.7
		S137.7,657.2,143.6,664z M655.5,664.9C655.5,664.9,655.5,664.9,655.5,664.9L655.5,664.9z M144.5,664.9
		C144.5,664.9,144.5,664.9,144.5,664.9C144.5,664.9,144.5,664.9,144.5,664.9z M655.5,501.8C655.5,501.8,655.5,501.8,655.5,501.8
		S655.5,501.8,655.5,501.8z"/>
</g>
</svg>
