<?xml version="1.0" encoding="utf-8"?>
<!-- Generator: Adobe Illustrator 27.0.0, SVG Export Plug-In . SVG Version: 6.00 Build 0)  -->
<svg version="1.1" id="Layer_1" xmlns="http://www.w3.org/2000/svg" xmlns:xlink="http://www.w3.org/1999/xlink" x="0px" y="0px"
	 viewBox="0 0 800 800" style="enable-background:new 0 0 800 800;" xml:space="preserve">
<style type="text/css">
	.st0{fill:#231F20;}
</style>
<g>
	<path class="st0" d="M400,591.7c-13.8,0-25-11.2-25-25v-173L317.7,451c-9.8,9.8-25.6,9.8-35.4,0c-9.8-9.8-9.8-25.6,0-35.4
		l99.9-99.9c0.2-0.2,0.4-0.4,0.6-0.6c0,0,0,0,0,0c0,0,0,0,0,0c0,0,0,0,0,0c0,0,0,0,0,0c2.2-2.1,4.8-3.7,7.5-4.8
		c2.9-1.2,6-1.8,9.2-1.9c0,0,0,0,0.1,0c0,0,0.1,0,0.1,0c0,0,0.1,0,0.1,0c0,0,0.1,0,0.1,0h0c0,0,0,0,0,0h0c0,0,0.1,0,0.1,0
		c0,0,0.1,0,0.1,0c0,0,0.1,0,0.1,0c0,0,0,0,0,0c3.3,0,6.4,0.7,9.2,1.9c2.7,1.1,5.2,2.7,7.5,4.8c0,0,0,0,0,0c0,0,0,0,0,0c0,0,0,0,0,0
		c0,0,0,0,0,0c0.2,0.2,0.4,0.4,0.6,0.6l99.9,99.9c9.8,9.8,9.8,25.6,0,35.4c-9.8,9.8-25.6,9.8-35.4,0L425,393.7v173
		C425,580.5,413.8,591.7,400,591.7z"/>
</g>
<g>
	<path class="st0" d="M533.3,258.3H266.7c-13.8,0-25-11.2-25-25s11.2-25,25-25h266.7c13.8,0,25,11.2,25,25S547.1,258.3,533.3,258.3z
		"/>
</g>
<g>
	<path class="st0" d="M400,758.3c-80.8,0-139.2,0-186.2-6.3c-52.9-7.1-88.6-22.5-116-49.8c-27.3-27.3-42.7-63.1-49.8-116
		c-6.3-47-6.3-105.4-6.3-186.2c0-80.8,0-139.2,6.3-186.2c7.1-52.9,22.5-88.6,49.8-116s63.1-42.7,116-49.8
		c47-6.3,105.4-6.3,186.2-6.3c80.8,0,139.2,0,186.2,6.3c52.9,7.1,88.6,22.5,116,49.8c40.1,40.1,50.7,96,54.3,167.6
		c0.7,13.8-9.9,25.5-23.7,26.2c-13.8,0.7-25.5-9.9-26.2-23.7c-3.6-72.9-14.4-109.5-39.7-134.8C625.3,91.7,550,91.7,400,91.7
		s-225.3,0-266.8,41.5S91.7,250,91.7,400s0,225.3,41.5,266.8c41.5,41.5,116.8,41.5,266.8,41.5s225.3,0,266.8-41.5
		c41.5-41.5,41.5-116.8,41.5-266.8c0-13.8,11.2-25,25-25c13.8,0,25,11.2,25,25c0,80.8,0,139.2-6.3,186.2
		c-7.1,52.9-22.5,88.6-49.8,116c-27.3,27.3-63.1,42.7-116,49.8C539.2,758.3,480.8,758.3,400,758.3z"/>
</g>
</svg>
