<?xml version="1.0" encoding="utf-8"?>
<!-- Generator: Adobe Illustrator 27.1.0, SVG Export Plug-In . SVG Version: 6.00 Build 0)  -->
<svg version="1.1" id="Layer_1" xmlns="http://www.w3.org/2000/svg" xmlns:xlink="http://www.w3.org/1999/xlink" x="0px" y="0px"
	 viewBox="0 0 800 800" style="enable-background:new 0 0 800 800;" xml:space="preserve">
<style type="text/css">
	.st0{fill:#231F20;}
</style>
<g>
	<path class="st0" d="M216.7,508.3c-59.7,0-108.3-48.6-108.3-108.3c0-13.8,11.2-25,25-25c13.8,0,25,11.2,25,25
		c0,32.2,26.2,58.3,58.3,58.3c32.2,0,58.3-26.2,58.3-58.3s-26.2-58.3-58.3-58.3c-13.8,0-25-11.2-25-25c0-13.8,11.2-25,25-25
		c59.7,0,108.3,48.6,108.3,108.3C325,459.7,276.4,508.3,216.7,508.3z"/>
</g>
<g>
	<path class="st0" d="M300,358.3c-7.9,0-15.6-3.7-20.5-10.7c-7.9-11.3-5.2-26.9,6.1-34.8l166.7-116.7c11.3-7.9,26.9-5.2,34.8,6.1
		c7.9,11.3,5.2,26.9-6.1,34.8L314.3,353.8C310,356.9,305,358.3,300,358.3z"/>
</g>
<g>
	<path class="st0" d="M466.6,608.3c-5,0-10-1.5-14.3-4.5L285.7,487.1c-11.3-7.9-14.1-23.5-6.1-34.8c7.9-11.3,23.5-14.1,34.8-6.1
		L481,562.9c11.3,7.9,14.1,23.5,6.1,34.8C482.3,604.6,474.5,608.3,466.6,608.3z"/>
</g>
<g>
	<path class="st0" d="M550,725c-13.8,0-25-11.2-25-25c0-13.8,11.2-25,25-25c32.2,0,58.3-26.2,58.3-58.3s-26.2-58.3-58.3-58.3
		s-58.3,26.2-58.3,58.3c0,13.8-11.2,25-25,25c-13.8,0-25-11.2-25-25c0-59.7,48.6-108.3,108.3-108.3s108.3,48.6,108.3,108.3
		C658.3,676.4,609.7,725,550,725z"/>
</g>
<g>
	<path class="st0" d="M549.8,291.6c-18.4,0-37-4.7-54-14.5c-25.1-14.5-43-37.8-50.5-65.8c-7.5-28-3.6-57.1,10.8-82.2
		c14.5-25.1,37.8-43,65.8-50.5c27.9-7.5,57.1-3.6,82.2,10.8c12,6.9,16.1,22.2,9.2,34.2s-22.2,16.1-34.2,9.1
		c-13.5-7.8-29.2-9.9-44.3-5.8c-15,4-27.6,13.7-35.4,27.2c-7.8,13.5-9.9,29.2-5.8,44.3c4,15.1,13.7,27.6,27.2,35.4
		c27.9,16.1,63.6,6.5,79.7-21.4c6.9-12,22.2-16.1,34.2-9.1c12,6.9,16.1,22.2,9.1,34.2C623.8,272.2,587.3,291.6,549.8,291.6z"/>
</g>
</svg>
