<?xml version="1.0" encoding="utf-8"?>
<!-- Generator: Adobe Illustrator 27.1.0, SVG Export Plug-In . SVG Version: 6.00 Build 0)  -->
<svg version="1.1" id="Layer_1" xmlns="http://www.w3.org/2000/svg" xmlns:xlink="http://www.w3.org/1999/xlink" x="0px" y="0px"
	 viewBox="0 0 800 800" style="enable-background:new 0 0 800 800;" xml:space="preserve">
<style type="text/css">
	.st0{fill:#231F20;}
</style>
<g>
	<path class="st0" d="M459.3,691.7h-87.9c-78.4,0-117.7,0-154.2-19.7c-36.7-19.8-58.9-54.4-99.2-117.1l-22.7-35.3
		C60.7,465.7,41.7,436,41.7,400s19-65.7,53.6-119.5l22.7-35.3c40.3-62.8,62.5-97.3,99.2-117.1c36.5-19.7,75.9-19.7,154.2-19.7h87.9
		c66.6,0,114.7,0,153.6,5.1c44.4,5.8,74.6,18.5,97.8,41c25.7,25,38.8,57.8,44.1,109.7c1.4,13.7-8.6,26-22.4,27.4
		c-0.9,0.1-1.7,0.1-2.5,0.1c-12.7,0-23.5-9.6-24.8-22.5c-4-39.7-12.5-62.6-29.2-78.9c-32.9-32-94.2-32-216.5-32h-87.9
		c-69.9,0-105.1,0-130.5,13.7c-25.3,13.6-43.9,42.5-80.8,100.1l-22.7,35.3c-30.4,47.4-45.7,71.1-45.7,92.5s15.3,45.1,45.7,92.5
		l22.7,35.3c37,57.6,55.5,86.5,80.9,100.1c25.4,13.7,60.5,13.7,130.5,13.7h87.9c122.3,0,183.6,0,216.5-32
		c32.6-31.7,32.6-91.2,32.6-209.7c0-13.8,11.2-25,25-25c13.8,0,25,11.2,25,25c0,64.9,0,111.7-5.3,149.7c-6,43.5-19.1,73.1-42.4,95.8
		c-23.2,22.6-53.3,35.2-97.8,41C574,691.7,525.9,691.7,459.3,691.7z"/>
</g>
<g>
	<path class="st0" d="M516.7,508.3c-6.4,0-12.8-2.4-17.7-7.3l-65.7-65.7L367.7,501c-9.8,9.8-25.6,9.8-35.4,0
		c-9.8-9.8-9.8-25.6,0-35.4L398,400l-65.7-65.7c-9.8-9.8-9.8-25.6,0-35.4c9.8-9.8,25.6-9.8,35.4,0l65.7,65.7L499,299
		c9.8-9.8,25.6-9.8,35.4,0c9.8,9.8,9.8,25.6,0,35.4L468.7,400l65.7,65.7c9.8,9.8,9.8,25.6,0,35.4
		C529.5,505.9,523.1,508.3,516.7,508.3z"/>
</g>
</svg>
