<?xml version="1.0" encoding="utf-8"?>
<!-- Generator: Adobe Illustrator 27.1.0, SVG Export Plug-In . SVG Version: 6.00 Build 0)  -->
<svg version="1.1" id="Layer_1" xmlns="http://www.w3.org/2000/svg" xmlns:xlink="http://www.w3.org/1999/xlink" x="0px" y="0px"
	 viewBox="0 0 800 800" style="enable-background:new 0 0 800 800;" xml:space="preserve">
<style type="text/css">
	.st0{fill:#231F20;}
</style>
<g>
	<path class="st0" d="M400,725c-73,0-125.7,0-168.2-5.7c-48.2-6.5-80.9-20.5-106-45.5C85.7,633.8,77,578.5,75,490.6
		c-0.3-13.8,10.6-25.2,24.4-25.6c13.8-0.3,25.2,10.6,25.6,24.4c2,86.4,11.1,124,36.1,148.9C197.8,675,265.4,675,400,675
		c134.6,0,202.2,0,238.9-36.6c25-24.9,34.1-62.5,36.1-148.9c0.3-13.8,11.8-24.8,25.6-24.4c13.8,0.3,24.7,11.8,24.4,25.6
		c-2,88-10.7,143.2-50.8,183.2c-25.1,25-57.8,39.1-106,45.5C525.7,725,473,725,400,725z M700,335c-13.5,0-24.7-10.8-25-24.4
		c-2-86.4-11.1-124-36.1-148.9c-20.9-20.9-51-30.5-107.3-34.3c-13.8-0.9-24.2-12.8-23.3-26.6s12.8-24.2,26.6-23.3
		c50.3,3.4,102,11.7,139.2,48.8c40.1,40,48.7,95.2,50.8,183.2c0.3,13.8-10.6,25.2-24.4,25.6C700.4,335,700.2,335,700,335z M100,335
		c-0.2,0-0.4,0-0.6,0c-13.8-0.3-24.7-11.8-24.4-25.6c2-88,10.7-143.2,50.8-183.2c25.1-25,57.8-39.1,106-45.5C274.3,75,327,75,400,75
		c13.8,0,25,11.2,25,25s-11.2,25-25,25c-134.6,0-202.2,0-238.9,36.6c-25,25-34.1,62.5-36.1,148.9C124.7,324.2,113.6,335,100,335z"/>
</g>
<g>
	<path class="st0" d="M533.3,291.7H266.7c-13.8,0-25-11.2-25-25s11.2-25,25-25h266.7c13.8,0,25,11.2,25,25S547.1,291.7,533.3,291.7z
		"/>
</g>
<g>
	<path class="st0" d="M400,558.3c-13.8,0-25-11.2-25-25V266.7c0-13.8,11.2-25,25-25c13.8,0,25,11.2,25,25v266.7
		C425,547.1,413.8,558.3,400,558.3z"/>
</g>
<g>
	<path class="st0" d="M733.3,425h-66.7c-13.8,0-25-11.2-25-25s11.2-25,25-25h66.7c13.8,0,25,11.2,25,25S747.1,425,733.3,425z"/>
</g>
<g>
	<path class="st0" d="M133.3,425H66.7c-13.8,0-25-11.2-25-25s11.2-25,25-25h66.7c13.8,0,25,11.2,25,25S147.1,425,133.3,425z"/>
</g>
</svg>
