<?xml version="1.0" encoding="utf-8"?>
<!-- Generator: Adobe Illustrator 27.1.0, SVG Export Plug-In . SVG Version: 6.00 Build 0)  -->
<svg version="1.1" id="Layer_1" xmlns="http://www.w3.org/2000/svg" xmlns:xlink="http://www.w3.org/1999/xlink" x="0px" y="0px"
	 viewBox="0 0 800 800" style="enable-background:new 0 0 800 800;" xml:space="preserve">
<style type="text/css">
	.st0{fill:#231F20;}
</style>
<g>
	<path class="st0" d="M500,758.3H400c-48.9,0-84.2,0-113.1-3.9c-34-4.6-57.3-14.7-75.3-32.7c-18.1-18.1-28.2-41.3-32.7-75.3
		c-3.9-28.9-3.9-64.2-3.9-113.1V366.7c0-48.9,0-84.2,3.9-113.1c4.6-34,14.7-57.3,32.7-75.3c18.1-18.1,41.3-28.2,75.3-32.7
		c28.9-3.9,64.2-3.9,113.1-3.9h100c48.9,0,84.2,0,113.1,3.9c34,4.6,57.3,14.7,75.3,32.7c33.5,33.5,36.1,80.9,36.6,154.9
		c0.1,13.8-11.1,25.1-24.9,25.1c0,0-0.1,0-0.1,0c-13.7,0-24.9-11.1-25-24.9C674.6,264,671.4,232,653,213.6c-22-22-65.8-22-153-22
		H400c-87.3,0-131.1,0-153,22c-22,22-22,65.8-22,153v166.7c0,87.3,0,131.1,22,153s65.8,22,153,22h100c87.3,0,131.1,0,153-22
		c22-22,22-65.8,22-153V500c0-13.8,11.2-25,25-25s25,11.2,25,25v33.3c0,48.9,0,84.2-3.9,113.1c-4.6,34-14.7,57.3-32.7,75.3
		s-41.3,28.2-75.3,32.7C584.2,758.3,548.9,758.3,500,758.3z"/>
</g>
<g>
	<path class="st0" d="M200,658.3c-68.9,0-125-56.1-125-125v-200c0-13.8,11.2-25,25-25s25,11.2,25,25v200c0,41.4,33.6,75,75,75
		c13.8,0,25,11.2,25,25C225,647.1,213.8,658.3,200,658.3z M103.4,225c-0.8,0-1.6,0-2.5-0.1c-13.7-1.4-23.8-13.6-22.4-27.3
		C83.6,145.7,96.4,113,121.4,88c22.7-22.7,52.2-35.4,95.7-41.3c38-5.1,84.8-5.1,149.6-5.1H500c68.9,0,125,56.1,125,125
		c0,13.8-11.2,25-25,25s-25-11.2-25-25c0-41.4-33.6-75-75-75H366.7c-118.7,0-178.2,0-209.9,31.7c-16.3,16.3-24.5,39.2-28.5,79
		C127,215.4,116.1,225,103.4,225z"/>
</g>
</svg>
