<?xml version="1.0" encoding="utf-8"?>
<!-- Generator: Adobe Illustrator 27.1.0, SVG Export Plug-In . SVG Version: 6.00 Build 0)  -->
<svg version="1.1" id="Layer_1" xmlns="http://www.w3.org/2000/svg" xmlns:xlink="http://www.w3.org/1999/xlink" x="0px" y="0px"
	 viewBox="0 0 800 800" style="enable-background:new 0 0 800 800;" xml:space="preserve">
<style type="text/css">
	.st0{fill:#231F20;}
</style>
<g>
	<path class="st0" d="M500,758.3H300c-48.9,0-84.2,0-113.1-3.9c-34-4.6-57.3-14.7-75.3-32.7c-18.1-18.1-28.2-41.3-32.7-75.3
		C75,617.5,75,582.2,75,533.3v-100c0-13.8,11.2-25,25-25s25,11.2,25,25v100c0,87.3,0,131.1,22,153c22,22,65.8,22,153,22h200
		c87.3,0,131.1,0,153-22c22-22,22-65.8,22-153c0-13.8,11.2-25,25-25s25,11.2,25,25c0,48.9,0,84.2-3.9,113.1
		c-4.6,34-14.7,57.3-32.7,75.3c-18.1,18.1-41.3,28.2-75.3,32.7C584.2,758.3,548.9,758.3,500,758.3z M700,425c-13.8,0-25-11.2-25-25
		v-66.7c0-87.3,0-131.1-22-153c-18.4-18.4-50.4-21.5-119.8-21.9c-13.8-0.1-24.9-11.3-24.9-25.1c0.1-13.8,11.3-24.9,25-24.9
		c0,0,0.1,0,0.1,0c74.1,0.4,121.4,3.1,154.9,36.6c18.1,18.1,28.2,41.3,32.7,75.3c3.9,28.9,3.9,64.2,3.9,113.1V400
		C725,413.8,713.8,425,700,425z M100.1,325c0,0-0.1,0-0.1,0c-13.8-0.1-24.9-11.3-24.9-25.1c0.4-74.1,3.1-121.4,36.6-154.9
		c33.5-33.5,80.9-36.1,154.9-36.6c0,0,0.1,0,0.1,0c13.7,0,24.9,11.1,25,24.9c0.1,13.8-11.1,25.1-24.9,25.1
		c-69.4,0.4-101.4,3.5-119.8,21.9c-18.4,18.4-21.5,50.4-21.9,119.8C125,313.9,113.8,325,100.1,325z"/>
</g>
<g>
	<path class="st0" d="M483.3,225H316.7c-41.4,0-75-33.6-75-75v-33.3c0-41.4,33.6-75,75-75h166.7c41.4,0,75,33.6,75,75V150
		C558.3,191.4,524.7,225,483.3,225z M316.7,91.7c-13.8,0-25,11.2-25,25V150c0,13.8,11.2,25,25,25h166.7c13.8,0,25-11.2,25-25v-33.3
		c0-13.8-11.2-25-25-25H316.7z"/>
</g>
</svg>
