<?xml version="1.0" encoding="utf-8"?>
<!-- Generator: Adobe Illustrator 27.1.0, SVG Export Plug-In . SVG Version: 6.00 Build 0)  -->
<svg version="1.1" id="Layer_1" xmlns="http://www.w3.org/2000/svg" xmlns:xlink="http://www.w3.org/1999/xlink" x="0px" y="0px"
	 viewBox="0 0 800 800" style="enable-background:new 0 0 800 800;" xml:space="preserve">
<style type="text/css">
	.st0{fill:#231F20;}
</style>
<g>
	<path class="st0" d="M220.6,758.3c-13.4,0-27.5-3.2-40.5-13.1c-23.8-18.1-28-46.1-29-68.5c-1.2-26,2-58.7,6.4-104.1l2.2-22.6
		c2.2-22.3,3-32.4,1-38.8c-2-6.3-8.3-13.9-22.5-30.5l-14.5-16.9c-29.1-34-50.1-58.6-63.8-80.4C49,366.3,35.6,340,44.7,310.8
		c9.2-29.6,35.2-42.8,54-50.2c23.5-9.3,54.4-16.2,97.1-25.9c13.5-3.1,26.9,5.4,29.9,18.9c3,13.5-5.4,26.9-18.9,29.9
		c-39,8.8-69.9,15.8-89.8,23.7c-21.4,8.4-23.6,15.3-24.6,18.6c-1.5,4.9-1.8,12.9,9.7,31.2c11.8,18.7,32.8,43.3,59.5,74.5l14.5,16.9
		c17.5,20.5,27.2,31.8,32.3,48.2c5.1,16.3,3.6,31.3,1,58.5l-2.2,22.6c-6.8,70.4-11.3,116.9,3.1,127.9c13.6,10.3,54-8.3,115.1-36.4
		l19.9-9.2c23.5-10.8,37.7-17.4,54.7-17.4c17,0,31.2,6.5,54.7,17.3l19.9,9.2c61.1,28.1,101.5,46.7,115.1,36.4
		c14.4-10.9,9.9-57.5,3.1-127.9l49.8-4.8c4.4,45.3,7.6,78.1,6.4,104.1c-1,22.4-5.2,50.4-29,68.5c-24.7,18.7-53.6,13.4-73.1,7.8
		c-24.2-6.9-53.1-20.2-93.1-38.7l-19.9-9.2c-17.9-8.2-27.7-12.8-33.8-12.8c-6.1,0-15.9,4.5-33.8,12.8l-19.9,9.2
		c-40,18.4-68.9,31.7-93.1,38.7C243.9,755.7,232.6,758.3,220.6,758.3z M657.3,472.7c-5.7,0-11.5-2-16.2-6
		c-10.5-9-11.7-24.8-2.8-35.2c26.7-31.2,47.7-55.8,59.5-74.5c11.5-18.3,11.2-26.3,9.7-31.2c-1-3.3-3.1-10.1-24.6-18.6
		c-19.9-7.9-50.8-14.8-89.8-23.7l-21.2-4.8c-25.1-5.7-40.2-9.1-53.9-19.5c-13.5-10.3-20.8-23.3-34.1-47.1l-10.9-19.6
		C440.4,133.9,416.9,91.7,400,91.7c-16.9,0-40.4,42.3-73.1,100.8l-43.7-24.3c22-39.4,37.8-67.9,53.4-88.2
		c12.6-16.4,32.8-38.2,63.3-38.2s50.7,21.8,63.3,38.2c15.6,20.4,31.5,48.8,53.4,88.2l10.9,19.6c10,17.9,15.5,27.7,20.6,31.6
		c4.8,3.7,14.1,5.9,34.7,10.5l21.2,4.8c42.7,9.7,73.6,16.7,97.1,25.9c18.8,7.4,44.8,20.7,54,50.2c9.1,29.2-4.3,55.5-15.1,72.7
		c-13.7,21.8-34.7,46.4-63.8,80.4C671.4,469.7,664.4,472.7,657.3,472.7z"/>
</g>
</svg>
