<?xml version="1.0" encoding="utf-8"?>
<!-- Generator: Adobe Illustrator 27.1.0, SVG Export Plug-In . SVG Version: 6.00 Build 0)  -->
<svg version="1.1" id="Layer_1" xmlns="http://www.w3.org/2000/svg" xmlns:xlink="http://www.w3.org/1999/xlink" x="0px" y="0px"
	 viewBox="0 0 800 800" style="enable-background:new 0 0 800 800;" xml:space="preserve">
<style type="text/css">
	.st0{fill:#231F20;}
</style>
<g>
	<path class="st0" d="M537.5,625c-31.6,0-59.3-16.3-74.7-40.8c-0.4-0.5-0.7-1-1-1.6l-216.7-370c-7-11.9-3-27.2,8.9-34.2
		s27.2-3,34.2,8.9L466.1,491c15.9-21.8,42-36,71.4-36c48.2,0,87.5,38.1,87.5,85S585.7,625,537.5,625z M537.5,505
		c-20.7,0-37.5,15.7-37.5,35s16.8,35,37.5,35s37.5-15.7,37.5-35S558.2,505,537.5,505z"/>
</g>
<g>
	<path class="st0" d="M262.5,625c-48.2,0-87.5-38.1-87.5-85s39.3-85,87.5-85c29.5,0,55.6,14.2,71.4,36l177.8-303.6
		c7-11.9,22.3-15.9,34.2-8.9c11.9,7,15.9,22.3,8.9,34.2l-216.7,370c-0.3,0.5-0.7,1.1-1,1.6C321.8,608.7,294.1,625,262.5,625z
		 M262.5,505c-20.7,0-37.5,15.7-37.5,35s16.8,35,37.5,35s37.5-15.7,37.5-35S283.2,505,262.5,505z"/>
</g>
<g>
	<path class="st0" d="M400,758.3c-80.8,0-139.2,0-186.2-6.3c-52.9-7.1-88.6-22.5-116-49.8c-27.3-27.3-42.7-63.1-49.8-116
		c-6.3-47-6.3-105.4-6.3-186.2c0-80.8,0-139.2,6.3-186.2c7.1-52.9,22.5-88.6,49.8-116s63.1-42.7,116-49.8
		c47-6.3,105.4-6.3,186.2-6.3c80.8,0,139.2,0,186.2,6.3c52.9,7.1,88.6,22.5,116,49.8c40.1,40.1,50.7,96,54.3,167.6
		c0.7,13.8-9.9,25.5-23.7,26.2c-13.8,0.7-25.5-9.9-26.2-23.7c-3.6-72.9-14.4-109.5-39.7-134.8C625.3,91.7,550,91.7,400,91.7
		s-225.3,0-266.8,41.5S91.7,250,91.7,400s0,225.3,41.5,266.8c41.5,41.5,116.8,41.5,266.8,41.5s225.3,0,266.8-41.5
		c41.5-41.5,41.5-116.8,41.5-266.8c0-13.8,11.2-25,25-25c13.8,0,25,11.2,25,25c0,80.8,0,139.2-6.3,186.2
		c-7.1,52.9-22.5,88.6-49.8,116c-27.3,27.3-63.1,42.7-116,49.8C539.2,758.3,480.8,758.3,400,758.3z"/>
</g>
</svg>
