<?xml version="1.0" encoding="utf-8"?>
<!-- Generator: Adobe Illustrator 27.0.0, SVG Export Plug-In . SVG Version: 6.00 Build 0)  -->
<svg version="1.1" id="Layer_1" xmlns="http://www.w3.org/2000/svg" xmlns:xlink="http://www.w3.org/1999/xlink" x="0px" y="0px"
	 viewBox="0 0 800 800" style="enable-background:new 0 0 800 800;" xml:space="preserve">
<style type="text/css">
	.st0{fill:#231F20;}
</style>
<g>
	<path class="st0" d="M316.7,558.3C316.7,558.3,316.7,558.3,316.7,558.3c0,0-0.1,0-0.1,0c-0.8,0-1.6,0-2.4-0.1c0,0,0,0,0,0
		c0,0,0,0-0.1,0c0,0-0.1,0-0.1,0c0,0,0,0,0,0c-1.8-0.2-3.6-0.6-5.2-1.1h0c0,0-0.1,0-0.1,0c0,0,0,0,0,0c0,0,0,0-0.1,0
		c-1-0.3-1.9-0.7-2.9-1.2c-2.4-1.2-4.7-2.8-6.7-4.8c-0.4-0.4-0.7-0.7-1-1.1l-83.1-91.4c-9.3-10.2-8.5-26,1.7-35.3
		c10.2-9.3,26-8.5,35.3,1.7l39.8,43.8v-202c0-13.8,11.2-25,25-25c13.8,0,25,11.2,25,25v202l39.8-43.8c9.3-10.2,25.1-11,35.3-1.7
		c10.2,9.3,11,25.1,1.7,35.3l-83.1,91.4c-0.3,0.4-0.7,0.7-1,1.1c-2,2-4.2,3.5-6.6,4.7c0,0,0,0,0,0c0,0-0.1,0-0.1,0
		c-0.9,0.5-1.9,0.9-2.9,1.2c0,0-0.1,0-0.1,0c0,0,0,0,0,0c-1.7,0.6-3.4,1-5.2,1.2h0c0,0-0.1,0-0.1,0c0,0,0,0,0,0c0,0,0,0-0.1,0
		C318.4,558.3,317.6,558.3,316.7,558.3C316.7,558.3,316.7,558.3,316.7,558.3z"/>
</g>
<g>
	<path class="st0" d="M483.3,558.3c-13.8,0-25-11.2-25-25v-202l-39.8,43.8c-9.3,10.2-25.1,11-35.3,1.7c-10.2-9.3-11-25.1-1.7-35.3
		l83.1-91.4c0.4-0.5,0.9-1,1.4-1.4c1.8-1.7,3.8-3.1,5.9-4.2c0.8-0.4,1.5-0.7,2.3-1.1c0,0,0,0,0.1,0c0,0,0,0,0,0c2.5-1,5.2-1.6,8-1.7
		c0,0,0,0,0,0c0,0,0.1,0,0.1,0c0,0,0,0,0,0c0.1,0,0.1,0,0.2,0c0.1,0,0.1,0,0.2,0c0,0,0.1,0,0.1,0c0,0,0.1,0,0.1,0c0,0,0.1,0,0.1,0
		c0,0,0.1,0,0.1,0c0.1,0,0.2,0,0.3,0c0,0,0.1,0,0.1,0c0,0,0.1,0,0.1,0c0,0,0.1,0,0.1,0c0,0,0.1,0,0.1,0c0.1,0,0.1,0,0.1,0
		c0,0,0,0,0,0c0,0,0.1,0,0.1,0c0,0,0,0,0,0c0,0,0.1,0,0.1,0c0,0,0,0,0,0c2.9,0.1,5.6,0.7,8.1,1.7c0,0,0,0,0,0c0,0,0,0,0.1,0
		c0.6,0.2,1.1,0.5,1.7,0.8c0,0,0,0,0,0c0,0,0,0,0.1,0c2.3,1.2,4.5,2.7,6.5,4.6c0.1,0.1,0.1,0.1,0.2,0.2c0,0,0,0,0,0c0,0,0,0,0,0
		c0.3,0.3,0.6,0.7,0.9,1l83.1,91.4c9.3,10.2,8.5,26-1.7,35.3c-10.2,9.3-26,8.5-35.3-1.7l-39.8-43.8v202
		C508.3,547.1,497.1,558.3,483.3,558.3z"/>
</g>
<g>
	<path class="st0" d="M400,758.3c-80.8,0-139.2,0-186.2-6.3c-52.9-7.1-88.6-22.5-116-49.8c-27.3-27.3-42.7-63.1-49.8-116
		c-6.3-47-6.3-105.4-6.3-186.2c0-80.8,0-139.2,6.3-186.2c7.1-52.9,22.5-88.6,49.8-116s63.1-42.7,116-49.8
		c47-6.3,105.4-6.3,186.2-6.3c80.8,0,139.2,0,186.2,6.3c52.9,7.1,88.6,22.5,116,49.8c40.1,40.1,50.7,96,54.3,167.6
		c0.7,13.8-9.9,25.5-23.7,26.2c-13.8,0.7-25.5-9.9-26.2-23.7c-3.6-72.9-14.4-109.5-39.7-134.8C625.3,91.7,550,91.7,400,91.7
		s-225.3,0-266.8,41.5S91.7,250,91.7,400s0,225.3,41.5,266.8c41.5,41.5,116.8,41.5,266.8,41.5s225.3,0,266.8-41.5
		c41.5-41.5,41.5-116.8,41.5-266.8c0-13.8,11.2-25,25-25c13.8,0,25,11.2,25,25c0,80.8,0,139.2-6.3,186.2
		c-7.1,52.9-22.5,88.6-49.8,116c-27.3,27.3-63.1,42.7-116,49.8C539.2,758.3,480.8,758.3,400,758.3z"/>
</g>
</svg>
